<svg width="32" height="32" viewBox="0 0 32 32" fill="none" xmlns="http://www.w3.org/2000/svg">
<path d="M13.4167 3.71378C15.0233 2.82486 16.9742 2.82486 18.5808 3.71378L25.899 7.76291C27.5967 8.70222 28.6503 10.4894 28.6503 12.4296V20.1409C28.6503 22.0811 27.5967 23.8682 25.899 24.8075L18.5808 28.8567C16.9742 29.7456 15.0233 29.7456 13.4167 28.8567L6.09847 24.8075C4.40081 23.8682 3.34717 22.0811 3.34717 20.1409V12.4296C3.34717 10.4894 4.40081 8.70222 6.09847 7.76291L13.4167 3.71378Z" fill="#78E6DC"/>
<path d="M8.69581 13.8691H8.31396V18.2983C8.31396 20.5308 10.4476 22.439 13.2267 23.1973C13.8412 23.365 14.3089 23.898 14.3089 24.535V24.982C14.3089 25.4495 14.6881 25.8283 15.1556 25.8279C15.6225 25.8275 16.0008 25.4489 16.0008 24.982V19.1165C16.0008 16.2185 12.7302 13.8691 8.69581 13.8691Z" fill="#4274E4"/>
<path d="M11.1973 9.39453C13.7447 9.39453 15.8099 11.4597 15.8099 14.0071V15.4158C13.2624 15.4158 11.1973 13.3507 11.1973 10.8032V9.39453Z" fill="#00B9D2"/>
<path d="M16.582 18.6324C16.582 14.7127 19.7596 11.5352 23.6793 11.5352V15.624C23.6793 19.5437 20.5017 22.7212 16.582 22.7212V18.6324Z" fill="#00B9D2"/>
<circle cx="17.8265" cy="11.5355" r="1.24448" fill="#3CA1FF"/>
</svg>
