<svg width="462" height="193" viewBox="0 0 462 193" fill="none" xmlns="http://www.w3.org/2000/svg">
<g clip-path="url(#clip0_235_11832)">
<rect width="462" height="193" rx="8" fill="#FAFBFC"/>
<g filter="url(#filter0_dd_235_11832)">
<rect x="26" y="23" width="290" height="197" rx="8" fill="white"/>
<rect x="26.5" y="23.5" width="289" height="196" rx="7.5" stroke="#4D5D7D" stroke-opacity="0.12"/>
<rect x="45.3511" y="44.8662" width="41.1104" height="8" rx="4" fill="#F5F6FA"/>
<rect x="93.1189" y="44.8662" width="41.1104" height="8" rx="4" fill="#F5F6FA"/>
<rect x="140.886" y="44.8662" width="41.1104" height="8" rx="4" fill="#F5F6FA"/>
<rect x="188.654" y="44.8662" width="41.1104" height="8" rx="4" fill="#F5F6FA"/>
<rect x="236.421" y="44.8662" width="66.9324" height="8" rx="4" fill="#F5F6FA"/>
<rect x="45.3511" y="62.8662" width="41.1104" height="8" rx="4" fill="#F5F6FA"/>
<rect x="93.1189" y="62.8662" width="41.1104" height="8" rx="4" fill="#F5F6FA"/>
<rect x="140.886" y="62.8662" width="41.1104" height="8" rx="4" fill="#F5F6FA"/>
<rect x="188.654" y="62.8662" width="41.1104" height="8" rx="4" fill="#F5F6FA"/>
<rect x="236.421" y="62.8662" width="66.9324" height="8" rx="4" fill="#F5F6FA"/>
<rect x="45.3511" y="80.8662" width="41.1104" height="8" rx="4" fill="#F5F6FA"/>
<rect x="93.1189" y="80.8662" width="41.1104" height="8" rx="4" fill="#F5F6FA"/>
<rect x="140.886" y="80.8662" width="41.1104" height="8" rx="4" fill="#F5F6FA"/>
<rect x="188.654" y="80.8662" width="41.1104" height="8" rx="4" fill="#F5F6FA"/>
<rect x="236.421" y="80.8662" width="66.9324" height="8" rx="4" fill="#F5F6FA"/>
<rect x="45.3511" y="116.866" width="41.1104" height="8" rx="4" fill="#F5F6FA"/>
<rect x="93.1189" y="116.866" width="41.1104" height="8" rx="4" fill="#F5F6FA"/>
<rect x="140.886" y="116.866" width="41.1104" height="8" rx="4" fill="#F5F6FA"/>
<rect x="188.654" y="116.866" width="41.1104" height="8" rx="4" fill="#F5F6FA"/>
<rect x="236.421" y="116.866" width="66.9324" height="8" rx="4" fill="#F5F6FA"/>
<rect x="45.3511" y="98.8662" width="41.1104" height="8" rx="4" fill="#F5F6FA"/>
<rect x="93.1189" y="98.8662" width="41.1104" height="8" rx="4" fill="#F5F6FA"/>
<rect x="140.886" y="98.8662" width="41.1104" height="8" rx="4" fill="#F5F6FA"/>
<rect x="188.654" y="98.8662" width="41.1104" height="8" rx="4" fill="#F5F6FA"/>
<rect x="236.421" y="98.8662" width="66.9324" height="8" rx="4" fill="#F5F6FA"/>
<rect x="45.3511" y="134.866" width="41.1104" height="8" rx="4" fill="#F5F6FA"/>
<rect x="93.1189" y="134.866" width="41.1104" height="8" rx="4" fill="#F5F6FA"/>
<rect x="140.886" y="134.866" width="41.1104" height="8" rx="4" fill="#F5F6FA"/>
<rect x="188.654" y="134.866" width="41.1104" height="8" rx="4" fill="#F5F6FA"/>
<rect x="236.421" y="134.866" width="66.9324" height="8" rx="4" fill="#F5F6FA"/>
</g>
<g filter="url(#filter1_dd_235_11832)">
<rect x="171" y="41" width="275" height="197" rx="8" fill="white"/>
<rect x="171.5" y="41.5" width="274" height="196" rx="7.5" stroke="#4D5D7D" stroke-opacity="0.12"/>
<rect x="190.351" y="61.8613" width="38.2436" height="8" rx="4" fill="#F5F6FA"/>
<rect x="234.788" y="61.8613" width="38.2436" height="8" rx="4" fill="#F5F6FA"/>
<rect x="279.224" y="61.8613" width="38.2436" height="8" rx="4" fill="#F5F6FA"/>
<rect x="323.661" y="61.8613" width="38.2436" height="8" rx="4" fill="#F5F6FA"/>
<rect x="368.097" y="61.8613" width="62.265" height="8" rx="4" fill="#F5F6FA"/>
<rect x="190.351" y="79.8613" width="38.2436" height="8" rx="4" fill="#F5F6FA"/>
<rect x="234.788" y="79.8613" width="38.2436" height="8" rx="4" fill="#F5F6FA"/>
<rect x="279.224" y="79.8613" width="38.2436" height="8" rx="4" fill="#F5F6FA"/>
<rect x="323.661" y="79.8613" width="38.2436" height="8" rx="4" fill="#F5F6FA"/>
<rect x="368.097" y="79.8613" width="62.265" height="8" rx="4" fill="#F5F6FA"/>
<rect x="190.351" y="97.8613" width="38.2436" height="8" rx="4" fill="#F5F6FA"/>
<rect x="234.788" y="97.8613" width="38.2436" height="8" rx="4" fill="#F5F6FA"/>
<rect x="279.224" y="97.8613" width="38.2436" height="8" rx="4" fill="#F5F6FA"/>
<rect x="323.661" y="97.8613" width="38.2436" height="8" rx="4" fill="#F5F6FA"/>
<rect x="368.097" y="97.8613" width="62.265" height="8" rx="4" fill="#F5F6FA"/>
<rect x="190.351" y="133.861" width="38.2436" height="8" rx="4" fill="#F5F6FA"/>
<rect x="234.788" y="133.861" width="38.2436" height="8" rx="4" fill="#F5F6FA"/>
<rect x="279.224" y="133.861" width="38.2436" height="8" rx="4" fill="#F5F6FA"/>
<rect x="323.661" y="133.861" width="38.2436" height="8" rx="4" fill="#F5F6FA"/>
<rect x="368.097" y="133.861" width="62.265" height="8" rx="4" fill="#F5F6FA"/>
<rect x="190.351" y="115.861" width="38.2436" height="8" rx="4" fill="#F5F6FA"/>
<rect x="234.788" y="115.861" width="38.2436" height="8" rx="4" fill="#F5F6FA"/>
<rect x="279.224" y="115.861" width="38.2436" height="8" rx="4" fill="#F5F6FA"/>
<rect x="323.661" y="115.861" width="38.2436" height="8" rx="4" fill="#F5F6FA"/>
<rect x="368.097" y="115.861" width="62.265" height="8" rx="4" fill="#F5F6FA"/>
<rect x="190.351" y="151.861" width="38.2436" height="8" rx="4" fill="#F5F6FA"/>
<rect x="234.788" y="151.861" width="38.2436" height="8" rx="4" fill="#F5F6FA"/>
<rect x="279.224" y="151.861" width="38.2436" height="8" rx="4" fill="#F5F6FA"/>
<rect x="323.661" y="151.861" width="38.2436" height="8" rx="4" fill="#F5F6FA"/>
<rect x="368.097" y="151.861" width="62.265" height="8" rx="4" fill="#F5F6FA"/>
</g>
<g filter="url(#filter2_dd_235_11832)">
<rect x="85" y="59" width="292" height="197" rx="8" fill="white"/>
<rect x="85.5" y="59.5" width="291" height="196" rx="7.5" stroke="#4D5D7D" stroke-opacity="0.12"/>
<path d="M119.984 83.3164H117.52V76.0437H120.034C120.756 76.0437 121.376 76.1893 121.895 76.4805C122.415 76.7693 122.816 77.1848 123.095 77.7269C123.374 78.2691 123.514 78.9177 123.514 79.6729C123.514 80.4305 123.373 81.0816 123.091 81.6261C122.812 82.1706 122.408 82.5884 121.88 82.8796C121.355 83.1708 120.723 83.3164 119.984 83.3164ZM118.837 82.1765H119.92C120.427 82.1765 120.849 82.0842 121.188 81.8995C121.526 81.7125 121.781 81.4343 121.951 81.065C122.122 80.6933 122.207 80.2293 122.207 79.6729C122.207 79.1166 122.122 78.6549 121.951 78.288C121.781 77.9187 121.529 77.6429 121.195 77.4606C120.864 77.2759 120.452 77.1836 119.959 77.1836H118.837V82.1765ZM126.278 83.4265C125.933 83.4265 125.621 83.3649 125.345 83.2418C125.07 83.1164 124.852 82.9317 124.691 82.6879C124.532 82.444 124.453 82.1433 124.453 81.7859C124.453 81.4781 124.51 81.2236 124.624 81.0224C124.737 80.8211 124.892 80.6602 125.089 80.5394C125.285 80.4187 125.507 80.3275 125.753 80.266C126.001 80.2021 126.258 80.1559 126.523 80.1275C126.843 80.0943 127.102 80.0647 127.301 80.0387C127.5 80.0103 127.644 79.9677 127.734 79.9109C127.827 79.8517 127.873 79.7605 127.873 79.6374V79.6161C127.873 79.3486 127.794 79.1415 127.635 78.9947C127.476 78.8479 127.248 78.7745 126.95 78.7745C126.635 78.7745 126.385 78.8432 126.2 78.9805C126.018 79.1178 125.895 79.2799 125.831 79.467L124.631 79.2965C124.725 78.9651 124.882 78.6881 125.099 78.4656C125.317 78.2406 125.584 78.0726 125.898 77.9613C126.213 77.8477 126.561 77.7908 126.943 77.7908C127.205 77.7908 127.467 77.8216 127.727 77.8832C127.988 77.9447 128.226 78.0465 128.441 78.1886C128.657 78.3282 128.829 78.5188 128.96 78.7603C129.092 79.0018 129.158 79.3036 129.158 79.6658V83.3164H127.923V82.5671H127.88C127.802 82.7186 127.692 82.8607 127.55 82.9933C127.41 83.1235 127.234 83.2288 127.021 83.3093C126.81 83.3874 126.563 83.4265 126.278 83.4265ZM126.612 82.4819C126.87 82.4819 127.094 82.431 127.283 82.3292C127.473 82.225 127.618 82.0877 127.72 81.9173C127.824 81.7468 127.876 81.561 127.876 81.3597V80.717C127.836 80.7501 127.768 80.7809 127.67 80.8093C127.576 80.8377 127.469 80.8626 127.351 80.8839C127.233 80.9052 127.115 80.9241 126.999 80.9407C126.883 80.9573 126.783 80.9715 126.697 80.9833C126.506 81.0094 126.334 81.052 126.183 81.1112C126.031 81.1703 125.912 81.2532 125.824 81.3597C125.736 81.4639 125.693 81.5988 125.693 81.7646C125.693 82.0013 125.779 82.18 125.952 82.3008C126.125 82.4215 126.345 82.4819 126.612 82.4819ZM133.175 77.8619V78.8562H130.039V77.8619H133.175ZM130.813 76.555H132.099V81.6758C132.099 81.8486 132.125 81.9812 132.177 82.0735C132.231 82.1635 132.302 82.225 132.39 82.2582C132.478 82.2913 132.575 82.3079 132.681 82.3079C132.762 82.3079 132.835 82.302 132.901 82.2901C132.97 82.2783 133.022 82.2676 133.058 82.2582L133.274 83.2631C133.206 83.2868 133.107 83.3129 132.979 83.3413C132.854 83.3697 132.7 83.3862 132.518 83.391C132.196 83.4004 131.906 83.3519 131.648 83.2454C131.39 83.1365 131.185 82.9684 131.033 82.7411C130.884 82.5138 130.811 82.2298 130.813 81.8888V76.555ZM135.819 83.4265C135.474 83.4265 135.163 83.3649 134.886 83.2418C134.611 83.1164 134.393 82.9317 134.232 82.6879C134.073 82.444 133.994 82.1433 133.994 81.7859C133.994 81.4781 134.051 81.2236 134.165 81.0224C134.278 80.8211 134.433 80.6602 134.63 80.5394C134.826 80.4187 135.048 80.3275 135.294 80.266C135.542 80.2021 135.799 80.1559 136.064 80.1275C136.384 80.0943 136.643 80.0647 136.842 80.0387C137.041 80.0103 137.185 79.9677 137.275 79.9109C137.368 79.8517 137.414 79.7605 137.414 79.6374V79.6161C137.414 79.3486 137.335 79.1415 137.176 78.9947C137.017 78.8479 136.789 78.7745 136.491 78.7745C136.176 78.7745 135.926 78.8432 135.741 78.9805C135.559 79.1178 135.436 79.2799 135.372 79.467L134.172 79.2965C134.266 78.9651 134.423 78.6881 134.64 78.4656C134.858 78.2406 135.125 78.0726 135.439 77.9613C135.754 77.8477 136.102 77.7908 136.484 77.7908C136.746 77.7908 137.008 77.8216 137.268 77.8832C137.529 77.9447 137.767 78.0465 137.982 78.1886C138.198 78.3282 138.37 78.5188 138.501 78.7603C138.633 79.0018 138.699 79.3036 138.699 79.6658V83.3164H137.464V82.5671H137.421C137.343 82.7186 137.233 82.8607 137.091 82.9933C136.951 83.1235 136.775 83.2288 136.562 83.3093C136.351 83.3874 136.104 83.4265 135.819 83.4265ZM136.153 82.4819C136.411 82.4819 136.635 82.431 136.824 82.3292C137.014 82.225 137.159 82.0877 137.261 81.9173C137.365 81.7468 137.417 81.561 137.417 81.3597V80.717C137.377 80.7501 137.309 80.7809 137.212 80.8093C137.117 80.8377 137.01 80.8626 136.892 80.8839C136.774 80.9052 136.656 80.9241 136.54 80.9407C136.424 80.9573 136.324 80.9715 136.239 80.9833C136.047 81.0094 135.875 81.052 135.724 81.1112C135.572 81.1703 135.453 81.2532 135.365 81.3597C135.277 81.4639 135.234 81.5988 135.234 81.7646C135.234 82.0013 135.32 82.18 135.493 82.3008C135.666 82.4215 135.886 82.4819 136.153 82.4819ZM144.303 79.3036L143.131 79.4315C143.098 79.3131 143.04 79.2018 142.957 79.0977C142.877 78.9935 142.768 78.9094 142.631 78.8455C142.493 78.7816 142.325 78.7496 142.126 78.7496C141.859 78.7496 141.634 78.8076 141.452 78.9237C141.272 79.0397 141.183 79.19 141.185 79.3746C141.183 79.5333 141.241 79.6623 141.359 79.7617C141.48 79.8612 141.679 79.9428 141.956 80.0067L142.886 80.2056C143.402 80.3169 143.786 80.4933 144.037 80.7347C144.29 80.9762 144.418 81.2923 144.42 81.6829C144.418 82.0262 144.317 82.3292 144.118 82.592C143.922 82.8524 143.649 83.056 143.298 83.2028C142.948 83.3496 142.545 83.4229 142.091 83.4229C141.423 83.4229 140.886 83.2833 140.479 83.0039C140.071 82.7222 139.829 82.3304 139.751 81.8285L141.004 81.7077C141.061 81.954 141.182 82.1398 141.366 82.2653C141.551 82.3907 141.791 82.4535 142.087 82.4535C142.393 82.4535 142.638 82.3907 142.822 82.2653C143.009 82.1398 143.103 81.9847 143.103 81.8001C143.103 81.6438 143.042 81.5148 142.922 81.413C142.803 81.3112 142.619 81.2331 142.368 81.1786L141.437 80.9833C140.914 80.8744 140.527 80.6909 140.276 80.4329C140.025 80.1725 139.901 79.8434 139.903 79.4457C139.901 79.1095 139.992 78.8183 140.177 78.5721C140.364 78.3235 140.623 78.1317 140.954 77.9968C141.288 77.8595 141.673 77.7908 142.109 77.7908C142.748 77.7908 143.251 77.927 143.618 78.1992C143.987 78.4715 144.216 78.8396 144.303 79.3036ZM147.895 83.4229C147.348 83.4229 146.876 83.3093 146.478 83.082C146.083 82.8524 145.779 82.5281 145.566 82.109C145.352 81.6876 145.246 81.1916 145.246 80.6211C145.246 80.06 145.352 79.5676 145.566 79.1438C145.781 78.7177 146.082 78.3862 146.468 78.1495C146.853 77.9104 147.307 77.7908 147.828 77.7908C148.164 77.7908 148.481 77.8453 148.779 77.9542C149.08 78.0607 149.345 78.2264 149.575 78.4513C149.807 78.6763 149.989 78.9627 150.122 79.3107C150.254 79.6564 150.321 80.0683 150.321 80.5465V80.9407H145.85V80.0742H149.088C149.086 79.828 149.033 79.609 148.928 79.4173C148.824 79.2231 148.679 79.0704 148.492 78.9592C148.307 78.8479 148.092 78.7923 147.845 78.7923C147.583 78.7923 147.352 78.8562 147.153 78.984C146.954 79.1095 146.799 79.2752 146.688 79.4812C146.579 79.6848 146.523 79.9085 146.521 80.1523V80.9087C146.521 81.226 146.579 81.4982 146.695 81.7255C146.811 81.9504 146.973 82.1232 147.181 82.244C147.39 82.3623 147.634 82.4215 147.913 82.4215C148.1 82.4215 148.269 82.3955 148.421 82.3434C148.572 82.2889 148.704 82.2096 148.815 82.1055C148.926 82.0013 149.01 81.8723 149.067 81.7184L150.267 81.8533C150.192 82.1706 150.047 82.4476 149.834 82.6843C149.623 82.9187 149.353 83.101 149.024 83.2312C148.695 83.359 148.319 83.4229 147.895 83.4229ZM154.132 77.8619V78.8562H150.996V77.8619H154.132ZM151.77 76.555H153.056V81.6758C153.056 81.8486 153.082 81.9812 153.134 82.0735C153.188 82.1635 153.259 82.225 153.347 82.2582C153.435 82.2913 153.532 82.3079 153.638 82.3079C153.719 82.3079 153.792 82.302 153.858 82.2901C153.927 82.2783 153.979 82.2676 154.015 82.2582L154.231 83.2631C154.163 83.2868 154.064 83.3129 153.936 83.3413C153.811 83.3697 153.657 83.3862 153.475 83.391C153.153 83.4004 152.863 83.3519 152.605 83.2454C152.347 83.1365 152.142 82.9684 151.99 82.7411C151.841 82.5138 151.768 82.2298 151.77 81.8888V76.555Z" fill="#636F8D"/>
<circle cx="108.003" cy="79.6636" r="3.65186" fill="#4274E4"/>
<circle cx="108.003" cy="79.6636" r="3.65186" fill="url(#paint0_linear_235_11832)"/>
<rect x="104.351" y="99.8613" width="41.1104" height="8" rx="4" fill="#F5F6FA"/>
<rect x="152.119" y="99.8613" width="41.1104" height="8" rx="4" fill="#F5F6FA"/>
<rect x="199.886" y="99.8613" width="41.1104" height="8" rx="4" fill="#F5F6FA"/>
<rect x="247.654" y="99.8613" width="41.1104" height="8" rx="4" fill="#F5F6FA"/>
<rect x="295.421" y="99.8613" width="66.9324" height="8" rx="4" fill="#F5F6FA"/>
<rect x="104.351" y="117.861" width="41.1104" height="8" rx="4" fill="#F5F6FA"/>
<rect x="152.119" y="117.861" width="41.1104" height="8" rx="4" fill="#F5F6FA"/>
<rect x="199.886" y="117.861" width="41.1104" height="8" rx="4" fill="#F5F6FA"/>
<rect x="247.654" y="117.861" width="41.1104" height="8" rx="4" fill="#F5F6FA"/>
<rect x="295.421" y="117.861" width="66.9324" height="8" rx="4" fill="#F5F6FA"/>
<rect x="104.351" y="135.861" width="41.1104" height="8" rx="4" fill="#F5F6FA"/>
<rect x="152.119" y="135.861" width="41.1104" height="8" rx="4" fill="#F5F6FA"/>
<rect x="199.886" y="135.861" width="41.1104" height="8" rx="4" fill="#F5F6FA"/>
<rect x="247.654" y="135.861" width="41.1104" height="8" rx="4" fill="#F5F6FA"/>
<rect x="295.421" y="135.861" width="66.9324" height="8" rx="4" fill="#F5F6FA"/>
<rect x="104.351" y="171.861" width="41.1104" height="8" rx="4" fill="#F5F6FA"/>
<rect x="152.119" y="171.861" width="41.1104" height="8" rx="4" fill="#F5F6FA"/>
<rect x="199.886" y="171.861" width="41.1104" height="8" rx="4" fill="#F5F6FA"/>
<rect x="247.654" y="171.861" width="41.1104" height="8" rx="4" fill="#F5F6FA"/>
<rect x="295.421" y="171.861" width="66.9324" height="8" rx="4" fill="#F5F6FA"/>
<rect x="104.351" y="153.861" width="41.1104" height="8" rx="4" fill="#F5F6FA"/>
<rect x="152.119" y="153.861" width="41.1104" height="8" rx="4" fill="#F5F6FA"/>
<rect x="199.886" y="153.861" width="41.1104" height="8" rx="4" fill="#F5F6FA"/>
<rect x="247.654" y="153.861" width="41.1104" height="8" rx="4" fill="#F5F6FA"/>
<rect x="295.421" y="153.861" width="66.9324" height="8" rx="4" fill="#F5F6FA"/>
<rect x="104.351" y="189.861" width="41.1104" height="8" rx="4" fill="#F5F6FA"/>
<rect x="152.119" y="189.861" width="41.1104" height="8" rx="4" fill="#F5F6FA"/>
<rect x="199.886" y="189.861" width="41.1104" height="8" rx="4" fill="#F5F6FA"/>
<rect x="247.654" y="189.861" width="41.1104" height="8" rx="4" fill="#F5F6FA"/>
<rect x="295.421" y="189.861" width="66.9324" height="8" rx="4" fill="#F5F6FA"/>
</g>
<rect x="-0.966309" y="93.9492" width="462.966" height="99.5508" fill="url(#paint1_linear_235_11832)"/>
</g>
<defs>
<filter id="filter0_dd_235_11832" x="12" y="12" width="318" height="225" filterUnits="userSpaceOnUse" color-interpolation-filters="sRGB">
<feFlood flood-opacity="0" result="BackgroundImageFix"/>
<feColorMatrix in="SourceAlpha" type="matrix" values="0 0 0 0 0 0 0 0 0 0 0 0 0 0 0 0 0 0 127 0" result="hardAlpha"/>
<feOffset dy="3"/>
<feGaussianBlur stdDeviation="7"/>
<feColorMatrix type="matrix" values="0 0 0 0 0.212534 0 0 0 0 0.383151 0 0 0 0 1 0 0 0 0.1 0"/>
<feBlend mode="normal" in2="BackgroundImageFix" result="effect1_dropShadow_235_11832"/>
<feColorMatrix in="SourceAlpha" type="matrix" values="0 0 0 0 0 0 0 0 0 0 0 0 0 0 0 0 0 0 127 0" result="hardAlpha"/>
<feOffset dy="3"/>
<feGaussianBlur stdDeviation="7"/>
<feColorMatrix type="matrix" values="0 0 0 0 0.186148 0 0 0 0 0.186148 0 0 0 0 0.186148 0 0 0 0.04 0"/>
<feBlend mode="normal" in2="effect1_dropShadow_235_11832" result="effect2_dropShadow_235_11832"/>
<feBlend mode="normal" in="SourceGraphic" in2="effect2_dropShadow_235_11832" result="shape"/>
</filter>
<filter id="filter1_dd_235_11832" x="157" y="30" width="303" height="225" filterUnits="userSpaceOnUse" color-interpolation-filters="sRGB">
<feFlood flood-opacity="0" result="BackgroundImageFix"/>
<feColorMatrix in="SourceAlpha" type="matrix" values="0 0 0 0 0 0 0 0 0 0 0 0 0 0 0 0 0 0 127 0" result="hardAlpha"/>
<feOffset dy="3"/>
<feGaussianBlur stdDeviation="7"/>
<feColorMatrix type="matrix" values="0 0 0 0 0.212534 0 0 0 0 0.383151 0 0 0 0 1 0 0 0 0.1 0"/>
<feBlend mode="normal" in2="BackgroundImageFix" result="effect1_dropShadow_235_11832"/>
<feColorMatrix in="SourceAlpha" type="matrix" values="0 0 0 0 0 0 0 0 0 0 0 0 0 0 0 0 0 0 127 0" result="hardAlpha"/>
<feOffset dy="3"/>
<feGaussianBlur stdDeviation="7"/>
<feColorMatrix type="matrix" values="0 0 0 0 0.186148 0 0 0 0 0.186148 0 0 0 0 0.186148 0 0 0 0.04 0"/>
<feBlend mode="normal" in2="effect1_dropShadow_235_11832" result="effect2_dropShadow_235_11832"/>
<feBlend mode="normal" in="SourceGraphic" in2="effect2_dropShadow_235_11832" result="shape"/>
</filter>
<filter id="filter2_dd_235_11832" x="71" y="48" width="320" height="225" filterUnits="userSpaceOnUse" color-interpolation-filters="sRGB">
<feFlood flood-opacity="0" result="BackgroundImageFix"/>
<feColorMatrix in="SourceAlpha" type="matrix" values="0 0 0 0 0 0 0 0 0 0 0 0 0 0 0 0 0 0 127 0" result="hardAlpha"/>
<feOffset dy="3"/>
<feGaussianBlur stdDeviation="7"/>
<feColorMatrix type="matrix" values="0 0 0 0 0.212534 0 0 0 0 0.383151 0 0 0 0 1 0 0 0 0.1 0"/>
<feBlend mode="normal" in2="BackgroundImageFix" result="effect1_dropShadow_235_11832"/>
<feColorMatrix in="SourceAlpha" type="matrix" values="0 0 0 0 0 0 0 0 0 0 0 0 0 0 0 0 0 0 127 0" result="hardAlpha"/>
<feOffset dy="3"/>
<feGaussianBlur stdDeviation="7"/>
<feColorMatrix type="matrix" values="0 0 0 0 0.186148 0 0 0 0 0.186148 0 0 0 0 0.186148 0 0 0 0.04 0"/>
<feBlend mode="normal" in2="effect1_dropShadow_235_11832" result="effect2_dropShadow_235_11832"/>
<feBlend mode="normal" in="SourceGraphic" in2="effect2_dropShadow_235_11832" result="shape"/>
</filter>
<linearGradient id="paint0_linear_235_11832" x1="110.432" y1="76.4914" x2="105.468" y2="83.102" gradientUnits="userSpaceOnUse">
<stop stop-color="#4274E4"/>
<stop offset="1" stop-color="#78E6DC"/>
</linearGradient>
<linearGradient id="paint1_linear_235_11832" x1="230.517" y1="193.5" x2="230.517" y2="93.9492" gradientUnits="userSpaceOnUse">
<stop stop-color="#FAFBFC"/>
<stop offset="1" stop-color="#FAFBFC" stop-opacity="0"/>
</linearGradient>
<clipPath id="clip0_235_11832">
<rect width="462" height="193" rx="8" fill="white"/>
</clipPath>
</defs>
</svg>
