<svg width="462" height="193" viewBox="0 0 462 193" fill="none" xmlns="http://www.w3.org/2000/svg">
<g clip-path="url(#clip0_232_10262)">
<rect width="462" height="193" rx="8" fill="#FAFBFC"/>
<g filter="url(#filter0_dd_232_10262)">
<rect x="40" y="29" width="382" height="199" rx="8" fill="white"/>
<rect x="40.5" y="29.5" width="381" height="198" rx="7.5" stroke="#4D5D7D" stroke-opacity="0.12"/>
<path d="M69.0196 53.3164V46.0437H73.6787V47.1481H70.337V49.1225H73.3591V50.2269H70.337V53.3164H69.0196ZM76.8365 53.4229C76.2896 53.4229 75.8173 53.3093 75.4196 53.082C75.0243 52.8524 74.72 52.5281 74.507 52.109C74.2939 51.6876 74.1874 51.1916 74.1874 50.6211C74.1874 50.06 74.2939 49.5676 74.507 49.1438C74.7224 48.7177 75.0231 48.3862 75.409 48.1495C75.7948 47.9104 76.2482 47.7908 76.769 47.7908C77.1052 47.7908 77.4225 47.8453 77.7207 47.9542C78.0214 48.0607 78.2866 48.2264 78.5162 48.4513C78.7482 48.6763 78.9305 48.9627 79.0631 49.3107C79.1957 49.6564 79.2619 50.0683 79.2619 50.5465V50.9407H74.7911V50.0742H78.0297C78.0273 49.828 77.9741 49.609 77.8699 49.4173C77.7657 49.2231 77.6201 49.0704 77.4331 48.9592C77.2484 48.8479 77.033 48.7923 76.7868 48.7923C76.524 48.7923 76.2932 48.8562 76.0943 48.984C75.8955 49.1095 75.7404 49.2752 75.6291 49.4812C75.5202 49.6848 75.4646 49.9085 75.4622 50.1523V50.9087C75.4622 51.226 75.5202 51.4982 75.6362 51.7255C75.7522 51.9504 75.9144 52.1232 76.1227 52.244C76.3311 52.3623 76.5749 52.4215 76.8543 52.4215C77.0413 52.4215 77.2106 52.3955 77.3621 52.3434C77.5136 52.2889 77.645 52.2096 77.7563 52.1055C77.8675 52.0013 77.9516 51.8723 78.0084 51.7184L79.2087 51.8533C79.1329 52.1706 78.9885 52.4476 78.7754 52.6843C78.5647 52.9187 78.2948 53.101 77.9658 53.2312C77.6367 53.359 77.2603 53.4229 76.8365 53.4229ZM81.4459 53.3164L79.9047 47.8619H81.2151L82.1739 51.6971H82.2236L83.2037 47.8619H84.4999L85.48 51.6758H85.5332L86.4778 47.8619H87.7918L86.247 53.3164H84.9082L83.8855 49.6303H83.8109L82.7882 53.3164H81.4459ZM93.0004 49.3036L91.8285 49.4315C91.7954 49.3131 91.7374 49.2018 91.6545 49.0977C91.574 48.9935 91.4651 48.9094 91.3278 48.8455C91.1905 48.7816 91.0224 48.7496 90.8236 48.7496C90.556 48.7496 90.3311 48.8076 90.1488 48.9237C89.9689 49.0397 89.8801 49.19 89.8825 49.3746C89.8801 49.5333 89.9381 49.6623 90.0565 49.7617C90.1772 49.8612 90.3761 49.9428 90.6531 50.0067L91.5835 50.2056C92.0996 50.3169 92.4831 50.4933 92.7341 50.7347C92.9874 50.9762 93.1152 51.2923 93.1176 51.6829C93.1152 52.0262 93.0146 52.3292 92.8157 52.592C92.6192 52.8524 92.3458 53.056 91.9954 53.2028C91.645 53.3496 91.2426 53.4229 90.788 53.4229C90.1204 53.4229 89.583 53.2833 89.1758 53.0039C88.7686 52.7222 88.526 52.3304 88.4478 51.8285L89.7014 51.7077C89.7582 51.954 89.879 52.1398 90.0636 52.2653C90.2483 52.3907 90.4886 52.4535 90.7845 52.4535C91.0899 52.4535 91.3349 52.3907 91.5196 52.2653C91.7066 52.1398 91.8001 51.9847 91.8001 51.8001C91.8001 51.6438 91.7397 51.5148 91.619 51.413C91.5006 51.3112 91.316 51.2331 91.065 51.1786L90.1346 50.9833C89.6114 50.8744 89.2244 50.6909 88.9734 50.4329C88.7225 50.1725 88.5982 49.8434 88.6005 49.4457C88.5982 49.1095 88.6893 48.8183 88.874 48.5721C89.061 48.3235 89.3202 48.1317 89.6517 47.9968C89.9855 47.8595 90.3702 47.7908 90.8058 47.7908C91.445 47.7908 91.9481 47.927 92.315 48.1992C92.6843 48.4715 92.9128 48.8396 93.0004 49.3036ZM95.4631 50.1204V53.3164H94.1776V46.0437H95.4347V48.7887H95.4986C95.6265 48.4809 95.8241 48.2383 96.0917 48.0607C96.3616 47.8808 96.7048 47.7908 97.1215 47.7908C97.5003 47.7908 97.8305 47.8701 98.1123 48.0288C98.394 48.1874 98.6118 48.4194 98.7657 48.7248C98.9219 49.0302 99 49.4031 99 49.8434V53.3164H97.7145V50.0423C97.7145 49.6753 97.6198 49.39 97.4304 49.1864C97.2434 48.9805 96.9806 48.8775 96.6421 48.8775C96.4148 48.8775 96.2112 48.9272 96.0313 49.0266C95.8537 49.1237 95.7141 49.2646 95.6123 49.4492C95.5128 49.6339 95.4631 49.8576 95.4631 50.1204ZM102.69 53.4229C102.157 53.4229 101.695 53.3058 101.305 53.0714C100.914 52.837 100.611 52.5091 100.396 52.0877C100.183 51.6663 100.076 51.1739 100.076 50.6104C100.076 50.047 100.183 49.5534 100.396 49.1296C100.611 48.7058 100.914 48.3768 101.305 48.1424C101.695 47.908 102.157 47.7908 102.69 47.7908C103.222 47.7908 103.684 47.908 104.075 48.1424C104.465 48.3768 104.767 48.7058 104.98 49.1296C105.196 49.5534 105.303 50.047 105.303 50.6104C105.303 51.1739 105.196 51.6663 104.98 52.0877C104.767 52.5091 104.465 52.837 104.075 53.0714C103.684 53.3058 103.222 53.4229 102.69 53.4229ZM102.697 52.3931C102.986 52.3931 103.227 52.3138 103.421 52.1552C103.615 51.9942 103.76 51.7788 103.854 51.5089C103.952 51.239 104 50.9383 104 50.6069C104 50.2731 103.952 49.9712 103.854 49.7013C103.76 49.4291 103.615 49.2125 103.421 49.0515C103.227 48.8905 102.986 48.81 102.697 48.81C102.401 48.81 102.155 48.8905 101.958 49.0515C101.764 49.2125 101.618 49.4291 101.521 49.7013C101.427 49.9712 101.379 50.2731 101.379 50.6069C101.379 50.9383 101.427 51.239 101.521 51.5089C101.618 51.7788 101.764 51.9942 101.958 52.1552C102.155 52.3138 102.401 52.3931 102.697 52.3931ZM109.118 47.8619V48.8562H105.982V47.8619H109.118ZM106.757 46.555H108.042V51.6758C108.042 51.8486 108.068 51.9812 108.12 52.0735C108.175 52.1635 108.246 52.225 108.333 52.2582C108.421 52.2913 108.518 52.3079 108.625 52.3079C108.705 52.3079 108.778 52.302 108.845 52.2901C108.913 52.2783 108.965 52.2676 109.001 52.2582L109.218 53.2631C109.149 53.2868 109.051 53.3129 108.923 53.3413C108.797 53.3697 108.643 53.3862 108.461 53.391C108.139 53.4004 107.849 53.3519 107.591 53.2454C107.333 53.1365 107.128 52.9684 106.977 52.7411C106.828 52.5138 106.754 52.2298 106.757 51.8888V46.555ZM113.959 46.0437V53.3164H112.674V46.0437H113.959ZM117.696 53.4229C117.149 53.4229 116.677 53.3093 116.279 53.082C115.884 52.8524 115.579 52.5281 115.366 52.109C115.153 51.6876 115.047 51.1916 115.047 50.6211C115.047 50.06 115.153 49.5676 115.366 49.1438C115.582 48.7177 115.882 48.3862 116.268 48.1495C116.654 47.9104 117.108 47.7908 117.628 47.7908C117.965 47.7908 118.282 47.8453 118.58 47.9542C118.881 48.0607 119.146 48.2264 119.376 48.4513C119.608 48.6763 119.79 48.9627 119.922 49.3107C120.055 49.6564 120.121 50.0683 120.121 50.5465V50.9407H115.65V50.0742H118.889C118.887 49.828 118.833 49.609 118.729 49.4173C118.625 49.2231 118.48 49.0704 118.292 48.9592C118.108 48.8479 117.892 48.7923 117.646 48.7923C117.383 48.7923 117.153 48.8562 116.954 48.984C116.755 49.1095 116.6 49.2752 116.489 49.4812C116.38 49.6848 116.324 49.9085 116.322 50.1523V50.9087C116.322 51.226 116.38 51.4982 116.496 51.7255C116.612 51.9504 116.774 52.1232 116.982 52.244C117.19 52.3623 117.434 52.4215 117.714 52.4215C117.901 52.4215 118.07 52.3955 118.221 52.3434C118.373 52.2889 118.504 52.2096 118.616 52.1055C118.727 52.0013 118.811 51.8723 118.868 51.7184L120.068 51.8533C119.992 52.1706 119.848 52.4476 119.635 52.6843C119.424 52.9187 119.154 53.101 118.825 53.2312C118.496 53.359 118.12 53.4229 117.696 53.4229ZM122.778 53.4265C122.433 53.4265 122.121 53.3649 121.845 53.2418C121.57 53.1164 121.352 52.9317 121.191 52.6879C121.032 52.444 120.953 52.1433 120.953 51.7859C120.953 51.4781 121.01 51.2236 121.124 51.0224C121.237 50.8211 121.392 50.6602 121.589 50.5394C121.785 50.4187 122.007 50.3275 122.253 50.266C122.501 50.2021 122.758 50.1559 123.023 50.1275C123.343 50.0943 123.602 50.0647 123.801 50.0387C124 50.0103 124.144 49.9677 124.234 49.9109C124.327 49.8517 124.373 49.7605 124.373 49.6374V49.6161C124.373 49.3486 124.294 49.1415 124.135 48.9947C123.976 48.8479 123.748 48.7745 123.45 48.7745C123.135 48.7745 122.885 48.8432 122.7 48.9805C122.518 49.1178 122.395 49.2799 122.331 49.467L121.131 49.2965C121.225 48.9651 121.382 48.6881 121.599 48.4656C121.817 48.2406 122.084 48.0726 122.398 47.9613C122.713 47.8477 123.061 47.7908 123.443 47.7908C123.705 47.7908 123.967 47.8216 124.227 47.8832C124.488 47.9447 124.726 48.0465 124.941 48.1886C125.157 48.3282 125.329 48.5188 125.46 48.7603C125.592 49.0018 125.658 49.3036 125.658 49.6658V53.3164H124.423V52.5671H124.38C124.302 52.7186 124.192 52.8607 124.05 52.9933C123.91 53.1235 123.734 53.2288 123.521 53.3093C123.31 53.3874 123.063 53.4265 122.778 53.4265ZM123.112 52.4819C123.37 52.4819 123.594 52.431 123.783 52.3292C123.973 52.225 124.118 52.0877 124.22 51.9173C124.324 51.7468 124.376 51.561 124.376 51.3597V50.717C124.336 50.7501 124.268 50.7809 124.17 50.8093C124.076 50.8377 123.969 50.8626 123.851 50.8839C123.733 50.9052 123.615 50.9241 123.499 50.9407C123.383 50.9573 123.283 50.9715 123.197 50.9833C123.006 51.0094 122.834 51.052 122.683 51.1112C122.531 51.1703 122.412 51.2532 122.324 51.3597C122.236 51.4639 122.193 51.5988 122.193 51.7646C122.193 52.0013 122.279 52.18 122.452 52.3008C122.625 52.4215 122.845 52.4819 123.112 52.4819ZM126.951 53.3164V47.8619H128.197V48.771H128.254C128.354 48.4561 128.524 48.2134 128.766 48.043C129.01 47.8701 129.288 47.7837 129.6 47.7837C129.671 47.7837 129.751 47.7873 129.838 47.7944C129.928 47.7991 130.003 47.8074 130.062 47.8192V49.0018C130.007 48.9828 129.921 48.9663 129.803 48.9521C129.687 48.9355 129.574 48.9272 129.465 48.9272C129.231 48.9272 129.02 48.9781 128.833 49.0799C128.648 49.1793 128.503 49.3178 128.396 49.4954C128.29 49.6729 128.237 49.8777 128.237 50.1097V53.3164H126.951ZM132.201 50.1204V53.3164H130.916V47.8619H132.145V48.7887H132.208C132.334 48.4833 132.534 48.2406 132.809 48.0607C133.086 47.8808 133.428 47.7908 133.835 47.7908C134.211 47.7908 134.539 47.8713 134.819 48.0323C135.1 48.1933 135.318 48.4265 135.472 48.7319C135.628 49.0373 135.705 49.4078 135.703 49.8434V53.3164H134.417V50.0423C134.417 49.6777 134.323 49.3924 134.133 49.1864C133.946 48.9805 133.687 48.8775 133.356 48.8775C133.131 48.8775 132.931 48.9272 132.755 49.0266C132.583 49.1237 132.446 49.2646 132.347 49.4492C132.25 49.6339 132.201 49.8576 132.201 50.1204ZM137.01 53.3164V47.8619H138.295V53.3164H137.01ZM137.656 47.0877C137.452 47.0877 137.277 47.0202 137.13 46.8853C136.984 46.748 136.91 46.5835 136.91 46.3917C136.91 46.1976 136.984 46.033 137.13 45.8981C137.277 45.7608 137.452 45.6921 137.656 45.6921C137.862 45.6921 138.037 45.7608 138.182 45.8981C138.328 46.033 138.402 46.1976 138.402 46.3917C138.402 46.5835 138.328 46.748 138.182 46.8853C138.037 47.0202 137.862 47.0877 137.656 47.0877ZM140.903 50.1204V53.3164H139.617V47.8619H140.846V48.7887H140.91C141.035 48.4833 141.235 48.2406 141.51 48.0607C141.787 47.8808 142.129 47.7908 142.536 47.7908C142.913 47.7908 143.24 47.8713 143.52 48.0323C143.801 48.1933 144.019 48.4265 144.173 48.7319C144.329 49.0373 144.406 49.4078 144.404 49.8434V53.3164H143.118V50.0423C143.118 49.6777 143.024 49.3924 142.834 49.1864C142.647 48.9805 142.388 48.8775 142.057 48.8775C141.832 48.8775 141.632 48.9272 141.457 49.0266C141.284 49.1237 141.148 49.2646 141.048 49.4492C140.951 49.6339 140.903 49.8576 140.903 50.1204ZM148.083 55.4755C147.621 55.4755 147.225 55.4128 146.893 55.2873C146.562 55.1642 146.296 54.9985 146.094 54.7901C145.893 54.5818 145.753 54.351 145.675 54.0977L146.833 53.8171C146.885 53.9237 146.961 54.029 147.06 54.1332C147.16 54.2397 147.293 54.3273 147.462 54.396C147.632 54.467 147.846 54.5025 148.104 54.5025C148.469 54.5025 148.771 54.4137 149.01 54.2362C149.249 54.061 149.368 53.7721 149.368 53.3697V52.3363H149.305C149.238 52.4689 149.141 52.605 149.013 52.7447C148.888 52.8844 148.721 53.0015 148.513 53.0962C148.307 53.1909 148.047 53.2383 147.735 53.2383C147.316 53.2383 146.936 53.14 146.595 52.9435C146.256 52.7447 145.987 52.4487 145.785 52.0558C145.587 51.6604 145.487 51.1656 145.487 50.5714C145.487 49.9724 145.587 49.467 145.785 49.055C145.987 48.6407 146.258 48.3271 146.599 48.114C146.939 47.8986 147.319 47.7908 147.739 47.7908C148.058 47.7908 148.321 47.8453 148.527 47.9542C148.735 48.0607 148.901 48.1897 149.024 48.3413C149.147 48.4904 149.241 48.6313 149.305 48.7638H149.376V47.8619H150.643V53.4052C150.643 53.8716 150.532 54.2575 150.31 54.5629C150.087 54.8683 149.783 55.0967 149.397 55.2482C149.011 55.3997 148.573 55.4755 148.083 55.4755ZM148.094 52.2298C148.366 52.2298 148.598 52.1635 148.79 52.0309C148.981 51.8983 149.127 51.7077 149.226 51.4592C149.326 51.2106 149.376 50.9123 149.376 50.5643C149.376 50.221 149.326 49.9203 149.226 49.6623C149.129 49.4042 148.985 49.2042 148.793 49.0621C148.604 48.9177 148.371 48.8455 148.094 48.8455C147.807 48.8455 147.568 48.9201 147.376 49.0692C147.185 49.2184 147.04 49.4232 146.943 49.6836C146.846 49.9416 146.797 50.2352 146.797 50.5643C146.797 50.8981 146.846 51.1905 146.943 51.4414C147.042 51.69 147.188 51.8841 147.38 52.0238C147.574 52.1611 147.812 52.2298 148.094 52.2298Z" fill="#636F8D"/>
<rect x="55.8511" y="68" width="72" height="99" rx="6" fill="white"/>
<rect x="56.3511" y="68.5" width="71" height="98" rx="5.5" stroke="#4D5D7D" stroke-opacity="0.12"/>
<rect x="61.6951" y="73.793" width="60.3123" height="72.0586" rx="4" fill="#F5F6FA"/>
<rect x="61.6951" y="149.438" width="22.21" height="7.20898" rx="3.60449" fill="#EC766E" fill-opacity="0.6"/>
<rect x="85.2515" y="149.438" width="28.9153" height="7.20898" rx="3.60449" fill="#F5F6FA"/>
<rect x="150.519" y="68" width="69" height="99" rx="6" fill="white"/>
<rect x="151.019" y="68.5" width="68" height="98" rx="5.5" stroke="#4D5D7D" stroke-opacity="0.12"/>
<rect x="156.363" y="73.793" width="57.3123" height="72.0586" rx="4" fill="#F5F6FA"/>
<rect x="177.222" y="149.438" width="10.9675" height="7.20898" rx="3.60449" fill="#F5F6FA"/>
<rect x="190.815" y="149.438" width="21.6179" height="7.20898" rx="3.60449" fill="#F5F6FA"/>
<rect x="156.363" y="149.438" width="19.21" height="7.20898" rx="3.60449" fill="#63B77F" fill-opacity="0.6"/>
<rect x="242.188" y="68" width="72" height="99" rx="6" fill="white"/>
<rect x="242.688" y="68.5" width="71" height="98" rx="5.5" stroke="#4D5D7D" stroke-opacity="0.12"/>
<rect x="248.031" y="73.793" width="60.3123" height="72.0586" rx="4" fill="#F5F6FA"/>
<rect x="269.531" y="149.438" width="18.552" height="7.20898" rx="3.60449" fill="#F5F6FA"/>
<rect x="286.699" y="149.438" width="17.207" height="7.20898" rx="3.60449" fill="#F5F6FA"/>
<rect x="248.031" y="149.438" width="22.21" height="7.20898" rx="3.60449" fill="#EC766E" fill-opacity="0.6"/>
<rect x="336.856" y="68" width="69" height="99" rx="6" fill="white"/>
<rect x="337.356" y="68.5" width="68" height="98" rx="5.5" stroke="#4D5D7D" stroke-opacity="0.12"/>
<rect x="342.7" y="73.793" width="57.3123" height="72.0586" rx="4" fill="#F5F6FA"/>
<rect x="362.564" y="149.438" width="9.71973" height="7.20898" rx="3.60449" fill="#F5F6FA"/>
<rect x="374.802" y="149.438" width="22.2434" height="7.20898" rx="3.60449" fill="#F5F6FA"/>
<rect x="342.7" y="149.438" width="19.21" height="7.20898" rx="3.60449" fill="#63B77F" fill-opacity="0.6"/>
<circle cx="59.5029" cy="49.6636" r="3.65186" fill="#4274E4"/>
<circle cx="59.5029" cy="49.6636" r="3.65186" fill="url(#paint0_linear_232_10262)"/>
</g>
<rect x="-0.966309" y="93.4492" width="462.966" height="99.5508" fill="url(#paint1_linear_232_10262)"/>
</g>
<defs>
<filter id="filter0_dd_232_10262" x="26" y="18" width="410" height="227" filterUnits="userSpaceOnUse" color-interpolation-filters="sRGB">
<feFlood flood-opacity="0" result="BackgroundImageFix"/>
<feColorMatrix in="SourceAlpha" type="matrix" values="0 0 0 0 0 0 0 0 0 0 0 0 0 0 0 0 0 0 127 0" result="hardAlpha"/>
<feOffset dy="3"/>
<feGaussianBlur stdDeviation="7"/>
<feColorMatrix type="matrix" values="0 0 0 0 0.212534 0 0 0 0 0.383151 0 0 0 0 1 0 0 0 0.1 0"/>
<feBlend mode="normal" in2="BackgroundImageFix" result="effect1_dropShadow_232_10262"/>
<feColorMatrix in="SourceAlpha" type="matrix" values="0 0 0 0 0 0 0 0 0 0 0 0 0 0 0 0 0 0 127 0" result="hardAlpha"/>
<feOffset dy="3"/>
<feGaussianBlur stdDeviation="7"/>
<feColorMatrix type="matrix" values="0 0 0 0 0.186148 0 0 0 0 0.186148 0 0 0 0 0.186148 0 0 0 0.04 0"/>
<feBlend mode="normal" in2="effect1_dropShadow_232_10262" result="effect2_dropShadow_232_10262"/>
<feBlend mode="normal" in="SourceGraphic" in2="effect2_dropShadow_232_10262" result="shape"/>
</filter>
<linearGradient id="paint0_linear_232_10262" x1="61.9317" y1="46.4914" x2="56.9682" y2="53.102" gradientUnits="userSpaceOnUse">
<stop stop-color="#4274E4"/>
<stop offset="1" stop-color="#78E6DC"/>
</linearGradient>
<linearGradient id="paint1_linear_232_10262" x1="230.517" y1="193" x2="230.517" y2="93.4492" gradientUnits="userSpaceOnUse">
<stop stop-color="#FAFBFC"/>
<stop offset="1" stop-color="#FAFBFC" stop-opacity="0"/>
</linearGradient>
<clipPath id="clip0_232_10262">
<rect width="462" height="193" rx="8" fill="white"/>
</clipPath>
</defs>
</svg>
