<svg width="462" height="194" viewBox="0 0 462 194" fill="none" xmlns="http://www.w3.org/2000/svg">
<g clip-path="url(#clip0_232_10910)">
<rect y="0.5" width="462" height="193" rx="8" fill="#FAFBFC"/>
<g filter="url(#filter0_dd_232_10910)">
<rect x="80" y="32" width="302" height="197" rx="8" fill="white"/>
<rect x="80.5" y="32.5" width="301" height="196" rx="7.5" stroke="#4D5D7D" stroke-opacity="0.12"/>
</g>
<g filter="url(#filter1_dd_232_10910)">
<rect x="66" y="46" width="330" height="185" rx="8" fill="white"/>
<rect x="66.5" y="46.5" width="329" height="184" rx="7.5" stroke="#4D5D7D" stroke-opacity="0.12"/>
</g>
<g filter="url(#filter2_dd_232_10910)">
<rect x="52" y="64" width="358" height="184" rx="8" fill="white"/>
<rect x="52.5" y="64.5" width="357" height="183" rx="7.5" stroke="#4D5D7D" stroke-opacity="0.12"/>
<rect x="84.3511" y="102.316" width="30" height="8" rx="4" fill="#F5F6FA"/>
<rect x="84.3511" y="160.316" width="30" height="8" rx="4" fill="#F5F6FA"/>
<rect x="84.3511" y="121.316" width="21" height="8" rx="4" fill="#95B6FF"/>
<rect x="84.3511" y="180.316" width="21" height="8" rx="4" fill="#95B6FF"/>
<rect x="230.351" y="102.316" width="124" height="8" rx="4" fill="#F5F6FA"/>
<rect x="230.351" y="160.316" width="124" height="8" rx="4" fill="#F5F6FA"/>
<rect x="187.351" y="121.316" width="87" height="8" rx="4" fill="#F5F6FA"/>
<rect x="187.351" y="180.316" width="87" height="8" rx="4" fill="#F5F6FA"/>
<rect x="194.351" y="102.316" width="30" height="8" rx="4" fill="#95B6FF"/>
<rect x="194.351" y="160.316" width="30" height="8" rx="4" fill="#95B6FF"/>
<rect x="188.351" y="141.316" width="59" height="8" rx="4" fill="#F5F6FA"/>
<rect x="162.351" y="121.316" width="21" height="8" rx="4" fill="#F5F6FA"/>
<rect x="162.351" y="180.316" width="21" height="8" rx="4" fill="#F5F6FA"/>
<rect x="150.351" y="141.316" width="33" height="8" rx="4" fill="#95B6FF"/>
<rect x="252.351" y="141.316" width="75" height="8" rx="4" fill="#F5F6FA"/>
<rect x="279.351" y="121.316" width="103" height="8" rx="4" fill="#F5F6FA"/>
<rect x="279.351" y="180.316" width="103" height="8" rx="4" fill="#F5F6FA"/>
<rect x="120.351" y="102.316" width="68" height="8" rx="4" fill="#F5F6FA"/>
<rect x="120.351" y="160.316" width="68" height="8" rx="4" fill="#F5F6FA"/>
<rect x="84.3511" y="141.316" width="60" height="8" rx="4" fill="#F5F6FA"/>
<rect x="109.351" y="121.316" width="48" height="8" rx="4" fill="#F5F6FA"/>
<rect x="109.351" y="180.316" width="48" height="8" rx="4" fill="#F5F6FA"/>
<path d="M84.5196 88.3164V81.0437H87.2468C87.8056 81.0437 88.2743 81.1478 88.6531 81.3562C89.0343 81.5645 89.3219 81.851 89.516 82.2156C89.7125 82.5778 89.8108 82.9897 89.8108 83.4513C89.8108 83.9177 89.7125 84.332 89.516 84.6942C89.3195 85.0565 89.0295 85.3417 88.646 85.5501C88.2625 85.756 87.7902 85.859 87.2291 85.859H85.4216V84.7759H87.0515C87.3782 84.7759 87.6458 84.7191 87.8541 84.6055C88.0624 84.4918 88.2163 84.3356 88.3157 84.1367C88.4175 83.9379 88.4684 83.7094 88.4684 83.4513C88.4684 83.1933 88.4175 82.966 88.3157 82.7695C88.2163 82.573 88.0612 82.4203 87.8505 82.3114C87.6422 82.2002 87.3735 82.1445 87.0444 82.1445H85.837V88.3164H84.5196ZM90.8983 88.3164V82.8619H92.1448V83.771H92.2016C92.301 83.4561 92.4715 83.2134 92.7129 83.043C92.9568 82.8701 93.235 82.7837 93.5475 82.7837C93.6185 82.7837 93.6978 82.7873 93.7854 82.7944C93.8753 82.7991 93.9499 82.8074 94.0091 82.8192V84.0018C93.9546 83.9828 93.8682 83.9663 93.7499 83.9521C93.6339 83.9355 93.5214 83.9272 93.4125 83.9272C93.1781 83.9272 92.9674 83.9781 92.7804 84.0799C92.5957 84.1793 92.4502 84.3178 92.3436 84.4954C92.2371 84.6729 92.1838 84.8777 92.1838 85.1097V88.3164H90.8983ZM97.0178 88.4229C96.4851 88.4229 96.0235 88.3058 95.6329 88.0714C95.2422 87.837 94.9392 87.5091 94.7238 87.0877C94.5107 86.6663 94.4042 86.1739 94.4042 85.6104C94.4042 85.047 94.5107 84.5534 94.7238 84.1296C94.9392 83.7058 95.2422 83.3768 95.6329 83.1424C96.0235 82.908 96.4851 82.7908 97.0178 82.7908C97.5505 82.7908 98.0121 82.908 98.4027 83.1424C98.7934 83.3768 99.0952 83.7058 99.3083 84.1296C99.5237 84.5534 99.6314 85.047 99.6314 85.6104C99.6314 86.1739 99.5237 86.6663 99.3083 87.0877C99.0952 87.5091 98.7934 87.837 98.4027 88.0714C98.0121 88.3058 97.5505 88.4229 97.0178 88.4229ZM97.0249 87.3931C97.3137 87.3931 97.5552 87.3138 97.7493 87.1552C97.9435 86.9942 98.0879 86.7788 98.1826 86.5089C98.2796 86.239 98.3282 85.9383 98.3282 85.6069C98.3282 85.2731 98.2796 84.9712 98.1826 84.7013C98.0879 84.4291 97.9435 84.2125 97.7493 84.0515C97.5552 83.8905 97.3137 83.81 97.0249 83.81C96.729 83.81 96.4828 83.8905 96.2863 84.0515C96.0921 84.2125 95.9465 84.4291 95.8495 84.7013C95.7548 84.9712 95.7074 85.2731 95.7074 85.6069C95.7074 85.9383 95.7548 86.239 95.8495 86.5089C95.9465 86.7788 96.0921 86.9942 96.2863 87.1552C96.4828 87.3138 96.729 87.3931 97.0249 87.3931ZM100.723 88.3164V82.8619H101.951V83.7887H102.015C102.129 83.4762 102.317 83.2324 102.58 83.0572C102.843 82.8796 103.156 82.7908 103.521 82.7908C103.89 82.7908 104.201 82.8808 104.455 83.0607C104.71 83.2383 104.89 83.4809 104.995 83.7887H105.051C105.172 83.4857 105.376 83.2442 105.662 83.0643C105.951 82.882 106.293 82.7908 106.688 82.7908C107.19 82.7908 107.6 82.9495 107.917 83.2667C108.234 83.5839 108.393 84.0468 108.393 84.6552V88.3164H107.104V84.854C107.104 84.5155 107.014 84.2681 106.834 84.1119C106.654 83.9532 106.434 83.8739 106.174 83.8739C105.863 83.8739 105.621 83.971 105.446 84.1651C105.273 84.3569 105.186 84.6067 105.186 84.9144V88.3164H103.926V84.8008C103.926 84.5191 103.84 84.2942 103.67 84.1261C103.502 83.958 103.282 83.8739 103.009 83.8739C102.825 83.8739 102.657 83.9213 102.505 84.016C102.354 84.1083 102.233 84.2397 102.143 84.4102C102.053 84.5782 102.008 84.7747 102.008 84.9996V88.3164H100.723ZM109.697 90.3619V82.8619H110.961V83.7638H111.036C111.102 83.6313 111.196 83.4904 111.316 83.3413C111.437 83.1897 111.601 83.0607 111.807 82.9542C112.012 82.8453 112.275 82.7908 112.595 82.7908C113.016 82.7908 113.396 82.8986 113.735 83.114C114.076 83.3271 114.346 83.6431 114.544 84.0621C114.746 84.4788 114.846 84.9902 114.846 85.5962C114.846 86.1952 114.748 86.7042 114.552 87.1232C114.355 87.5423 114.088 87.8619 113.749 88.082C113.41 88.3022 113.027 88.4123 112.598 88.4123C112.286 88.4123 112.027 88.3602 111.821 88.256C111.615 88.1519 111.449 88.0264 111.324 87.8796C111.2 87.7305 111.105 87.5896 111.036 87.457H110.983V90.3619H109.697ZM110.958 85.5891C110.958 85.9419 111.008 86.2508 111.107 86.516C111.209 86.7811 111.354 86.9883 111.544 87.1374C111.735 87.2842 111.967 87.3576 112.24 87.3576C112.524 87.3576 112.762 87.2818 112.954 87.1303C113.145 86.9764 113.29 86.7669 113.387 86.5018C113.486 86.2343 113.536 85.93 113.536 85.5891C113.536 85.2506 113.487 84.9499 113.39 84.6871C113.293 84.4244 113.149 84.2184 112.957 84.0692C112.765 83.9201 112.526 83.8455 112.24 83.8455C111.965 83.8455 111.732 83.9177 111.54 84.0621C111.348 84.2066 111.203 84.409 111.103 84.6694C111.006 84.9298 110.958 85.2364 110.958 85.5891ZM118.671 82.8619V83.8562H115.535V82.8619H118.671ZM116.309 81.555H117.595V86.6758C117.595 86.8486 117.621 86.9812 117.673 87.0735C117.727 87.1635 117.798 87.225 117.886 87.2582C117.974 87.2913 118.071 87.3079 118.177 87.3079C118.258 87.3079 118.331 87.302 118.397 87.2901C118.466 87.2783 118.518 87.2676 118.554 87.2582L118.77 88.2631C118.702 88.2868 118.603 88.3129 118.476 88.3413C118.35 88.3697 118.196 88.3862 118.014 88.391C117.692 88.4004 117.402 88.3519 117.144 88.2454C116.886 88.1365 116.681 87.9684 116.53 87.7411C116.38 87.5138 116.307 87.2298 116.309 86.8888V81.555ZM122.283 88.3164V81.0437H127.013V82.1481H123.601V84.1225H126.768V85.2269H123.601V87.212H127.042V88.3164H122.283ZM129.586 85.1204V88.3164H128.301V82.8619H129.529V83.7887H129.593C129.719 83.4833 129.919 83.2406 130.193 83.0607C130.47 82.8808 130.812 82.7908 131.22 82.7908C131.596 82.7908 131.924 82.8713 132.203 83.0323C132.485 83.1933 132.703 83.4265 132.857 83.7319C133.013 84.0373 133.09 84.4078 133.088 84.8434V88.3164H131.802V85.0423C131.802 84.6777 131.707 84.3924 131.518 84.1864C131.331 83.9805 131.072 83.8775 130.74 83.8775C130.515 83.8775 130.315 83.9272 130.14 84.0266C129.967 84.1237 129.831 84.2646 129.732 84.4492C129.635 84.6339 129.586 84.8576 129.586 85.1204ZM136.767 90.4755C136.305 90.4755 135.908 90.4128 135.577 90.2873C135.245 90.1642 134.979 89.9985 134.778 89.7901C134.577 89.5818 134.437 89.351 134.359 89.0977L135.517 88.8171C135.569 88.9237 135.644 89.029 135.744 89.1332C135.843 89.2397 135.977 89.3273 136.145 89.396C136.316 89.467 136.53 89.5025 136.788 89.5025C137.152 89.5025 137.454 89.4137 137.693 89.2362C137.933 89.061 138.052 88.7721 138.052 88.3697V87.3363H137.988C137.922 87.4689 137.825 87.605 137.697 87.7447C137.571 87.8844 137.405 88.0015 137.196 88.0962C136.99 88.1909 136.731 88.2383 136.419 88.2383C136 88.2383 135.62 88.14 135.279 87.9435C134.94 87.7447 134.67 87.4487 134.469 87.0558C134.27 86.6604 134.171 86.1656 134.171 85.5714C134.171 84.9724 134.27 84.467 134.469 84.055C134.67 83.6407 134.941 83.3271 135.282 83.114C135.623 82.8986 136.003 82.7908 136.422 82.7908C136.742 82.7908 137.004 82.8453 137.21 82.9542C137.419 83.0607 137.585 83.1897 137.708 83.3413C137.831 83.4904 137.924 83.6313 137.988 83.7638H138.059V82.8619H139.327V88.4052C139.327 88.8716 139.216 89.2575 138.993 89.5629C138.771 89.8683 138.466 90.0967 138.08 90.2482C137.695 90.3997 137.257 90.4755 136.767 90.4755ZM136.777 87.2298C137.049 87.2298 137.281 87.1635 137.473 87.0309C137.665 86.8983 137.811 86.7077 137.91 86.4592C138.009 86.2106 138.059 85.9123 138.059 85.5643C138.059 85.221 138.009 84.9203 137.91 84.6623C137.813 84.4042 137.669 84.2042 137.477 84.0621C137.287 83.9177 137.054 83.8455 136.777 83.8455C136.491 83.8455 136.252 83.9201 136.06 84.0692C135.868 84.2184 135.724 84.4232 135.627 84.6836C135.53 84.9416 135.481 85.2352 135.481 85.5643C135.481 85.8981 135.53 86.1905 135.627 86.4414C135.726 86.69 135.872 86.8841 136.063 87.0238C136.258 87.1611 136.495 87.2298 136.777 87.2298ZM140.644 88.3164V82.8619H141.93V88.3164H140.644ZM141.291 82.0877C141.087 82.0877 140.912 82.0202 140.765 81.8853C140.618 81.748 140.545 81.5835 140.545 81.3917C140.545 81.1976 140.618 81.033 140.765 80.8981C140.912 80.7608 141.087 80.6921 141.291 80.6921C141.497 80.6921 141.672 80.7608 141.816 80.8981C141.963 81.033 142.036 81.1976 142.036 81.3917C142.036 81.5835 141.963 81.748 141.816 81.8853C141.672 82.0202 141.497 82.0877 141.291 82.0877ZM144.537 85.1204V88.3164H143.252V82.8619H144.481V83.7887H144.544C144.67 83.4833 144.87 83.2406 145.145 83.0607C145.422 82.8808 145.764 82.7908 146.171 82.7908C146.547 82.7908 146.875 82.8713 147.155 83.0323C147.436 83.1933 147.654 83.4265 147.808 83.7319C147.964 84.0373 148.041 84.4078 148.039 84.8434V88.3164H146.753V85.0423C146.753 84.6777 146.659 84.3924 146.469 84.1864C146.282 83.9805 146.023 83.8775 145.691 83.8775C145.467 83.8775 145.266 83.9272 145.091 84.0266C144.918 84.1237 144.782 84.2646 144.683 84.4492C144.586 84.6339 144.537 84.8576 144.537 85.1204ZM151.76 88.4229C151.213 88.4229 150.741 88.3093 150.343 88.082C149.948 87.8524 149.644 87.5281 149.431 87.109C149.218 86.6876 149.111 86.1916 149.111 85.6211C149.111 85.06 149.218 84.5676 149.431 84.1438C149.646 83.7177 149.947 83.3862 150.333 83.1495C150.719 82.9104 151.172 82.7908 151.693 82.7908C152.029 82.7908 152.346 82.8453 152.645 82.9542C152.945 83.0607 153.21 83.2264 153.44 83.4513C153.672 83.6763 153.854 83.9627 153.987 84.3107C154.119 84.6564 154.186 85.0683 154.186 85.5465V85.9407H149.715V85.0742H152.954C152.951 84.828 152.898 84.609 152.794 84.4173C152.69 84.2231 152.544 84.0704 152.357 83.9592C152.172 83.8479 151.957 83.7923 151.711 83.7923C151.448 83.7923 151.217 83.8562 151.018 83.984C150.819 84.1095 150.664 84.2752 150.553 84.4812C150.444 84.6848 150.388 84.9085 150.386 85.1523V85.9087C150.386 86.226 150.444 86.4982 150.56 86.7255C150.676 86.9504 150.838 87.1232 151.047 87.244C151.255 87.3623 151.499 87.4215 151.778 87.4215C151.965 87.4215 152.134 87.3955 152.286 87.3434C152.437 87.2889 152.569 87.2096 152.68 87.1055C152.791 87.0013 152.875 86.8723 152.932 86.7184L154.133 86.8533C154.057 87.1706 153.912 87.4476 153.699 87.6843C153.489 87.9187 153.219 88.101 152.89 88.2312C152.561 88.359 152.184 88.4229 151.76 88.4229ZM157.688 88.4229C157.141 88.4229 156.669 88.3093 156.271 88.082C155.876 87.8524 155.572 87.5281 155.359 87.109C155.145 86.6876 155.039 86.1916 155.039 85.6211C155.039 85.06 155.145 84.5676 155.359 84.1438C155.574 83.7177 155.875 83.3862 156.261 83.1495C156.646 82.9104 157.1 82.7908 157.621 82.7908C157.957 82.7908 158.274 82.8453 158.572 82.9542C158.873 83.0607 159.138 83.2264 159.368 83.4513C159.6 83.6763 159.782 83.9627 159.915 84.3107C160.047 84.6564 160.114 85.0683 160.114 85.5465V85.9407H155.643V85.0742H158.881C158.879 84.828 158.826 84.609 158.721 84.4173C158.617 84.2231 158.472 84.0704 158.285 83.9592C158.1 83.8479 157.885 83.7923 157.638 83.7923C157.376 83.7923 157.145 83.8562 156.946 83.984C156.747 84.1095 156.592 84.2752 156.481 84.4812C156.372 84.6848 156.316 84.9085 156.314 85.1523V85.9087C156.314 86.226 156.372 86.4982 156.488 86.7255C156.604 86.9504 156.766 87.1232 156.974 87.244C157.183 87.3623 157.426 87.4215 157.706 87.4215C157.893 87.4215 158.062 87.3955 158.214 87.3434C158.365 87.2889 158.497 87.2096 158.608 87.1055C158.719 87.0013 158.803 86.8723 158.86 86.7184L160.06 86.8533C159.984 87.1706 159.84 87.4476 159.627 87.6843C159.416 87.9187 159.146 88.101 158.817 88.2312C158.488 88.359 158.112 88.4229 157.688 88.4229ZM161.201 88.3164V82.8619H162.447V83.771H162.504C162.604 83.4561 162.774 83.2134 163.016 83.043C163.26 82.8701 163.538 82.7837 163.85 82.7837C163.921 82.7837 164.001 82.7873 164.088 82.7944C164.178 82.7991 164.253 82.8074 164.312 82.8192V84.0018C164.257 83.9828 164.171 83.9663 164.053 83.9521C163.937 83.9355 163.824 83.9272 163.715 83.9272C163.481 83.9272 163.27 83.9781 163.083 84.0799C162.898 84.1793 162.753 84.3178 162.646 84.4954C162.54 84.6729 162.487 84.8777 162.487 85.1097V88.3164H161.201ZM165.166 88.3164V82.8619H166.451V88.3164H165.166ZM165.812 82.0877C165.609 82.0877 165.433 82.0202 165.287 81.8853C165.14 81.748 165.066 81.5835 165.066 81.3917C165.066 81.1976 165.14 81.033 165.287 80.8981C165.433 80.7608 165.609 80.6921 165.812 80.6921C166.018 80.6921 166.193 80.7608 166.338 80.8981C166.485 81.033 166.558 81.1976 166.558 81.3917C166.558 81.5835 166.485 81.748 166.338 81.8853C166.193 82.0202 166.018 82.0877 165.812 82.0877ZM169.059 85.1204V88.3164H167.773V82.8619H169.002V83.7887H169.066C169.191 83.4833 169.391 83.2406 169.666 83.0607C169.943 82.8808 170.285 82.7908 170.692 82.7908C171.069 82.7908 171.397 82.8713 171.676 83.0323C171.958 83.1933 172.176 83.4265 172.329 83.7319C172.486 84.0373 172.563 84.4078 172.56 84.8434V88.3164H171.275V85.0423C171.275 84.6777 171.18 84.3924 170.991 84.1864C170.804 83.9805 170.544 83.8775 170.213 83.8775C169.988 83.8775 169.788 83.9272 169.613 84.0266C169.44 84.1237 169.304 84.2646 169.204 84.4492C169.107 84.6339 169.059 84.8576 169.059 85.1204ZM176.239 90.4755C175.778 90.4755 175.381 90.4128 175.05 90.2873C174.718 90.1642 174.452 89.9985 174.251 89.7901C174.049 89.5818 173.91 89.351 173.832 89.0977L174.989 88.8171C175.041 88.9237 175.117 89.029 175.216 89.1332C175.316 89.2397 175.45 89.3273 175.618 89.396C175.788 89.467 176.002 89.5025 176.261 89.5025C176.625 89.5025 176.927 89.4137 177.166 89.2362C177.405 89.061 177.525 88.7721 177.525 88.3697V87.3363H177.461C177.395 87.4689 177.297 87.605 177.17 87.7447C177.044 87.8844 176.877 88.0015 176.669 88.0962C176.463 88.1909 176.204 88.2383 175.891 88.2383C175.472 88.2383 175.092 88.14 174.751 87.9435C174.413 87.7447 174.143 87.4487 173.942 87.0558C173.743 86.6604 173.643 86.1656 173.643 85.5714C173.643 84.9724 173.743 84.467 173.942 84.055C174.143 83.6407 174.414 83.3271 174.755 83.114C175.096 82.8986 175.476 82.7908 175.895 82.7908C176.214 82.7908 176.477 82.8453 176.683 82.9542C176.891 83.0607 177.057 83.1897 177.18 83.3413C177.303 83.4904 177.397 83.6313 177.461 83.7638H177.532V82.8619H178.8V88.4052C178.8 88.8716 178.688 89.2575 178.466 89.5629C178.243 89.8683 177.939 90.0967 177.553 90.2482C177.167 90.3997 176.729 90.4755 176.239 90.4755ZM176.25 87.2298C176.522 87.2298 176.754 87.1635 176.946 87.0309C177.138 86.8983 177.283 86.7077 177.383 86.4592C177.482 86.2106 177.532 85.9123 177.532 85.5643C177.532 85.221 177.482 84.9203 177.383 84.6623C177.286 84.4042 177.141 84.2042 176.949 84.0621C176.76 83.9177 176.527 83.8455 176.25 83.8455C175.963 83.8455 175.724 83.9201 175.533 84.0692C175.341 84.2184 175.196 84.4232 175.099 84.6836C175.002 84.9416 174.954 85.2352 174.954 85.5643C174.954 85.8981 175.002 86.1905 175.099 86.4414C175.199 86.69 175.344 86.8841 175.536 87.0238C175.73 87.1611 175.968 87.2298 176.25 87.2298Z" fill="#636F8D"/>
<circle cx="75.0029" cy="84.6636" r="3.65186" fill="#4274E4"/>
<circle cx="75.0029" cy="84.6636" r="3.65186" fill="url(#paint0_linear_232_10910)"/>
</g>
<rect x="-0.966309" y="93.9492" width="462.966" height="99.5508" fill="url(#paint1_linear_232_10910)"/>
</g>
<defs>
<filter id="filter0_dd_232_10910" x="66" y="21" width="330" height="225" filterUnits="userSpaceOnUse" color-interpolation-filters="sRGB">
<feFlood flood-opacity="0" result="BackgroundImageFix"/>
<feColorMatrix in="SourceAlpha" type="matrix" values="0 0 0 0 0 0 0 0 0 0 0 0 0 0 0 0 0 0 127 0" result="hardAlpha"/>
<feOffset dy="3"/>
<feGaussianBlur stdDeviation="7"/>
<feColorMatrix type="matrix" values="0 0 0 0 0.212534 0 0 0 0 0.383151 0 0 0 0 1 0 0 0 0.1 0"/>
<feBlend mode="normal" in2="BackgroundImageFix" result="effect1_dropShadow_232_10910"/>
<feColorMatrix in="SourceAlpha" type="matrix" values="0 0 0 0 0 0 0 0 0 0 0 0 0 0 0 0 0 0 127 0" result="hardAlpha"/>
<feOffset dy="3"/>
<feGaussianBlur stdDeviation="7"/>
<feColorMatrix type="matrix" values="0 0 0 0 0.186148 0 0 0 0 0.186148 0 0 0 0 0.186148 0 0 0 0.04 0"/>
<feBlend mode="normal" in2="effect1_dropShadow_232_10910" result="effect2_dropShadow_232_10910"/>
<feBlend mode="normal" in="SourceGraphic" in2="effect2_dropShadow_232_10910" result="shape"/>
</filter>
<filter id="filter1_dd_232_10910" x="52" y="35" width="358" height="213" filterUnits="userSpaceOnUse" color-interpolation-filters="sRGB">
<feFlood flood-opacity="0" result="BackgroundImageFix"/>
<feColorMatrix in="SourceAlpha" type="matrix" values="0 0 0 0 0 0 0 0 0 0 0 0 0 0 0 0 0 0 127 0" result="hardAlpha"/>
<feOffset dy="3"/>
<feGaussianBlur stdDeviation="7"/>
<feColorMatrix type="matrix" values="0 0 0 0 0.212534 0 0 0 0 0.383151 0 0 0 0 1 0 0 0 0.1 0"/>
<feBlend mode="normal" in2="BackgroundImageFix" result="effect1_dropShadow_232_10910"/>
<feColorMatrix in="SourceAlpha" type="matrix" values="0 0 0 0 0 0 0 0 0 0 0 0 0 0 0 0 0 0 127 0" result="hardAlpha"/>
<feOffset dy="3"/>
<feGaussianBlur stdDeviation="7"/>
<feColorMatrix type="matrix" values="0 0 0 0 0.186148 0 0 0 0 0.186148 0 0 0 0 0.186148 0 0 0 0.04 0"/>
<feBlend mode="normal" in2="effect1_dropShadow_232_10910" result="effect2_dropShadow_232_10910"/>
<feBlend mode="normal" in="SourceGraphic" in2="effect2_dropShadow_232_10910" result="shape"/>
</filter>
<filter id="filter2_dd_232_10910" x="38" y="53" width="386" height="212" filterUnits="userSpaceOnUse" color-interpolation-filters="sRGB">
<feFlood flood-opacity="0" result="BackgroundImageFix"/>
<feColorMatrix in="SourceAlpha" type="matrix" values="0 0 0 0 0 0 0 0 0 0 0 0 0 0 0 0 0 0 127 0" result="hardAlpha"/>
<feOffset dy="3"/>
<feGaussianBlur stdDeviation="7"/>
<feColorMatrix type="matrix" values="0 0 0 0 0.212534 0 0 0 0 0.383151 0 0 0 0 1 0 0 0 0.1 0"/>
<feBlend mode="normal" in2="BackgroundImageFix" result="effect1_dropShadow_232_10910"/>
<feColorMatrix in="SourceAlpha" type="matrix" values="0 0 0 0 0 0 0 0 0 0 0 0 0 0 0 0 0 0 127 0" result="hardAlpha"/>
<feOffset dy="3"/>
<feGaussianBlur stdDeviation="7"/>
<feColorMatrix type="matrix" values="0 0 0 0 0.186148 0 0 0 0 0.186148 0 0 0 0 0.186148 0 0 0 0.04 0"/>
<feBlend mode="normal" in2="effect1_dropShadow_232_10910" result="effect2_dropShadow_232_10910"/>
<feBlend mode="normal" in="SourceGraphic" in2="effect2_dropShadow_232_10910" result="shape"/>
</filter>
<linearGradient id="paint0_linear_232_10910" x1="77.4317" y1="81.4914" x2="72.4682" y2="88.102" gradientUnits="userSpaceOnUse">
<stop stop-color="#4274E4"/>
<stop offset="1" stop-color="#78E6DC"/>
</linearGradient>
<linearGradient id="paint1_linear_232_10910" x1="230.517" y1="193.5" x2="230.517" y2="93.9492" gradientUnits="userSpaceOnUse">
<stop stop-color="#FAFBFC"/>
<stop offset="1" stop-color="#FAFBFC" stop-opacity="0"/>
</linearGradient>
<clipPath id="clip0_232_10910">
<rect y="0.5" width="462" height="193" rx="8" fill="white"/>
</clipPath>
</defs>
</svg>
