<svg width="462" height="193" viewBox="0 0 462 193" fill="none" xmlns="http://www.w3.org/2000/svg">
<g clip-path="url(#clip0_232_11388)">
<rect width="462" height="193" rx="8" fill="#FAFBFC"/>
<g filter="url(#filter0_dd_232_11388)">
<rect x="41" y="26" width="302" height="197" rx="8" fill="white"/>
<rect x="41.5" y="26.5" width="301" height="196" rx="7.5" stroke="#4D5D7D" stroke-opacity="0.12"/>
<rect x="61" y="46.5" width="262" height="35" rx="6" fill="white"/>
<rect x="61.5" y="47" width="261" height="34" rx="5.5" stroke="#4D5D7D" stroke-opacity="0.12"/>
<rect x="66.844" y="52.293" width="82.5061" height="9.55664" rx="4" fill="#F5F6FA"/>
<rect x="66.844" y="65.3984" width="27.3438" height="9.55664" rx="4" fill="#F5F6FA"/>
<rect x="100.068" y="65.3984" width="65.1313" height="9.55664" rx="4" fill="#F5F6FA"/>
<rect x="61" y="88.5" width="262" height="36" rx="6" fill="white"/>
<rect x="61.5" y="89" width="261" height="35" rx="5.5" stroke="#4D5D7D" stroke-opacity="0.12"/>
<rect x="66.844" y="94.293" width="60.5681" height="9.55664" rx="4" fill="#F5F6FA"/>
<rect x="66.844" y="107.398" width="27.3438" height="9.55664" rx="4" fill="#F5F6FA"/>
<rect x="100.068" y="107.398" width="65.1313" height="9.55664" rx="4" fill="#F5F6FA"/>
<rect x="61" y="131.5" width="262" height="36" rx="6" fill="white"/>
<rect x="61.5" y="132" width="261" height="35" rx="5.5" stroke="#4D5D7D" stroke-opacity="0.12"/>
<rect x="66.844" y="137.293" width="60.5681" height="9.55664" rx="4" fill="#F5F6FA"/>
<rect x="66.844" y="150.398" width="27.3438" height="9.55664" rx="4" fill="#F5F6FA"/>
<rect x="100.068" y="150.398" width="65.1313" height="9.55664" rx="4" fill="#F5F6FA"/>
</g>
<g filter="url(#filter1_dd_232_11388)">
<rect x="113" y="59" width="302" height="197" rx="8" fill="white"/>
<rect x="113.5" y="59.5" width="301" height="196" rx="7.5" stroke="#4D5D7D" stroke-opacity="0.12"/>
<rect x="133" y="97" width="262" height="35" rx="6" fill="white"/>
<rect x="133.5" y="97.5" width="261" height="34" rx="5.5" stroke="#4D5D7D" stroke-opacity="0.12"/>
<rect x="138.844" y="102.793" width="82.5061" height="9.55664" rx="4" fill="#F5F6FA"/>
<rect x="138.844" y="115.898" width="27.3438" height="9.55664" rx="4" fill="#F5F6FA"/>
<rect x="172.068" y="115.898" width="65.1313" height="9.55664" rx="4" fill="#F5F6FA"/>
<rect x="133" y="139" width="262" height="36" rx="6" fill="white"/>
<rect x="133.5" y="139.5" width="261" height="35" rx="5.5" stroke="#4D5D7D" stroke-opacity="0.12"/>
<rect x="138.844" y="144.793" width="60.5681" height="9.55664" rx="4" fill="#F5F6FA"/>
<rect x="138.844" y="157.898" width="27.3438" height="9.55664" rx="4" fill="#F5F6FA"/>
<rect x="172.068" y="157.898" width="65.1313" height="9.55664" rx="4" fill="#F5F6FA"/>
<path d="M145.52 83.3164V76.0437H148.247C148.806 76.0437 149.274 76.1407 149.653 76.3349C150.034 76.529 150.322 76.8013 150.516 77.1516C150.713 77.4996 150.811 77.9057 150.811 78.3697C150.811 78.8361 150.711 79.2409 150.512 79.5842C150.316 79.9251 150.026 80.189 149.642 80.3761C149.259 80.5607 148.788 80.6531 148.229 80.6531H146.287V79.5593H148.052C148.378 79.5593 148.646 79.5143 148.854 79.4244C149.062 79.332 149.216 79.1983 149.316 79.0231C149.418 78.8455 149.468 78.6277 149.468 78.3697C149.468 78.1116 149.418 77.8915 149.316 77.7092C149.214 77.5245 149.059 77.3848 148.851 77.2901C148.642 77.1931 148.374 77.1445 148.044 77.1445H146.837V83.3164H145.52ZM149.277 80.021L151.077 83.3164H149.607L147.838 80.021H149.277ZM155.443 81.0224V77.8619H156.729V83.3164H155.482V82.3469H155.425C155.302 82.6523 155.1 82.9021 154.818 83.0962C154.539 83.2904 154.194 83.3874 153.785 83.3874C153.427 83.3874 153.111 83.3081 152.837 83.1495C152.564 82.9885 152.351 82.7553 152.197 82.4499C152.044 82.1422 151.967 81.7705 151.967 81.3349V77.8619H153.252V81.136C153.252 81.4817 153.347 81.7563 153.536 81.9599C153.726 82.1635 153.974 82.2653 154.282 82.2653C154.471 82.2653 154.655 82.2191 154.832 82.1268C155.01 82.0344 155.156 81.8971 155.269 81.7148C155.385 81.5302 155.443 81.2994 155.443 81.0224ZM159.336 76.0437V83.3164H158.051V76.0437H159.336ZM163.073 83.4229C162.526 83.4229 162.054 83.3093 161.656 83.082C161.261 82.8524 160.956 82.5281 160.743 82.109C160.53 81.6876 160.424 81.1916 160.424 80.6211C160.424 80.06 160.53 79.5676 160.743 79.1438C160.959 78.7177 161.259 78.3862 161.645 78.1495C162.031 77.9104 162.485 77.7908 163.005 77.7908C163.342 77.7908 163.659 77.8453 163.957 77.9542C164.258 78.0607 164.523 78.2264 164.753 78.4513C164.985 78.6763 165.167 78.9627 165.299 79.3107C165.432 79.6564 165.498 80.0683 165.498 80.5465V80.9407H161.027V80.0742H164.266C164.264 79.828 164.21 79.609 164.106 79.4173C164.002 79.2231 163.856 79.0704 163.669 78.9592C163.485 78.8479 163.269 78.7923 163.023 78.7923C162.76 78.7923 162.53 78.8562 162.331 78.984C162.132 79.1095 161.977 79.2752 161.865 79.4812C161.757 79.6848 161.701 79.9085 161.699 80.1523V80.9087C161.699 81.226 161.757 81.4982 161.873 81.7255C161.989 81.9504 162.151 82.1232 162.359 82.244C162.567 82.3623 162.811 82.4215 163.091 82.4215C163.278 82.4215 163.447 82.3955 163.598 82.3434C163.75 82.2889 163.881 82.2096 163.993 82.1055C164.104 82.0013 164.188 81.8723 164.245 81.7184L165.445 81.8533C165.369 82.1706 165.225 82.4476 165.012 82.6843C164.801 82.9187 164.531 83.101 164.202 83.2312C163.873 83.359 163.497 83.4229 163.073 83.4229ZM166.643 83.3164V76.0437H167.928V78.7638H167.981C168.048 78.6313 168.141 78.4904 168.262 78.3413C168.383 78.1897 168.546 78.0607 168.752 77.9542C168.958 77.8453 169.221 77.7908 169.54 77.7908C169.962 77.7908 170.342 77.8986 170.68 78.114C171.021 78.3271 171.291 78.6431 171.49 79.0621C171.691 79.4788 171.792 79.9902 171.792 80.5962C171.792 81.1952 171.694 81.7042 171.497 82.1232C171.301 82.5423 171.033 82.8619 170.694 83.082C170.356 83.3022 169.972 83.4123 169.544 83.4123C169.231 83.4123 168.972 83.3602 168.766 83.256C168.56 83.1519 168.395 83.0264 168.269 82.8796C168.146 82.7305 168.05 82.5896 167.981 82.457H167.907V83.3164H166.643ZM167.903 80.5891C167.903 80.9419 167.953 81.2508 168.052 81.516C168.154 81.7811 168.3 81.9883 168.489 82.1374C168.681 82.2842 168.913 82.3576 169.185 82.3576C169.469 82.3576 169.707 82.2818 169.899 82.1303C170.091 81.9764 170.235 81.7669 170.332 81.5018C170.432 81.2343 170.481 80.93 170.481 80.5891C170.481 80.2506 170.433 79.9499 170.336 79.6871C170.239 79.4244 170.094 79.2184 169.903 79.0692C169.711 78.9201 169.472 78.8455 169.185 78.8455C168.911 78.8455 168.677 78.9177 168.486 79.0621C168.294 79.2066 168.148 79.409 168.049 79.6694C167.952 79.9298 167.903 80.2364 167.903 80.5891ZM174.454 83.4265C174.109 83.4265 173.797 83.3649 173.52 83.2418C173.246 83.1164 173.028 82.9317 172.867 82.6879C172.708 82.444 172.629 82.1433 172.629 81.7859C172.629 81.4781 172.686 81.2236 172.799 81.0224C172.913 80.8211 173.068 80.6602 173.265 80.5394C173.461 80.4187 173.682 80.3275 173.929 80.266C174.177 80.2021 174.434 80.1559 174.699 80.1275C175.019 80.0943 175.278 80.0647 175.477 80.0387C175.676 80.0103 175.82 79.9677 175.91 79.9109C176.003 79.8517 176.049 79.7605 176.049 79.6374V79.6161C176.049 79.3486 175.969 79.1415 175.811 78.9947C175.652 78.8479 175.424 78.7745 175.125 78.7745C174.811 78.7745 174.561 78.8432 174.376 78.9805C174.194 79.1178 174.071 79.2799 174.007 79.467L172.807 79.2965C172.901 78.9651 173.057 78.6881 173.275 78.4656C173.493 78.2406 173.759 78.0726 174.074 77.9613C174.389 77.8477 174.737 77.7908 175.118 77.7908C175.381 77.7908 175.643 77.8216 175.903 77.8832C176.164 77.9447 176.401 78.0465 176.617 78.1886C176.832 78.3282 177.005 78.5188 177.135 78.7603C177.268 79.0018 177.334 79.3036 177.334 79.6658V83.3164H176.098V82.5671H176.056C175.978 82.7186 175.868 82.8607 175.726 82.9933C175.586 83.1235 175.409 83.2288 175.196 83.3093C174.986 83.3874 174.738 83.4265 174.454 83.4265ZM174.788 82.4819C175.046 82.4819 175.27 82.431 175.459 82.3292C175.649 82.225 175.794 82.0877 175.896 81.9173C176 81.7468 176.052 81.561 176.052 81.3597V80.717C176.012 80.7501 175.943 80.7809 175.846 80.8093C175.752 80.8377 175.645 80.8626 175.527 80.8839C175.408 80.9052 175.291 80.9241 175.175 80.9407C175.059 80.9573 174.958 80.9715 174.873 80.9833C174.682 81.0094 174.51 81.052 174.358 81.1112C174.207 81.1703 174.087 81.2532 174 81.3597C173.912 81.4639 173.868 81.5988 173.868 81.7646C173.868 82.0013 173.955 82.18 174.128 82.3008C174.3 82.4215 174.521 82.4819 174.788 82.4819ZM182.938 79.3036L181.766 79.4315C181.733 79.3131 181.675 79.2018 181.592 79.0977C181.512 78.9935 181.403 78.9094 181.265 78.8455C181.128 78.7816 180.96 78.7496 180.761 78.7496C180.494 78.7496 180.269 78.8076 180.086 78.9237C179.906 79.0397 179.818 79.19 179.82 79.3746C179.818 79.5333 179.876 79.6623 179.994 79.7617C180.115 79.8612 180.314 79.9428 180.591 80.0067L181.521 80.2056C182.037 80.3169 182.421 80.4933 182.672 80.7347C182.925 80.9762 183.053 81.2923 183.055 81.6829C183.053 82.0262 182.952 82.3292 182.753 82.592C182.557 82.8524 182.283 83.056 181.933 83.2028C181.583 83.3496 181.18 83.4229 180.726 83.4229C180.058 83.4229 179.521 83.2833 179.113 83.0039C178.706 82.7222 178.463 82.3304 178.385 81.8285L179.639 81.7077C179.696 81.954 179.816 82.1398 180.001 82.2653C180.186 82.3907 180.426 82.4535 180.722 82.4535C181.027 82.4535 181.272 82.3907 181.457 82.2653C181.644 82.1398 181.738 81.9847 181.738 81.8001C181.738 81.6438 181.677 81.5148 181.557 81.413C181.438 81.3112 181.253 81.2331 181.003 81.1786L180.072 80.9833C179.549 80.8744 179.162 80.6909 178.911 80.4329C178.66 80.1725 178.536 79.8434 178.538 79.4457C178.536 79.1095 178.627 78.8183 178.811 78.5721C178.999 78.3235 179.258 78.1317 179.589 77.9968C179.923 77.8595 180.308 77.7908 180.743 77.7908C181.383 77.7908 181.886 77.927 182.253 78.1992C182.622 78.4715 182.85 78.8396 182.938 79.3036ZM186.53 83.4229C185.983 83.4229 185.511 83.3093 185.113 83.082C184.718 82.8524 184.413 82.5281 184.2 82.109C183.987 81.6876 183.881 81.1916 183.881 80.6211C183.881 80.06 183.987 79.5676 184.2 79.1438C184.416 78.7177 184.716 78.3862 185.102 78.1495C185.488 77.9104 185.942 77.7908 186.462 77.7908C186.799 77.7908 187.116 77.8453 187.414 77.9542C187.715 78.0607 187.98 78.2264 188.21 78.4513C188.442 78.6763 188.624 78.9627 188.756 79.3107C188.889 79.6564 188.955 80.0683 188.955 80.5465V80.9407H184.484V80.0742H187.723C187.721 79.828 187.667 79.609 187.563 79.4173C187.459 79.2231 187.313 79.0704 187.126 78.9592C186.942 78.8479 186.726 78.7923 186.48 78.7923C186.217 78.7923 185.987 78.8562 185.788 78.984C185.589 79.1095 185.434 79.2752 185.322 79.4812C185.214 79.6848 185.158 79.9085 185.156 80.1523V80.9087C185.156 81.226 185.214 81.4982 185.33 81.7255C185.446 81.9504 185.608 82.1232 185.816 82.244C186.024 82.3623 186.268 82.4215 186.548 82.4215C186.735 82.4215 186.904 82.3955 187.055 82.3434C187.207 82.2889 187.338 82.2096 187.45 82.1055C187.561 82.0013 187.645 81.8723 187.702 81.7184L188.902 81.8533C188.826 82.1706 188.682 82.4476 188.469 82.6843C188.258 82.9187 187.988 83.101 187.659 83.2312C187.33 83.359 186.954 83.4229 186.53 83.4229Z" fill="#636F8D"/>
<circle cx="136.003" cy="79.6636" r="3.65186" fill="#4274E4"/>
<circle cx="136.003" cy="79.6636" r="3.65186" fill="url(#paint0_linear_232_11388)"/>
</g>
<rect x="-0.966309" y="93.9492" width="462.966" height="99.5508" fill="url(#paint1_linear_232_11388)"/>
</g>
<defs>
<filter id="filter0_dd_232_11388" x="27" y="15" width="330" height="225" filterUnits="userSpaceOnUse" color-interpolation-filters="sRGB">
<feFlood flood-opacity="0" result="BackgroundImageFix"/>
<feColorMatrix in="SourceAlpha" type="matrix" values="0 0 0 0 0 0 0 0 0 0 0 0 0 0 0 0 0 0 127 0" result="hardAlpha"/>
<feOffset dy="3"/>
<feGaussianBlur stdDeviation="7"/>
<feColorMatrix type="matrix" values="0 0 0 0 0.212534 0 0 0 0 0.383151 0 0 0 0 1 0 0 0 0.1 0"/>
<feBlend mode="normal" in2="BackgroundImageFix" result="effect1_dropShadow_232_11388"/>
<feColorMatrix in="SourceAlpha" type="matrix" values="0 0 0 0 0 0 0 0 0 0 0 0 0 0 0 0 0 0 127 0" result="hardAlpha"/>
<feOffset dy="3"/>
<feGaussianBlur stdDeviation="7"/>
<feColorMatrix type="matrix" values="0 0 0 0 0.186148 0 0 0 0 0.186148 0 0 0 0 0.186148 0 0 0 0.04 0"/>
<feBlend mode="normal" in2="effect1_dropShadow_232_11388" result="effect2_dropShadow_232_11388"/>
<feBlend mode="normal" in="SourceGraphic" in2="effect2_dropShadow_232_11388" result="shape"/>
</filter>
<filter id="filter1_dd_232_11388" x="99" y="48" width="330" height="225" filterUnits="userSpaceOnUse" color-interpolation-filters="sRGB">
<feFlood flood-opacity="0" result="BackgroundImageFix"/>
<feColorMatrix in="SourceAlpha" type="matrix" values="0 0 0 0 0 0 0 0 0 0 0 0 0 0 0 0 0 0 127 0" result="hardAlpha"/>
<feOffset dy="3"/>
<feGaussianBlur stdDeviation="7"/>
<feColorMatrix type="matrix" values="0 0 0 0 0.212534 0 0 0 0 0.383151 0 0 0 0 1 0 0 0 0.1 0"/>
<feBlend mode="normal" in2="BackgroundImageFix" result="effect1_dropShadow_232_11388"/>
<feColorMatrix in="SourceAlpha" type="matrix" values="0 0 0 0 0 0 0 0 0 0 0 0 0 0 0 0 0 0 127 0" result="hardAlpha"/>
<feOffset dy="3"/>
<feGaussianBlur stdDeviation="7"/>
<feColorMatrix type="matrix" values="0 0 0 0 0.186148 0 0 0 0 0.186148 0 0 0 0 0.186148 0 0 0 0.04 0"/>
<feBlend mode="normal" in2="effect1_dropShadow_232_11388" result="effect2_dropShadow_232_11388"/>
<feBlend mode="normal" in="SourceGraphic" in2="effect2_dropShadow_232_11388" result="shape"/>
</filter>
<linearGradient id="paint0_linear_232_11388" x1="138.432" y1="76.4914" x2="133.468" y2="83.102" gradientUnits="userSpaceOnUse">
<stop stop-color="#4274E4"/>
<stop offset="1" stop-color="#78E6DC"/>
</linearGradient>
<linearGradient id="paint1_linear_232_11388" x1="230.517" y1="193.5" x2="230.517" y2="93.9492" gradientUnits="userSpaceOnUse">
<stop stop-color="#FAFBFC"/>
<stop offset="1" stop-color="#FAFBFC" stop-opacity="0"/>
</linearGradient>
<clipPath id="clip0_232_11388">
<rect width="462" height="193" rx="8" fill="white"/>
</clipPath>
</defs>
</svg>
