<svg width="578" height="310" viewBox="0 0 578 310" fill="none" xmlns="http://www.w3.org/2000/svg">
<g clip-path="url(#clip0_307_12019)">
<rect width="578" height="310" rx="12" fill="white"/>
<rect x="222.5" y="92.5" width="133" height="125" rx="45.5" stroke="#A8B9D0" stroke-dasharray="3 3"/>
<rect x="173.5" y="61.5" width="231" height="187" rx="59.5" stroke="#A8B9D0" stroke-opacity="0.6" stroke-dasharray="3 3"/>
<rect x="115.5" y="14.5" width="347" height="281" rx="79.5" stroke="#A8B9D0" stroke-opacity="0.4" stroke-dasharray="3 3"/>
<g filter="url(#filter0_d_307_12019)">
<rect x="254" y="120" width="70" height="70" rx="26" fill="white" shape-rendering="crispEdges"/>
<rect x="254.5" y="120.5" width="69" height="69" rx="25.5" stroke="#DCE1E7" shape-rendering="crispEdges"/>
<path d="M283.982 136.348C287.106 134.62 290.899 134.62 294.023 136.348L303.421 141.548C306.722 143.374 308.771 146.849 308.771 150.622V160.269C308.771 164.042 306.722 167.517 303.421 169.343L294.023 174.543C290.899 176.271 287.106 176.271 283.982 174.543L274.584 169.343C271.283 167.517 269.234 164.042 269.234 160.269V150.622C269.234 146.849 271.283 143.374 274.584 141.548L283.982 136.348Z" fill="#78E6DC"/>
<path d="M277.585 151.672H276.988V158.592C276.988 162.081 280.322 165.062 284.664 166.247C285.625 166.509 286.355 167.342 286.355 168.337V169.036C286.355 169.766 286.948 170.358 287.678 170.357C288.408 170.357 288.999 169.765 288.999 169.036V159.871C288.999 155.343 283.889 151.672 277.585 151.672Z" fill="#4274E4"/>
<path d="M281.492 144.68C285.473 144.68 288.699 147.906 288.699 151.887V154.088C284.719 154.088 281.492 150.861 281.492 146.881V144.68Z" fill="#00B9D2"/>
<path d="M289.906 159.116C289.906 152.991 294.871 148.026 300.996 148.026V154.415C300.996 160.54 296.031 165.505 289.906 165.505V159.116Z" fill="#00B9D2"/>
<circle cx="291.851" cy="148.025" r="1.9445" fill="#3CA1FF"/>
</g>
<g filter="url(#filter1_dd_307_12019)">
<rect x="24" y="71" width="142" height="34" rx="17" fill="white" shape-rendering="crispEdges"/>
<path fill-rule="evenodd" clip-rule="evenodd" d="M41.6634 83.3375L44.4986 81.7824L47.3338 83.3375L44.4986 84.8926L41.6634 83.3375ZM44.7231 80.974L48.3804 82.9801C48.5297 83.062 48.6088 83.2128 48.5986 83.3639H48.5994V86.3775L52.0712 88.2818C52.2205 88.3637 52.2996 88.5146 52.2894 88.6657H52.2903V91.9202C52.2931 92.0663 52.2167 92.209 52.0794 92.2849L48.3886 94.324C48.2648 94.3924 48.1142 94.3924 47.9903 94.324L44.4987 92.3949L41.0071 94.324C40.8832 94.3924 40.7326 94.3924 40.6088 94.324L36.918 92.2849C36.7807 92.209 36.7043 92.0663 36.7071 91.9202V88.6657H36.708C36.7025 88.5858 36.7216 88.5037 36.7682 88.4295C36.8065 88.3684 36.8609 88.3176 36.9262 88.2818L40.3978 86.3776V83.3639H40.3987C40.3931 83.2841 40.4122 83.2019 40.4588 83.1277C40.4972 83.0667 40.5515 83.0159 40.6168 82.9801L44.2741 80.974C44.4127 80.898 44.5845 80.898 44.7231 80.974ZM44.0886 91.6884V89.3264L41.218 90.9009V93.2744L44.0886 91.6884ZM47.7793 86.3776L44.9087 87.9522V85.5992L47.7793 84.0246V86.3776ZM45.3727 88.6494L48.1895 90.1944L51.0246 88.6392L48.1976 87.0886L45.3727 88.6494ZM43.6246 88.6494L40.7997 87.0886L37.9728 88.6392L40.8079 90.1944L43.6246 88.6494ZM51.4701 91.6884L48.5995 93.2744V90.9009L51.4701 89.3264V91.6884Z" fill="#4274E4"/>
<path d="M62.1477 82.3636H64.7273L68.1818 90.7955H68.3182L71.7727 82.3636H74.3523V94H72.3295V86.0057H72.2216L69.0057 93.9659H67.4943L64.2784 85.9886H64.1705V94H62.1477V82.3636ZM82.1193 90.3295V85.2727H84.1761V94H82.1818V92.4489H82.0909C81.8939 92.9375 81.5701 93.3371 81.1193 93.6477C80.6723 93.9583 80.1212 94.1136 79.4659 94.1136C78.8939 94.1136 78.3883 93.9867 77.9489 93.733C77.5133 93.4754 77.1723 93.1023 76.9261 92.6136C76.6799 92.1212 76.5568 91.5265 76.5568 90.8295V85.2727H78.6136V90.5114C78.6136 91.0644 78.7652 91.5038 79.0682 91.8295C79.3712 92.1553 79.7689 92.3182 80.2614 92.3182C80.5644 92.3182 80.858 92.2443 81.142 92.0966C81.4261 91.9489 81.6591 91.7292 81.8409 91.4375C82.0265 91.142 82.1193 90.7727 82.1193 90.3295ZM88.348 82.3636V94H86.2912V82.3636H88.348ZM94.821 85.2727V86.8636H89.804V85.2727H94.821ZM91.0426 83.1818H93.0994V91.375C93.0994 91.6515 93.1411 91.8636 93.2244 92.0114C93.3116 92.1553 93.4252 92.2538 93.5653 92.3068C93.7055 92.3598 93.8608 92.3864 94.0312 92.3864C94.16 92.3864 94.2775 92.3769 94.3835 92.358C94.4934 92.339 94.5767 92.322 94.6335 92.3068L94.9801 93.9148C94.8703 93.9527 94.7131 93.9943 94.5085 94.0398C94.3078 94.0852 94.0616 94.1117 93.7699 94.1193C93.2547 94.1345 92.7907 94.0568 92.3778 93.8864C91.965 93.7121 91.6373 93.4432 91.3949 93.0795C91.1563 92.7159 91.0388 92.2614 91.0426 91.7159V83.1818ZM96.5412 94V85.2727H98.598V94H96.5412ZM97.5753 84.0341C97.2495 84.0341 96.9692 83.9261 96.7344 83.7102C96.4995 83.4905 96.3821 83.2273 96.3821 82.9205C96.3821 82.6098 96.4995 82.3466 96.7344 82.1307C96.9692 81.911 97.2495 81.8011 97.5753 81.8011C97.9048 81.8011 98.1851 81.911 98.4162 82.1307C98.651 82.3466 98.7685 82.6098 98.7685 82.9205C98.7685 83.2273 98.651 83.4905 98.4162 83.7102C98.1851 83.9261 97.9048 84.0341 97.5753 84.0341ZM100.713 94V85.2727H102.679V86.7557H102.781C102.963 86.2557 103.264 85.8655 103.685 85.5852C104.105 85.3011 104.607 85.1591 105.19 85.1591C105.781 85.1591 106.279 85.303 106.685 85.5909C107.094 85.875 107.382 86.2633 107.548 86.7557H107.639C107.832 86.2708 108.158 85.8845 108.616 85.5966C109.079 85.3049 109.626 85.1591 110.259 85.1591C111.062 85.1591 111.717 85.4129 112.224 85.9205C112.732 86.428 112.986 87.1686 112.986 88.142V94H110.923V88.4602C110.923 87.9186 110.779 87.5227 110.491 87.2727C110.204 87.0189 109.851 86.892 109.435 86.892C108.938 86.892 108.55 87.0473 108.27 87.358C107.993 87.6648 107.855 88.0644 107.855 88.5568V94H105.838V88.375C105.838 87.9242 105.702 87.5644 105.429 87.2955C105.16 87.0265 104.808 86.892 104.372 86.892C104.077 86.892 103.808 86.9678 103.565 87.1193C103.323 87.267 103.13 87.4773 102.986 87.75C102.842 88.0189 102.77 88.3333 102.77 88.6932V94H100.713ZM118.879 94.1705C118.027 94.1705 117.288 93.983 116.663 93.608C116.038 93.233 115.554 92.7083 115.209 92.0341C114.868 91.3598 114.697 90.572 114.697 89.6705C114.697 88.7689 114.868 87.9792 115.209 87.3011C115.554 86.6231 116.038 86.0966 116.663 85.7216C117.288 85.3466 118.027 85.1591 118.879 85.1591C119.732 85.1591 120.47 85.3466 121.095 85.7216C121.72 86.0966 122.203 86.6231 122.544 87.3011C122.889 87.9792 123.061 88.7689 123.061 89.6705C123.061 90.572 122.889 91.3598 122.544 92.0341C122.203 92.7083 121.72 93.233 121.095 93.608C120.47 93.983 119.732 94.1705 118.879 94.1705ZM118.891 92.5227C119.353 92.5227 119.739 92.3958 120.05 92.142C120.36 91.8845 120.591 91.5398 120.743 91.108C120.898 90.6761 120.976 90.1951 120.976 89.6648C120.976 89.1307 120.898 88.6477 120.743 88.2159C120.591 87.7803 120.36 87.4337 120.05 87.1761C119.739 86.9186 119.353 86.7898 118.891 86.7898C118.417 86.7898 118.023 86.9186 117.709 87.1761C117.398 87.4337 117.165 87.7803 117.01 88.2159C116.858 88.6477 116.783 89.1307 116.783 89.6648C116.783 90.1951 116.858 90.6761 117.01 91.108C117.165 91.5398 117.398 91.8845 117.709 92.142C118.023 92.3958 118.417 92.5227 118.891 92.5227ZM128.045 94.1534C127.36 94.1534 126.746 93.9773 126.205 93.625C125.663 93.2727 125.235 92.7614 124.92 92.0909C124.606 91.4205 124.449 90.6061 124.449 89.6477C124.449 88.678 124.608 87.8598 124.926 87.1932C125.248 86.5227 125.682 86.017 126.227 85.6761C126.773 85.3314 127.381 85.1591 128.051 85.1591C128.563 85.1591 128.983 85.2462 129.312 85.4205C129.642 85.5909 129.903 85.7973 130.097 86.0398C130.29 86.2784 130.439 86.5038 130.545 86.7159H130.631V82.3636H132.693V94H130.67V92.625H130.545C130.439 92.8371 130.286 93.0625 130.085 93.3011C129.884 93.536 129.619 93.7367 129.29 93.9034C128.96 94.0701 128.545 94.1534 128.045 94.1534ZM128.619 92.4659C129.055 92.4659 129.426 92.3485 129.733 92.1136C130.04 91.875 130.273 91.5436 130.432 91.1193C130.591 90.6951 130.67 90.2008 130.67 89.6364C130.67 89.072 130.591 88.5814 130.432 88.1648C130.277 87.7481 130.045 87.4242 129.739 87.1932C129.436 86.9621 129.063 86.8466 128.619 86.8466C128.161 86.8466 127.778 86.9659 127.472 87.2045C127.165 87.4432 126.934 87.7727 126.778 88.1932C126.623 88.6136 126.545 89.0947 126.545 89.6364C126.545 90.1818 126.623 90.6686 126.778 91.0966C126.938 91.5208 127.17 91.8561 127.477 92.1023C127.788 92.3447 128.169 92.4659 128.619 92.4659ZM137.396 94.1761C136.843 94.1761 136.345 94.0777 135.902 93.8807C135.463 93.6799 135.114 93.3845 134.857 92.9943C134.603 92.6042 134.476 92.1231 134.476 91.5511C134.476 91.0587 134.567 90.6515 134.749 90.3295C134.93 90.0076 135.179 89.75 135.493 89.5568C135.807 89.3636 136.161 89.2178 136.555 89.1193C136.953 89.017 137.364 88.9432 137.788 88.8977C138.3 88.8447 138.714 88.7973 139.033 88.7557C139.351 88.7102 139.582 88.642 139.726 88.5511C139.874 88.4564 139.947 88.3106 139.947 88.1136V88.0795C139.947 87.6515 139.821 87.3201 139.567 87.0852C139.313 86.8504 138.947 86.733 138.47 86.733C137.966 86.733 137.567 86.8428 137.271 87.0625C136.98 87.2822 136.783 87.5417 136.68 87.8409L134.76 87.5682C134.911 87.0379 135.161 86.5947 135.51 86.2386C135.858 85.8788 136.285 85.6098 136.788 85.4318C137.292 85.25 137.849 85.1591 138.459 85.1591C138.879 85.1591 139.298 85.2083 139.714 85.3068C140.131 85.4053 140.512 85.5682 140.857 85.7955C141.201 86.0189 141.478 86.3239 141.686 86.7102C141.898 87.0966 142.004 87.5795 142.004 88.1591V94H140.027V92.8011H139.959C139.834 93.0436 139.658 93.2708 139.43 93.483C139.207 93.6913 138.925 93.8598 138.584 93.9886C138.247 94.1136 137.851 94.1761 137.396 94.1761ZM137.93 92.6648C138.343 92.6648 138.701 92.5833 139.004 92.4205C139.307 92.2538 139.54 92.0341 139.703 91.7614C139.87 91.4886 139.953 91.1913 139.953 90.8693V89.8409C139.889 89.8939 139.779 89.9432 139.624 89.9886C139.472 90.0341 139.302 90.0739 139.112 90.108C138.923 90.142 138.735 90.1723 138.55 90.1989C138.364 90.2254 138.203 90.2481 138.067 90.267C137.76 90.3087 137.485 90.3769 137.243 90.4716C137 90.5663 136.809 90.6989 136.669 90.8693C136.529 91.036 136.459 91.2519 136.459 91.517C136.459 91.8958 136.597 92.1818 136.874 92.375C137.15 92.5682 137.502 92.6648 137.93 92.6648ZM146.129 82.3636V94H144.072V82.3636H146.129Z" fill="#2B313F" fill-opacity="0.8"/>
</g>
<g filter="url(#filter2_dd_307_12019)">
<rect x="342" y="39" width="206" height="34" rx="17" fill="white" shape-rendering="crispEdges"/>
<path fill-rule="evenodd" clip-rule="evenodd" d="M363.207 49.6247C363.207 48.8423 363.841 48.208 364.624 48.208H368.874C369.656 48.208 370.29 48.8423 370.29 49.6247V53.8747C370.29 54.6571 369.656 55.2913 368.874 55.2913H364.624C363.841 55.2913 363.207 54.6571 363.207 53.8747V52.8122H359.656V58.1247C359.656 58.7115 360.132 59.1872 360.719 59.1872H363.207V58.1247C363.207 57.3423 363.841 56.708 364.624 56.708H368.874C369.656 56.708 370.29 57.3423 370.29 58.1247V62.3747C370.29 63.1571 369.656 63.7913 368.874 63.7913H364.624C363.841 63.7913 363.207 63.1571 363.207 62.3747V61.3122H360.719C358.958 61.3122 357.531 59.8851 357.531 58.1247L357.531 52.8122H355.777C355.191 52.8122 354.715 52.3365 354.715 51.7497C354.715 51.1629 355.191 50.6872 355.777 50.6872L363.207 50.6872V49.6247ZM364.269 60.2497C364.269 59.8585 364.587 59.5413 364.978 59.5413H366.04V58.4788C366.04 58.0876 366.357 57.7705 366.749 57.7705C367.14 57.7705 367.457 58.0876 367.457 58.4788V59.5413H368.519C368.911 59.5413 369.228 59.8585 369.228 60.2497C369.228 60.6409 368.911 60.958 368.519 60.958H367.457V62.0205C367.457 62.4117 367.14 62.7288 366.749 62.7288C366.357 62.7288 366.04 62.4117 366.04 62.0205V60.958H364.978C364.587 60.958 364.269 60.6409 364.269 60.2497Z" fill="#26B6A9"/>
<path d="M386.472 53.5625C386.419 53.0663 386.195 52.6799 385.801 52.4034C385.411 52.1269 384.903 51.9886 384.278 51.9886C383.839 51.9886 383.462 52.0549 383.148 52.1875C382.833 52.3201 382.593 52.5 382.426 52.7273C382.259 52.9545 382.174 53.214 382.17 53.5057C382.17 53.7481 382.225 53.9583 382.335 54.1364C382.449 54.3144 382.602 54.4659 382.795 54.5909C382.989 54.7121 383.203 54.8144 383.438 54.8977C383.672 54.9811 383.909 55.0511 384.148 55.108L385.239 55.3807C385.678 55.483 386.1 55.6212 386.506 55.7955C386.915 55.9697 387.28 56.1894 387.602 56.4545C387.928 56.7197 388.186 57.0398 388.375 57.4148C388.564 57.7898 388.659 58.2292 388.659 58.733C388.659 59.4148 388.485 60.0152 388.136 60.5341C387.788 61.0492 387.284 61.4527 386.625 61.7443C385.97 62.0322 385.176 62.1761 384.244 62.1761C383.339 62.1761 382.553 62.036 381.886 61.7557C381.223 61.4754 380.705 61.0663 380.33 60.5284C379.958 59.9905 379.758 59.3352 379.727 58.5625H381.801C381.831 58.9678 381.956 59.3049 382.176 59.5739C382.396 59.8428 382.682 60.0436 383.034 60.1761C383.39 60.3087 383.788 60.375 384.227 60.375C384.686 60.375 385.087 60.3068 385.432 60.1705C385.78 60.0303 386.053 59.8371 386.25 59.5909C386.447 59.3409 386.547 59.0492 386.551 58.7159C386.547 58.4129 386.458 58.1629 386.284 57.9659C386.11 57.7652 385.866 57.5985 385.551 57.4659C385.241 57.3295 384.877 57.2083 384.46 57.1023L383.136 56.7614C382.178 56.5152 381.42 56.142 380.864 55.642C380.311 55.1383 380.034 54.4697 380.034 53.6364C380.034 52.9508 380.22 52.3504 380.591 51.8352C380.966 51.3201 381.475 50.9205 382.119 50.6364C382.763 50.3485 383.492 50.2045 384.307 50.2045C385.133 50.2045 385.856 50.3485 386.477 50.6364C387.102 50.9205 387.593 51.3163 387.949 51.8239C388.305 52.3277 388.489 52.9072 388.5 53.5625H386.472ZM394.805 53.2727V54.8636H389.788V53.2727H394.805ZM391.027 51.1818H393.084V59.375C393.084 59.6515 393.125 59.8636 393.209 60.0114C393.296 60.1553 393.41 60.2538 393.55 60.3068C393.69 60.3598 393.845 60.3864 394.016 60.3864C394.144 60.3864 394.262 60.3769 394.368 60.358C394.478 60.339 394.561 60.322 394.618 60.3068L394.964 61.9148C394.855 61.9527 394.697 61.9943 394.493 62.0398C394.292 62.0852 394.046 62.1117 393.754 62.1193C393.239 62.1345 392.775 62.0568 392.362 61.8864C391.949 61.7121 391.622 61.4432 391.379 61.0795C391.141 60.7159 391.023 60.2614 391.027 59.7159V51.1818ZM396.526 62V53.2727H398.52V54.7273H398.611C398.77 54.2235 399.043 53.8352 399.429 53.5625C399.819 53.286 400.264 53.1477 400.764 53.1477C400.878 53.1477 401.005 53.1534 401.145 53.1648C401.289 53.1723 401.408 53.1856 401.503 53.2045V55.0966C401.416 55.0663 401.277 55.0398 401.088 55.017C400.902 54.9905 400.723 54.9773 400.548 54.9773C400.173 54.9773 399.836 55.0587 399.537 55.2216C399.241 55.3807 399.009 55.6023 398.838 55.8864C398.668 56.1705 398.582 56.4981 398.582 56.8693V62H396.526ZM405.224 62.1761C404.671 62.1761 404.173 62.0777 403.73 61.8807C403.291 61.6799 402.942 61.3845 402.685 60.9943C402.431 60.6042 402.304 60.1231 402.304 59.5511C402.304 59.0587 402.395 58.6515 402.577 58.3295C402.759 58.0076 403.007 57.75 403.321 57.5568C403.635 57.3636 403.99 57.2178 404.384 57.1193C404.781 57.017 405.192 56.9432 405.616 56.8977C406.128 56.8447 406.543 56.7973 406.861 56.7557C407.179 56.7102 407.41 56.642 407.554 56.5511C407.702 56.4564 407.776 56.3106 407.776 56.1136V56.0795C407.776 55.6515 407.649 55.3201 407.395 55.0852C407.141 54.8504 406.776 54.733 406.298 54.733C405.795 54.733 405.395 54.8428 405.099 55.0625C404.808 55.2822 404.611 55.5417 404.509 55.8409L402.588 55.5682C402.74 55.0379 402.99 54.5947 403.338 54.2386C403.687 53.8788 404.113 53.6098 404.616 53.4318C405.12 53.25 405.677 53.1591 406.287 53.1591C406.707 53.1591 407.126 53.2083 407.543 53.3068C407.959 53.4053 408.34 53.5682 408.685 53.7955C409.029 54.0189 409.306 54.3239 409.514 54.7102C409.726 55.0966 409.832 55.5795 409.832 56.1591V62H407.855V60.8011H407.787C407.662 61.0436 407.486 61.2708 407.259 61.483C407.035 61.6913 406.753 61.8598 406.412 61.9886C406.075 62.1136 405.679 62.1761 405.224 62.1761ZM405.759 60.6648C406.171 60.6648 406.529 60.5833 406.832 60.4205C407.135 60.2538 407.368 60.0341 407.531 59.7614C407.698 59.4886 407.781 59.1913 407.781 58.8693V57.8409C407.717 57.8939 407.607 57.9432 407.452 57.9886C407.3 58.0341 407.13 58.0739 406.94 58.108C406.751 58.142 406.563 58.1723 406.378 58.1989C406.192 58.2254 406.031 58.2481 405.895 58.267C405.588 58.3087 405.313 58.3769 405.071 58.4716C404.829 58.5663 404.637 58.6989 404.497 58.8693C404.357 59.036 404.287 59.2519 404.287 59.517C404.287 59.8958 404.425 60.1818 404.702 60.375C404.978 60.5682 405.33 60.6648 405.759 60.6648ZM416.259 53.2727V54.8636H411.241V53.2727H416.259ZM412.48 51.1818H414.537V59.375C414.537 59.6515 414.579 59.8636 414.662 60.0114C414.749 60.1553 414.863 60.2538 415.003 60.3068C415.143 60.3598 415.298 60.3864 415.469 60.3864C415.598 60.3864 415.715 60.3769 415.821 60.358C415.931 60.339 416.014 60.322 416.071 60.3068L416.418 61.9148C416.308 61.9527 416.151 61.9943 415.946 62.0398C415.745 62.0852 415.499 62.1117 415.207 62.1193C414.692 62.1345 414.228 62.0568 413.815 61.8864C413.402 61.7121 413.075 61.4432 412.832 61.0795C412.594 60.7159 412.476 60.2614 412.48 59.7159V51.1818ZM421.749 62.1705C420.874 62.1705 420.118 61.9886 419.482 61.625C418.849 61.2576 418.362 60.7386 418.021 60.0682C417.68 59.3939 417.51 58.6004 417.51 57.6875C417.51 56.7898 417.68 56.0019 418.021 55.3239C418.366 54.642 418.847 54.1117 419.464 53.733C420.082 53.3504 420.807 53.1591 421.641 53.1591C422.179 53.1591 422.686 53.2462 423.163 53.4205C423.644 53.5909 424.069 53.8561 424.436 54.2159C424.807 54.5758 425.099 55.0341 425.311 55.5909C425.523 56.1439 425.629 56.803 425.629 57.5682V58.1989H418.476V56.8125H423.658C423.654 56.4186 423.569 56.0682 423.402 55.7614C423.235 55.4508 423.002 55.2064 422.703 55.0284C422.408 54.8504 422.063 54.7614 421.669 54.7614C421.249 54.7614 420.879 54.8636 420.561 55.0682C420.243 55.2689 419.995 55.5341 419.817 55.8636C419.643 56.1894 419.554 56.5473 419.55 56.9375V58.1477C419.55 58.6553 419.643 59.0909 419.828 59.4545C420.014 59.8144 420.273 60.0909 420.607 60.2841C420.94 60.4735 421.33 60.5682 421.777 60.5682C422.076 60.5682 422.347 60.5265 422.589 60.4432C422.832 60.3561 423.042 60.2292 423.22 60.0625C423.398 59.8958 423.533 59.6894 423.624 59.4432L425.544 59.6591C425.423 60.1667 425.192 60.6098 424.851 60.9886C424.514 61.3636 424.082 61.6553 423.555 61.8636C423.029 62.0682 422.427 62.1705 421.749 62.1705ZM431.165 65.4545C430.426 65.4545 429.792 65.3542 429.261 65.1534C428.731 64.9564 428.305 64.6913 427.983 64.358C427.661 64.0246 427.438 63.6553 427.312 63.25L429.165 62.8011C429.248 62.9716 429.369 63.1402 429.528 63.3068C429.688 63.4773 429.902 63.6174 430.17 63.7273C430.443 63.8409 430.786 63.8977 431.199 63.8977C431.782 63.8977 432.265 63.7557 432.648 63.4716C433.03 63.1913 433.222 62.7292 433.222 62.0852V60.4318H433.119C433.013 60.6439 432.858 60.8617 432.653 61.0852C432.453 61.3087 432.186 61.4962 431.852 61.6477C431.523 61.7992 431.108 61.875 430.608 61.875C429.938 61.875 429.33 61.7178 428.784 61.4034C428.242 61.0852 427.811 60.6117 427.489 59.983C427.17 59.3504 427.011 58.5587 427.011 57.608C427.011 56.6496 427.17 55.8409 427.489 55.1818C427.811 54.5189 428.244 54.017 428.79 53.6761C429.335 53.3314 429.943 53.1591 430.614 53.1591C431.125 53.1591 431.545 53.2462 431.875 53.4205C432.208 53.5909 432.473 53.7973 432.67 54.0398C432.867 54.2784 433.017 54.5038 433.119 54.7159H433.233V53.2727H435.261V62.142C435.261 62.8883 435.083 63.5057 434.727 63.9943C434.371 64.483 433.884 64.8485 433.267 65.0909C432.65 65.3333 431.949 65.4545 431.165 65.4545ZM431.182 60.2614C431.617 60.2614 431.989 60.1553 432.295 59.9432C432.602 59.7311 432.835 59.4261 432.994 59.0284C433.153 58.6307 433.233 58.1534 433.233 57.5966C433.233 57.0473 433.153 56.5663 432.994 56.1534C432.839 55.7405 432.608 55.4205 432.301 55.1932C431.998 54.9621 431.625 54.8466 431.182 54.8466C430.723 54.8466 430.341 54.9659 430.034 55.2045C429.727 55.4432 429.496 55.7708 429.341 56.1875C429.186 56.6004 429.108 57.0701 429.108 57.5966C429.108 58.1307 429.186 58.5985 429.341 59C429.5 59.3977 429.733 59.7083 430.04 59.9318C430.35 60.1515 430.731 60.2614 431.182 60.2614ZM437.369 62V53.2727H439.426V62H437.369ZM438.403 52.0341C438.078 52.0341 437.797 51.9261 437.562 51.7102C437.328 51.4905 437.21 51.2273 437.21 50.9205C437.21 50.6098 437.328 50.3466 437.562 50.1307C437.797 49.911 438.078 49.8011 438.403 49.8011C438.733 49.8011 439.013 49.911 439.244 50.1307C439.479 50.3466 439.597 50.6098 439.597 50.9205C439.597 51.2273 439.479 51.4905 439.244 51.7102C439.013 51.9261 438.733 52.0341 438.403 52.0341ZM445.348 62.1705C444.477 62.1705 443.729 61.9792 443.104 61.5966C442.482 61.214 442.003 60.6856 441.666 60.0114C441.333 59.3333 441.166 58.553 441.166 57.6705C441.166 56.7841 441.337 56.0019 441.678 55.3239C442.018 54.642 442.5 54.1117 443.121 53.733C443.746 53.3504 444.484 53.1591 445.337 53.1591C446.045 53.1591 446.672 53.2898 447.217 53.5511C447.767 53.8087 448.204 54.1742 448.53 54.6477C448.856 55.1174 449.041 55.6667 449.087 56.2955H447.121C447.041 55.875 446.852 55.5246 446.553 55.2443C446.257 54.9602 445.861 54.8182 445.365 54.8182C444.945 54.8182 444.575 54.9318 444.257 55.1591C443.939 55.3826 443.691 55.7045 443.513 56.125C443.339 56.5455 443.251 57.0492 443.251 57.6364C443.251 58.2311 443.339 58.7424 443.513 59.1705C443.687 59.5947 443.931 59.9223 444.246 60.1534C444.564 60.3807 444.937 60.4943 445.365 60.4943C445.668 60.4943 445.939 60.4375 446.178 60.3239C446.42 60.2064 446.623 60.0379 446.786 59.8182C446.948 59.5985 447.06 59.3314 447.121 59.017H449.087C449.037 59.6345 448.856 60.1818 448.541 60.6591C448.227 61.1326 447.799 61.5038 447.257 61.7727C446.715 62.0379 446.079 62.1705 445.348 62.1705ZM458.778 62H454.835V50.3636H458.858C460.013 50.3636 461.006 50.5966 461.835 51.0625C462.669 51.5246 463.309 52.1894 463.756 53.0568C464.203 53.9242 464.426 54.9621 464.426 56.1705C464.426 57.3826 464.201 58.4242 463.75 59.2955C463.303 60.1667 462.657 60.8352 461.812 61.3011C460.972 61.767 459.96 62 458.778 62ZM456.943 60.1761H458.676C459.487 60.1761 460.163 60.0284 460.705 59.733C461.246 59.4337 461.653 58.9886 461.926 58.3977C462.199 57.803 462.335 57.0606 462.335 56.1705C462.335 55.2803 462.199 54.5417 461.926 53.9545C461.653 53.3636 461.25 52.9223 460.716 52.6307C460.186 52.3352 459.527 52.1875 458.739 52.1875H456.943V60.1761ZM470.202 62.1705C469.327 62.1705 468.571 61.9886 467.935 61.625C467.302 61.2576 466.815 60.7386 466.474 60.0682C466.134 59.3939 465.963 58.6004 465.963 57.6875C465.963 56.7898 466.134 56.0019 466.474 55.3239C466.819 54.642 467.3 54.1117 467.918 53.733C468.535 53.3504 469.26 53.1591 470.094 53.1591C470.632 53.1591 471.139 53.2462 471.616 53.4205C472.098 53.5909 472.522 53.8561 472.889 54.2159C473.26 54.5758 473.552 55.0341 473.764 55.5909C473.976 56.1439 474.082 56.803 474.082 57.5682V58.1989H466.929V56.8125H472.111C472.107 56.4186 472.022 56.0682 471.855 55.7614C471.688 55.4508 471.455 55.2064 471.156 55.0284C470.861 54.8504 470.516 54.7614 470.122 54.7614C469.702 54.7614 469.332 54.8636 469.014 55.0682C468.696 55.2689 468.448 55.5341 468.27 55.8636C468.096 56.1894 468.007 56.5473 468.003 56.9375V58.1477C468.003 58.6553 468.096 59.0909 468.281 59.4545C468.467 59.8144 468.726 60.0909 469.06 60.2841C469.393 60.4735 469.783 60.5682 470.23 60.5682C470.529 60.5682 470.8 60.5265 471.043 60.4432C471.285 60.3561 471.495 60.2292 471.673 60.0625C471.851 59.8958 471.986 59.6894 472.077 59.4432L473.997 59.6591C473.876 60.1667 473.645 60.6098 473.304 60.9886C472.967 61.3636 472.535 61.6553 472.009 61.8636C471.482 62.0682 470.88 62.1705 470.202 62.1705ZM479.629 62.1705C478.758 62.1705 478.01 61.9792 477.385 61.5966C476.764 61.214 476.285 60.6856 475.947 60.0114C475.614 59.3333 475.447 58.553 475.447 57.6705C475.447 56.7841 475.618 56.0019 475.959 55.3239C476.3 54.642 476.781 54.1117 477.402 53.733C478.027 53.3504 478.766 53.1591 479.618 53.1591C480.326 53.1591 480.953 53.2898 481.499 53.5511C482.048 53.8087 482.485 54.1742 482.811 54.6477C483.137 55.1174 483.322 55.6667 483.368 56.2955H481.402C481.322 55.875 481.133 55.5246 480.834 55.2443C480.538 54.9602 480.143 54.8182 479.646 54.8182C479.226 54.8182 478.857 54.9318 478.538 55.1591C478.22 55.3826 477.972 55.7045 477.794 56.125C477.62 56.5455 477.533 57.0492 477.533 57.6364C477.533 58.2311 477.62 58.7424 477.794 59.1705C477.968 59.5947 478.213 59.9223 478.527 60.1534C478.845 60.3807 479.218 60.4943 479.646 60.4943C479.949 60.4943 480.22 60.4375 480.459 60.3239C480.701 60.2064 480.904 60.0379 481.067 59.8182C481.23 59.5985 481.341 59.3314 481.402 59.017H483.368C483.319 59.6345 483.137 60.1818 482.822 60.6591C482.508 61.1326 482.08 61.5038 481.538 61.7727C480.997 62.0379 480.36 62.1705 479.629 62.1705ZM485.057 62V53.2727H487.114V62H485.057ZM486.091 52.0341C485.765 52.0341 485.485 51.9261 485.25 51.7102C485.015 51.4905 484.898 51.2273 484.898 50.9205C484.898 50.6098 485.015 50.3466 485.25 50.1307C485.485 49.911 485.765 49.8011 486.091 49.8011C486.42 49.8011 486.701 49.911 486.932 50.1307C487.167 50.3466 487.284 50.6098 487.284 50.9205C487.284 51.2273 487.167 51.4905 486.932 51.7102C486.701 51.9261 486.42 52.0341 486.091 52.0341ZM496.126 55.5795L494.251 55.7841C494.198 55.5947 494.106 55.4167 493.973 55.25C493.844 55.0833 493.67 54.9489 493.45 54.8466C493.231 54.7443 492.962 54.6932 492.643 54.6932C492.215 54.6932 491.856 54.786 491.564 54.9716C491.276 55.1572 491.134 55.3977 491.138 55.6932C491.134 55.947 491.227 56.1534 491.416 56.3125C491.609 56.4716 491.928 56.6023 492.371 56.7045L493.859 57.0227C494.685 57.2008 495.299 57.483 495.7 57.8693C496.106 58.2557 496.31 58.7614 496.314 59.3864C496.31 59.9356 496.149 60.4205 495.831 60.8409C495.517 61.2576 495.079 61.5833 494.518 61.8182C493.958 62.053 493.314 62.1705 492.587 62.1705C491.518 62.1705 490.659 61.947 490.007 61.5C489.356 61.0492 488.967 60.4223 488.842 59.6193L490.848 59.4261C490.939 59.8201 491.132 60.1174 491.428 60.3182C491.723 60.5189 492.107 60.6193 492.581 60.6193C493.07 60.6193 493.462 60.5189 493.757 60.3182C494.056 60.1174 494.206 59.8693 494.206 59.5739C494.206 59.3239 494.109 59.1174 493.916 58.9545C493.727 58.7917 493.431 58.6667 493.03 58.5795L491.541 58.267C490.704 58.0928 490.085 57.7992 489.683 57.3864C489.282 56.9697 489.083 56.4432 489.087 55.8068C489.083 55.2689 489.229 54.803 489.524 54.4091C489.823 54.0114 490.238 53.7045 490.768 53.4886C491.303 53.2689 491.918 53.1591 492.615 53.1591C493.638 53.1591 494.443 53.3769 495.03 53.8125C495.621 54.2481 495.986 54.8371 496.126 55.5795ZM498.01 62V53.2727H500.067V62H498.01ZM499.044 52.0341C498.718 52.0341 498.438 51.9261 498.203 51.7102C497.968 51.4905 497.851 51.2273 497.851 50.9205C497.851 50.6098 497.968 50.3466 498.203 50.1307C498.438 49.911 498.718 49.8011 499.044 49.8011C499.374 49.8011 499.654 49.911 499.885 50.1307C500.12 50.3466 500.237 50.6098 500.237 50.9205C500.237 51.2273 500.12 51.4905 499.885 51.7102C499.654 51.9261 499.374 52.0341 499.044 52.0341ZM505.989 62.1705C505.136 62.1705 504.398 61.983 503.773 61.608C503.148 61.233 502.663 60.7083 502.318 60.0341C501.977 59.3598 501.807 58.572 501.807 57.6705C501.807 56.7689 501.977 55.9792 502.318 55.3011C502.663 54.6231 503.148 54.0966 503.773 53.7216C504.398 53.3466 505.136 53.1591 505.989 53.1591C506.841 53.1591 507.58 53.3466 508.205 53.7216C508.83 54.0966 509.313 54.6231 509.653 55.3011C509.998 55.9792 510.17 56.7689 510.17 57.6705C510.17 58.572 509.998 59.3598 509.653 60.0341C509.313 60.7083 508.83 61.233 508.205 61.608C507.58 61.983 506.841 62.1705 505.989 62.1705ZM506 60.5227C506.462 60.5227 506.848 60.3958 507.159 60.142C507.47 59.8845 507.701 59.5398 507.852 59.108C508.008 58.6761 508.085 58.1951 508.085 57.6648C508.085 57.1307 508.008 56.6477 507.852 56.2159C507.701 55.7803 507.47 55.4337 507.159 55.1761C506.848 54.9186 506.462 54.7898 506 54.7898C505.527 54.7898 505.133 54.9186 504.818 55.1761C504.508 55.4337 504.275 55.7803 504.119 56.2159C503.968 56.6477 503.892 57.1307 503.892 57.6648C503.892 58.1951 503.968 58.6761 504.119 59.108C504.275 59.5398 504.508 59.8845 504.818 60.142C505.133 60.3958 505.527 60.5227 506 60.5227ZM513.973 56.8864V62H511.916V53.2727H513.882V54.7557H513.984C514.185 54.267 514.505 53.8788 514.945 53.5909C515.388 53.303 515.935 53.1591 516.587 53.1591C517.189 53.1591 517.714 53.2879 518.161 53.5455C518.611 53.803 518.96 54.1761 519.206 54.6648C519.456 55.1534 519.579 55.7462 519.575 56.4432V62H517.518V56.7614C517.518 56.178 517.367 55.7216 517.064 55.392C516.765 55.0625 516.35 54.8977 515.82 54.8977C515.46 54.8977 515.14 54.9773 514.859 55.1364C514.583 55.2917 514.365 55.517 514.206 55.8125C514.051 56.108 513.973 56.4659 513.973 56.8864ZM528.564 55.5795L526.689 55.7841C526.636 55.5947 526.543 55.4167 526.411 55.25C526.282 55.0833 526.107 54.9489 525.888 54.8466C525.668 54.7443 525.399 54.6932 525.081 54.6932C524.653 54.6932 524.293 54.786 524.001 54.9716C523.714 55.1572 523.571 55.3977 523.575 55.6932C523.571 55.947 523.664 56.1534 523.854 56.3125C524.047 56.4716 524.365 56.6023 524.808 56.7045L526.297 57.0227C527.123 57.2008 527.736 57.483 528.138 57.8693C528.543 58.2557 528.748 58.7614 528.751 59.3864C528.748 59.9356 528.587 60.4205 528.268 60.8409C527.954 61.2576 527.517 61.5833 526.956 61.8182C526.395 62.053 525.751 62.1705 525.024 62.1705C523.956 62.1705 523.096 61.947 522.445 61.5C521.793 61.0492 521.405 60.4223 521.28 59.6193L523.286 59.4261C523.376 59.8201 523.57 60.1174 523.865 60.3182C524.161 60.5189 524.545 60.6193 525.018 60.6193C525.507 60.6193 525.899 60.5189 526.195 60.3182C526.494 60.1174 526.643 59.8693 526.643 59.5739C526.643 59.3239 526.547 59.1174 526.354 58.9545C526.164 58.7917 525.869 58.6667 525.467 58.5795L523.979 58.267C523.142 58.0928 522.522 57.7992 522.121 57.3864C521.719 56.9697 521.52 56.4432 521.524 55.8068C521.52 55.2689 521.666 54.803 521.962 54.4091C522.261 54.0114 522.676 53.7045 523.206 53.4886C523.74 53.2689 524.356 53.1591 525.053 53.1591C526.075 53.1591 526.88 53.3769 527.467 53.8125C528.058 54.2481 528.424 54.8371 528.564 55.5795Z" fill="#2B313F" fill-opacity="0.8"/>
</g>
<g filter="url(#filter3_dd_307_12019)">
<rect x="311" y="229" width="251" height="34" rx="17" fill="white" shape-rendering="crispEdges"/>
<path fill-rule="evenodd" clip-rule="evenodd" d="M338.101 240.188L331.908 238.33C331.643 238.251 331.359 238.251 331.094 238.33L324.909 240.186C324.616 240.274 324.413 240.536 324.41 240.842C324.391 242.706 324.433 249.147 325.834 250.958C327.234 252.766 330.355 253.549 331.254 253.742C331.418 253.777 331.584 253.777 331.748 253.74C332.632 253.544 335.665 252.761 337.168 250.958C338.679 249.144 338.643 242.686 338.599 240.833C338.592 240.531 338.39 240.275 338.101 240.188ZM331.501 240.335V251.665C331.497 251.666 331.495 251.666 331.495 251.666C331.495 251.666 328.687 251.151 327.539 249.606C326.391 248.06 326.55 241.685 326.55 241.685L331.495 240.333L331.501 240.335Z" fill="#4274E4"/>
<path d="M350.642 252H348.392L352.489 240.364H355.091L359.193 252H356.943L353.835 242.75H353.744L350.642 252ZM350.716 247.438H356.852V249.131H350.716V247.438ZM366.197 248.33V243.273H368.254V252H366.26V250.449H366.169C365.972 250.937 365.648 251.337 365.197 251.648C364.75 251.958 364.199 252.114 363.544 252.114C362.972 252.114 362.466 251.987 362.027 251.733C361.591 251.475 361.25 251.102 361.004 250.614C360.758 250.121 360.635 249.527 360.635 248.83V243.273H362.692V248.511C362.692 249.064 362.843 249.504 363.146 249.83C363.449 250.155 363.847 250.318 364.339 250.318C364.643 250.318 364.936 250.244 365.22 250.097C365.504 249.949 365.737 249.729 365.919 249.438C366.105 249.142 366.197 248.773 366.197 248.33ZM374.727 243.273V244.864H369.71V243.273H374.727ZM370.949 241.182H373.006V249.375C373.006 249.652 373.047 249.864 373.131 250.011C373.218 250.155 373.331 250.254 373.472 250.307C373.612 250.36 373.767 250.386 373.938 250.386C374.066 250.386 374.184 250.377 374.29 250.358C374.4 250.339 374.483 250.322 374.54 250.307L374.886 251.915C374.777 251.953 374.619 251.994 374.415 252.04C374.214 252.085 373.968 252.112 373.676 252.119C373.161 252.134 372.697 252.057 372.284 251.886C371.871 251.712 371.544 251.443 371.301 251.08C371.063 250.716 370.945 250.261 370.949 249.716V241.182ZM380.161 252.17C379.308 252.17 378.57 251.983 377.945 251.608C377.32 251.233 376.835 250.708 376.49 250.034C376.149 249.36 375.979 248.572 375.979 247.67C375.979 246.769 376.149 245.979 376.49 245.301C376.835 244.623 377.32 244.097 377.945 243.722C378.57 243.347 379.308 243.159 380.161 243.159C381.013 243.159 381.751 243.347 382.376 243.722C383.001 244.097 383.484 244.623 383.825 245.301C384.17 245.979 384.342 246.769 384.342 247.67C384.342 248.572 384.17 249.36 383.825 250.034C383.484 250.708 383.001 251.233 382.376 251.608C381.751 251.983 381.013 252.17 380.161 252.17ZM380.172 250.523C380.634 250.523 381.02 250.396 381.331 250.142C381.642 249.884 381.873 249.54 382.024 249.108C382.179 248.676 382.257 248.195 382.257 247.665C382.257 247.131 382.179 246.648 382.024 246.216C381.873 245.78 381.642 245.434 381.331 245.176C381.02 244.919 380.634 244.79 380.172 244.79C379.698 244.79 379.304 244.919 378.99 245.176C378.679 245.434 378.446 245.78 378.291 246.216C378.14 246.648 378.064 247.131 378.064 247.665C378.064 248.195 378.14 248.676 378.291 249.108C378.446 249.54 378.679 249.884 378.99 250.142C379.304 250.396 379.698 250.523 380.172 250.523ZM386.088 252V243.273H388.054V244.756H388.156C388.338 244.256 388.639 243.866 389.06 243.585C389.48 243.301 389.982 243.159 390.565 243.159C391.156 243.159 391.654 243.303 392.06 243.591C392.469 243.875 392.757 244.263 392.923 244.756H393.014C393.207 244.271 393.533 243.884 393.991 243.597C394.454 243.305 395.001 243.159 395.634 243.159C396.437 243.159 397.092 243.413 397.599 243.92C398.107 244.428 398.361 245.169 398.361 246.142V252H396.298V246.46C396.298 245.919 396.154 245.523 395.866 245.273C395.579 245.019 395.226 244.892 394.81 244.892C394.313 244.892 393.925 245.047 393.645 245.358C393.368 245.665 393.23 246.064 393.23 246.557V252H391.213V246.375C391.213 245.924 391.077 245.564 390.804 245.295C390.535 245.027 390.183 244.892 389.747 244.892C389.452 244.892 389.183 244.968 388.94 245.119C388.698 245.267 388.505 245.477 388.361 245.75C388.217 246.019 388.145 246.333 388.145 246.693V252H386.088ZM402.959 252.176C402.406 252.176 401.908 252.078 401.464 251.881C401.025 251.68 400.677 251.384 400.419 250.994C400.165 250.604 400.038 250.123 400.038 249.551C400.038 249.059 400.129 248.652 400.311 248.33C400.493 248.008 400.741 247.75 401.055 247.557C401.37 247.364 401.724 247.218 402.118 247.119C402.516 247.017 402.927 246.943 403.351 246.898C403.862 246.845 404.277 246.797 404.595 246.756C404.913 246.71 405.144 246.642 405.288 246.551C405.436 246.456 405.51 246.311 405.51 246.114V246.08C405.51 245.652 405.383 245.32 405.129 245.085C404.875 244.85 404.51 244.733 404.033 244.733C403.529 244.733 403.129 244.843 402.834 245.062C402.542 245.282 402.345 245.542 402.243 245.841L400.322 245.568C400.474 245.038 400.724 244.595 401.072 244.239C401.421 243.879 401.847 243.61 402.351 243.432C402.855 243.25 403.411 243.159 404.021 243.159C404.442 243.159 404.86 243.208 405.277 243.307C405.694 243.405 406.074 243.568 406.419 243.795C406.764 244.019 407.04 244.324 407.249 244.71C407.461 245.097 407.567 245.58 407.567 246.159V252H405.589V250.801H405.521C405.396 251.044 405.22 251.271 404.993 251.483C404.769 251.691 404.487 251.86 404.146 251.989C403.809 252.114 403.413 252.176 402.959 252.176ZM403.493 250.665C403.906 250.665 404.264 250.583 404.567 250.42C404.87 250.254 405.103 250.034 405.266 249.761C405.432 249.489 405.516 249.191 405.516 248.869V247.841C405.451 247.894 405.341 247.943 405.186 247.989C405.035 248.034 404.864 248.074 404.675 248.108C404.485 248.142 404.298 248.172 404.112 248.199C403.927 248.225 403.766 248.248 403.629 248.267C403.322 248.309 403.048 248.377 402.805 248.472C402.563 248.566 402.372 248.699 402.232 248.869C402.091 249.036 402.021 249.252 402.021 249.517C402.021 249.896 402.16 250.182 402.436 250.375C402.713 250.568 403.065 250.665 403.493 250.665ZM413.993 243.273V244.864H408.976V243.273H413.993ZM410.214 241.182H412.271V249.375C412.271 249.652 412.313 249.864 412.396 250.011C412.483 250.155 412.597 250.254 412.737 250.307C412.877 250.36 413.033 250.386 413.203 250.386C413.332 250.386 413.449 250.377 413.555 250.358C413.665 250.339 413.749 250.322 413.805 250.307L414.152 251.915C414.042 251.953 413.885 251.994 413.68 252.04C413.48 252.085 413.233 252.112 412.942 252.119C412.427 252.134 411.963 252.057 411.55 251.886C411.137 251.712 410.809 251.443 410.567 251.08C410.328 250.716 410.211 250.261 410.214 249.716V241.182ZM419.483 252.17C418.608 252.17 417.852 251.989 417.216 251.625C416.583 251.258 416.097 250.739 415.756 250.068C415.415 249.394 415.244 248.6 415.244 247.688C415.244 246.79 415.415 246.002 415.756 245.324C416.1 244.642 416.581 244.112 417.199 243.733C417.816 243.35 418.542 243.159 419.375 243.159C419.913 243.159 420.42 243.246 420.898 243.42C421.379 243.591 421.803 243.856 422.17 244.216C422.542 244.576 422.833 245.034 423.045 245.591C423.258 246.144 423.364 246.803 423.364 247.568V248.199H416.21V246.812H421.392C421.388 246.419 421.303 246.068 421.136 245.761C420.97 245.451 420.737 245.206 420.438 245.028C420.142 244.85 419.797 244.761 419.403 244.761C418.983 244.761 418.614 244.864 418.295 245.068C417.977 245.269 417.729 245.534 417.551 245.864C417.377 246.189 417.288 246.547 417.284 246.938V248.148C417.284 248.655 417.377 249.091 417.562 249.455C417.748 249.814 418.008 250.091 418.341 250.284C418.674 250.473 419.064 250.568 419.511 250.568C419.811 250.568 420.081 250.527 420.324 250.443C420.566 250.356 420.777 250.229 420.955 250.062C421.133 249.896 421.267 249.689 421.358 249.443L423.278 249.659C423.157 250.167 422.926 250.61 422.585 250.989C422.248 251.364 421.816 251.655 421.29 251.864C420.763 252.068 420.161 252.17 419.483 252.17ZM428.342 252.153C427.657 252.153 427.043 251.977 426.501 251.625C425.96 251.273 425.532 250.761 425.217 250.091C424.903 249.42 424.746 248.606 424.746 247.648C424.746 246.678 424.905 245.86 425.223 245.193C425.545 244.523 425.979 244.017 426.524 243.676C427.07 243.331 427.678 243.159 428.348 243.159C428.859 243.159 429.28 243.246 429.609 243.42C429.939 243.591 430.2 243.797 430.393 244.04C430.587 244.278 430.736 244.504 430.842 244.716H430.928V240.364H432.99V252H430.967V250.625H430.842C430.736 250.837 430.583 251.062 430.382 251.301C430.181 251.536 429.916 251.737 429.587 251.903C429.257 252.07 428.842 252.153 428.342 252.153ZM428.916 250.466C429.352 250.466 429.723 250.348 430.03 250.114C430.337 249.875 430.57 249.544 430.729 249.119C430.888 248.695 430.967 248.201 430.967 247.636C430.967 247.072 430.888 246.581 430.729 246.165C430.573 245.748 430.342 245.424 430.036 245.193C429.732 244.962 429.359 244.847 428.916 244.847C428.458 244.847 428.075 244.966 427.768 245.205C427.462 245.443 427.231 245.773 427.075 246.193C426.92 246.614 426.842 247.095 426.842 247.636C426.842 248.182 426.92 248.669 427.075 249.097C427.234 249.521 427.467 249.856 427.774 250.102C428.085 250.345 428.465 250.466 428.916 250.466ZM439.241 252V240.364H443.605C444.499 240.364 445.249 240.519 445.855 240.83C446.465 241.14 446.925 241.576 447.236 242.136C447.55 242.693 447.707 243.343 447.707 244.085C447.707 244.831 447.548 245.479 447.23 246.028C446.916 246.574 446.452 246.996 445.838 247.295C445.224 247.591 444.471 247.739 443.577 247.739H440.469V245.989H443.293C443.815 245.989 444.243 245.917 444.577 245.773C444.91 245.625 445.156 245.411 445.315 245.131C445.478 244.847 445.56 244.498 445.56 244.085C445.56 243.672 445.478 243.32 445.315 243.028C445.152 242.733 444.904 242.509 444.571 242.358C444.238 242.203 443.808 242.125 443.281 242.125H441.349V252H439.241ZM445.253 246.727L448.134 252H445.781L442.952 246.727H445.253ZM449.557 252V243.273H451.614V252H449.557ZM450.591 242.034C450.265 242.034 449.985 241.926 449.75 241.71C449.515 241.491 449.398 241.227 449.398 240.92C449.398 240.61 449.515 240.347 449.75 240.131C449.985 239.911 450.265 239.801 450.591 239.801C450.92 239.801 451.201 239.911 451.432 240.131C451.667 240.347 451.784 240.61 451.784 240.92C451.784 241.227 451.667 241.491 451.432 241.71C451.201 241.926 450.92 242.034 450.591 242.034ZM460.626 245.58L458.751 245.784C458.698 245.595 458.606 245.417 458.473 245.25C458.344 245.083 458.17 244.949 457.95 244.847C457.731 244.744 457.462 244.693 457.143 244.693C456.715 244.693 456.356 244.786 456.064 244.972C455.776 245.157 455.634 245.398 455.638 245.693C455.634 245.947 455.727 246.153 455.916 246.312C456.109 246.472 456.428 246.602 456.871 246.705L458.359 247.023C459.185 247.201 459.799 247.483 460.2 247.869C460.606 248.256 460.81 248.761 460.814 249.386C460.81 249.936 460.649 250.42 460.331 250.841C460.017 251.258 459.579 251.583 459.018 251.818C458.458 252.053 457.814 252.17 457.087 252.17C456.018 252.17 455.159 251.947 454.507 251.5C453.856 251.049 453.467 250.422 453.342 249.619L455.348 249.426C455.439 249.82 455.632 250.117 455.928 250.318C456.223 250.519 456.607 250.619 457.081 250.619C457.57 250.619 457.962 250.519 458.257 250.318C458.556 250.117 458.706 249.869 458.706 249.574C458.706 249.324 458.609 249.117 458.416 248.955C458.227 248.792 457.931 248.667 457.53 248.58L456.041 248.267C455.204 248.093 454.585 247.799 454.183 247.386C453.782 246.97 453.583 246.443 453.587 245.807C453.583 245.269 453.729 244.803 454.024 244.409C454.323 244.011 454.738 243.705 455.268 243.489C455.803 243.269 456.418 243.159 457.115 243.159C458.138 243.159 458.943 243.377 459.53 243.812C460.121 244.248 460.486 244.837 460.626 245.58ZM464.385 249.261L464.379 246.778H464.709L467.845 243.273H470.249L466.391 247.568H465.964L464.385 249.261ZM462.51 252V240.364H464.567V252H462.51ZM467.987 252L465.146 248.028L466.533 246.58L470.447 252H467.987ZM475.679 252V240.364H477.787V245.29H483.179V240.364H485.293V252H483.179V247.057H477.787V252H475.679ZM490.006 252.176C489.453 252.176 488.955 252.078 488.511 251.881C488.072 251.68 487.723 251.384 487.466 250.994C487.212 250.604 487.085 250.123 487.085 249.551C487.085 249.059 487.176 248.652 487.358 248.33C487.54 248.008 487.788 247.75 488.102 247.557C488.417 247.364 488.771 247.218 489.165 247.119C489.563 247.017 489.973 246.943 490.398 246.898C490.909 246.845 491.324 246.797 491.642 246.756C491.96 246.71 492.191 246.642 492.335 246.551C492.483 246.456 492.557 246.311 492.557 246.114V246.08C492.557 245.652 492.43 245.32 492.176 245.085C491.922 244.85 491.557 244.733 491.08 244.733C490.576 244.733 490.176 244.843 489.881 245.062C489.589 245.282 489.392 245.542 489.29 245.841L487.369 245.568C487.521 245.038 487.771 244.595 488.119 244.239C488.468 243.879 488.894 243.61 489.398 243.432C489.902 243.25 490.458 243.159 491.068 243.159C491.489 243.159 491.907 243.208 492.324 243.307C492.741 243.405 493.121 243.568 493.466 243.795C493.811 244.019 494.087 244.324 494.295 244.71C494.508 245.097 494.614 245.58 494.614 246.159V252H492.636V250.801H492.568C492.443 251.044 492.267 251.271 492.04 251.483C491.816 251.691 491.534 251.86 491.193 251.989C490.856 252.114 490.46 252.176 490.006 252.176ZM490.54 250.665C490.953 250.665 491.311 250.583 491.614 250.42C491.917 250.254 492.15 250.034 492.312 249.761C492.479 249.489 492.562 249.191 492.562 248.869V247.841C492.498 247.894 492.388 247.943 492.233 247.989C492.081 248.034 491.911 248.074 491.722 248.108C491.532 248.142 491.345 248.172 491.159 248.199C490.973 248.225 490.813 248.248 490.676 248.267C490.369 248.309 490.095 248.377 489.852 248.472C489.61 248.566 489.419 248.699 489.278 248.869C489.138 249.036 489.068 249.252 489.068 249.517C489.068 249.896 489.206 250.182 489.483 250.375C489.759 250.568 490.112 250.665 490.54 250.665ZM498.739 246.886V252H496.682V243.273H498.648V244.756H498.75C498.951 244.267 499.271 243.879 499.71 243.591C500.153 243.303 500.701 243.159 501.352 243.159C501.955 243.159 502.479 243.288 502.926 243.545C503.377 243.803 503.725 244.176 503.972 244.665C504.222 245.153 504.345 245.746 504.341 246.443V252H502.284V246.761C502.284 246.178 502.133 245.722 501.83 245.392C501.53 245.062 501.116 244.898 500.585 244.898C500.225 244.898 499.905 244.977 499.625 245.136C499.348 245.292 499.131 245.517 498.972 245.812C498.816 246.108 498.739 246.466 498.739 246.886ZM509.67 252.153C508.985 252.153 508.371 251.977 507.83 251.625C507.288 251.273 506.86 250.761 506.545 250.091C506.231 249.42 506.074 248.606 506.074 247.648C506.074 246.678 506.233 245.86 506.551 245.193C506.873 244.523 507.307 244.017 507.852 243.676C508.398 243.331 509.006 243.159 509.676 243.159C510.188 243.159 510.608 243.246 510.938 243.42C511.267 243.591 511.528 243.797 511.722 244.04C511.915 244.278 512.064 244.504 512.17 244.716H512.256V240.364H514.318V252H512.295V250.625H512.17C512.064 250.837 511.911 251.062 511.71 251.301C511.509 251.536 511.244 251.737 510.915 251.903C510.585 252.07 510.17 252.153 509.67 252.153ZM510.244 250.466C510.68 250.466 511.051 250.348 511.358 250.114C511.665 249.875 511.898 249.544 512.057 249.119C512.216 248.695 512.295 248.201 512.295 247.636C512.295 247.072 512.216 246.581 512.057 246.165C511.902 245.748 511.67 245.424 511.364 245.193C511.061 244.962 510.688 244.847 510.244 244.847C509.786 244.847 509.403 244.966 509.097 245.205C508.79 245.443 508.559 245.773 508.403 246.193C508.248 246.614 508.17 247.095 508.17 247.636C508.17 248.182 508.248 248.669 508.403 249.097C508.563 249.521 508.795 249.856 509.102 250.102C509.413 250.345 509.794 250.466 510.244 250.466ZM518.567 240.364V252H516.51V240.364H518.567ZM520.682 252V243.273H522.739V252H520.682ZM521.716 242.034C521.39 242.034 521.11 241.926 520.875 241.71C520.64 241.491 520.523 241.227 520.523 240.92C520.523 240.61 520.64 240.347 520.875 240.131C521.11 239.911 521.39 239.801 521.716 239.801C522.045 239.801 522.326 239.911 522.557 240.131C522.792 240.347 522.909 240.61 522.909 240.92C522.909 241.227 522.792 241.491 522.557 241.71C522.326 241.926 522.045 242.034 521.716 242.034ZM526.911 246.886V252H524.854V243.273H526.82V244.756H526.922C527.123 244.267 527.443 243.879 527.882 243.591C528.325 243.303 528.873 243.159 529.524 243.159C530.126 243.159 530.651 243.288 531.098 243.545C531.549 243.803 531.897 244.176 532.143 244.665C532.393 245.153 532.517 245.746 532.513 246.443V252H530.456V246.761C530.456 246.178 530.304 245.722 530.001 245.392C529.702 245.062 529.287 244.898 528.757 244.898C528.397 244.898 528.077 244.977 527.797 245.136C527.52 245.292 527.303 245.517 527.143 245.812C526.988 246.108 526.911 246.466 526.911 246.886ZM538.399 255.455C537.661 255.455 537.026 255.354 536.496 255.153C535.965 254.956 535.539 254.691 535.217 254.358C534.895 254.025 534.672 253.655 534.547 253.25L536.399 252.801C536.482 252.972 536.604 253.14 536.763 253.307C536.922 253.477 537.136 253.617 537.405 253.727C537.678 253.841 538.02 253.898 538.433 253.898C539.017 253.898 539.5 253.756 539.882 253.472C540.265 253.191 540.456 252.729 540.456 252.085V250.432H540.354C540.248 250.644 540.092 250.862 539.888 251.085C539.687 251.309 539.42 251.496 539.087 251.648C538.757 251.799 538.342 251.875 537.842 251.875C537.172 251.875 536.564 251.718 536.018 251.403C535.477 251.085 535.045 250.612 534.723 249.983C534.405 249.35 534.246 248.559 534.246 247.608C534.246 246.65 534.405 245.841 534.723 245.182C535.045 244.519 535.479 244.017 536.024 243.676C536.57 243.331 537.178 243.159 537.848 243.159C538.359 243.159 538.78 243.246 539.109 243.42C539.443 243.591 539.708 243.797 539.905 244.04C540.102 244.278 540.251 244.504 540.354 244.716H540.467V243.273H542.496V252.142C542.496 252.888 542.318 253.506 541.962 253.994C541.606 254.483 541.119 254.848 540.501 255.091C539.884 255.333 539.183 255.455 538.399 255.455ZM538.416 250.261C538.852 250.261 539.223 250.155 539.53 249.943C539.837 249.731 540.07 249.426 540.229 249.028C540.388 248.631 540.467 248.153 540.467 247.597C540.467 247.047 540.388 246.566 540.229 246.153C540.073 245.741 539.842 245.42 539.536 245.193C539.232 244.962 538.859 244.847 538.416 244.847C537.958 244.847 537.575 244.966 537.268 245.205C536.962 245.443 536.731 245.771 536.575 246.188C536.42 246.6 536.342 247.07 536.342 247.597C536.342 248.131 536.42 248.598 536.575 249C536.734 249.398 536.967 249.708 537.274 249.932C537.585 250.152 537.965 250.261 538.416 250.261Z" fill="#2B313F" fill-opacity="0.8"/>
</g>
<g filter="url(#filter4_dd_307_12019)">
<rect x="53" y="190" width="167" height="34" rx="17" fill="white" shape-rendering="crispEdges"/>
<path d="M75.501 201.167C76.1452 201.167 76.6678 201.689 76.668 202.333V203.5C76.668 204.144 76.1453 204.667 75.501 204.667H72.584V206.417H74.918C75.8843 206.417 76.668 207.201 76.668 208.167V209.333H77.251C77.5731 209.333 77.834 209.595 77.834 209.917V212.25C77.834 212.572 77.5731 212.833 77.251 212.833H74.918C74.5958 212.833 74.334 212.572 74.334 212.25V209.917C74.334 209.595 74.5958 209.333 74.918 209.333H75.501V208.167C75.501 207.845 75.24 207.583 74.918 207.583H72.584V209.333H73.168C73.49 209.333 73.751 209.595 73.751 209.917V212.25C73.751 212.572 73.49 212.833 73.168 212.833H70.834C70.512 212.833 70.251 212.572 70.251 212.25V209.917C70.251 209.595 70.512 209.333 70.834 209.333H71.418V207.583H69.084C68.762 207.583 68.501 207.845 68.501 208.167V209.333H69.084C69.4062 209.333 69.668 209.595 69.668 209.917V212.25C69.668 212.572 69.4062 212.833 69.084 212.833H66.751C66.4288 212.833 66.168 212.572 66.168 212.25V209.917C66.168 209.595 66.4288 209.333 66.751 209.333H67.334V208.167C67.334 207.201 68.1176 206.417 69.084 206.417H71.418V204.667H68.501C67.8566 204.667 67.334 204.144 67.334 203.5V202.333C67.3342 201.689 67.8568 201.167 68.501 201.167H75.501Z" fill="#26B6A9"/>
<path d="M87.6364 203.131V201.364H96.9205V203.131H93.3239V213H91.233V203.131H87.6364ZM97.7131 213V204.273H99.7074V205.727H99.7983C99.9574 205.223 100.23 204.835 100.616 204.562C101.007 204.286 101.452 204.148 101.952 204.148C102.065 204.148 102.192 204.153 102.332 204.165C102.476 204.172 102.596 204.186 102.69 204.205V206.097C102.603 206.066 102.465 206.04 102.276 206.017C102.09 205.991 101.91 205.977 101.736 205.977C101.361 205.977 101.024 206.059 100.724 206.222C100.429 206.381 100.196 206.602 100.026 206.886C99.8551 207.17 99.7699 207.498 99.7699 207.869V213H97.7131ZM106.412 213.176C105.859 213.176 105.361 213.078 104.918 212.881C104.478 212.68 104.13 212.384 103.872 211.994C103.618 211.604 103.491 211.123 103.491 210.551C103.491 210.059 103.582 209.652 103.764 209.33C103.946 209.008 104.194 208.75 104.509 208.557C104.823 208.364 105.177 208.218 105.571 208.119C105.969 208.017 106.38 207.943 106.804 207.898C107.315 207.845 107.73 207.797 108.048 207.756C108.366 207.71 108.598 207.642 108.741 207.551C108.889 207.456 108.963 207.311 108.963 207.114V207.08C108.963 206.652 108.836 206.32 108.582 206.085C108.329 205.85 107.963 205.733 107.486 205.733C106.982 205.733 106.582 205.843 106.287 206.062C105.995 206.282 105.798 206.542 105.696 206.841L103.776 206.568C103.927 206.038 104.177 205.595 104.526 205.239C104.874 204.879 105.3 204.61 105.804 204.432C106.308 204.25 106.865 204.159 107.474 204.159C107.895 204.159 108.313 204.208 108.73 204.307C109.147 204.405 109.527 204.568 109.872 204.795C110.217 205.019 110.493 205.324 110.702 205.71C110.914 206.097 111.02 206.58 111.02 207.159V213H109.043V211.801H108.974C108.849 212.044 108.673 212.271 108.446 212.483C108.223 212.691 107.94 212.86 107.599 212.989C107.262 213.114 106.866 213.176 106.412 213.176ZM106.946 211.665C107.359 211.665 107.717 211.583 108.02 211.42C108.323 211.254 108.556 211.034 108.719 210.761C108.885 210.489 108.969 210.191 108.969 209.869V208.841C108.904 208.894 108.795 208.943 108.639 208.989C108.488 209.034 108.317 209.074 108.128 209.108C107.938 209.142 107.751 209.172 107.565 209.199C107.38 209.225 107.219 209.248 107.082 209.267C106.776 209.309 106.501 209.377 106.259 209.472C106.016 209.566 105.825 209.699 105.685 209.869C105.545 210.036 105.474 210.252 105.474 210.517C105.474 210.896 105.613 211.182 105.889 211.375C106.166 211.568 106.518 211.665 106.946 211.665ZM117.509 204.273V205.864H112.349V204.273H117.509ZM113.639 213V203.449C113.639 202.862 113.76 202.373 114.003 201.983C114.249 201.593 114.579 201.301 114.991 201.108C115.404 200.915 115.863 200.818 116.366 200.818C116.723 200.818 117.039 200.847 117.315 200.903C117.592 200.96 117.796 201.011 117.929 201.057L117.52 202.648C117.433 202.621 117.323 202.595 117.19 202.568C117.058 202.538 116.91 202.523 116.747 202.523C116.365 202.523 116.094 202.616 115.935 202.801C115.779 202.983 115.702 203.244 115.702 203.585V213H113.639ZM123.54 204.273V205.864H118.381V204.273H123.54ZM119.67 213V203.449C119.67 202.862 119.792 202.373 120.034 201.983C120.28 201.593 120.61 201.301 121.023 201.108C121.436 200.915 121.894 200.818 122.398 200.818C122.754 200.818 123.07 200.847 123.347 200.903C123.623 200.96 123.828 201.011 123.96 201.057L123.551 202.648C123.464 202.621 123.354 202.595 123.222 202.568C123.089 202.538 122.941 202.523 122.778 202.523C122.396 202.523 122.125 202.616 121.966 202.801C121.811 202.983 121.733 203.244 121.733 203.585V213H119.67ZM125.151 213V204.273H127.207V213H125.151ZM126.185 203.034C125.859 203.034 125.579 202.926 125.344 202.71C125.109 202.491 124.991 202.227 124.991 201.92C124.991 201.61 125.109 201.347 125.344 201.131C125.579 200.911 125.859 200.801 126.185 200.801C126.514 200.801 126.795 200.911 127.026 201.131C127.26 201.347 127.378 201.61 127.378 201.92C127.378 202.227 127.26 202.491 127.026 202.71C126.795 202.926 126.514 203.034 126.185 203.034ZM133.129 213.17C132.258 213.17 131.51 212.979 130.885 212.597C130.264 212.214 129.785 211.686 129.447 211.011C129.114 210.333 128.947 209.553 128.947 208.67C128.947 207.784 129.118 207.002 129.459 206.324C129.8 205.642 130.281 205.112 130.902 204.733C131.527 204.35 132.266 204.159 133.118 204.159C133.826 204.159 134.453 204.29 134.999 204.551C135.548 204.809 135.985 205.174 136.311 205.648C136.637 206.117 136.822 206.667 136.868 207.295H134.902C134.822 206.875 134.633 206.525 134.334 206.244C134.038 205.96 133.643 205.818 133.146 205.818C132.726 205.818 132.357 205.932 132.038 206.159C131.72 206.383 131.472 206.705 131.294 207.125C131.12 207.545 131.033 208.049 131.033 208.636C131.033 209.231 131.12 209.742 131.294 210.17C131.468 210.595 131.713 210.922 132.027 211.153C132.345 211.381 132.718 211.494 133.146 211.494C133.449 211.494 133.72 211.437 133.959 211.324C134.201 211.206 134.404 211.038 134.567 210.818C134.73 210.598 134.841 210.331 134.902 210.017H136.868C136.819 210.634 136.637 211.182 136.322 211.659C136.008 212.133 135.58 212.504 135.038 212.773C134.497 213.038 133.86 213.17 133.129 213.17ZM142.616 213V201.364H146.98C147.874 201.364 148.624 201.519 149.23 201.83C149.84 202.14 150.3 202.576 150.611 203.136C150.925 203.693 151.082 204.343 151.082 205.085C151.082 205.831 150.923 206.479 150.605 207.028C150.291 207.574 149.827 207.996 149.213 208.295C148.599 208.591 147.846 208.739 146.952 208.739H143.844V206.989H146.668C147.19 206.989 147.618 206.917 147.952 206.773C148.285 206.625 148.531 206.411 148.69 206.131C148.853 205.847 148.935 205.498 148.935 205.085C148.935 204.672 148.853 204.32 148.69 204.028C148.527 203.733 148.279 203.509 147.946 203.358C147.613 203.203 147.183 203.125 146.656 203.125H144.724V213H142.616ZM148.628 207.727L151.509 213H149.156L146.327 207.727H148.628ZM156.614 213.17C155.761 213.17 155.023 212.983 154.398 212.608C153.773 212.233 153.288 211.708 152.943 211.034C152.602 210.36 152.432 209.572 152.432 208.67C152.432 207.769 152.602 206.979 152.943 206.301C153.288 205.623 153.773 205.097 154.398 204.722C155.023 204.347 155.761 204.159 156.614 204.159C157.466 204.159 158.205 204.347 158.83 204.722C159.455 205.097 159.938 205.623 160.278 206.301C160.623 206.979 160.795 207.769 160.795 208.67C160.795 209.572 160.623 210.36 160.278 211.034C159.938 211.708 159.455 212.233 158.83 212.608C158.205 212.983 157.466 213.17 156.614 213.17ZM156.625 211.523C157.087 211.523 157.473 211.396 157.784 211.142C158.095 210.884 158.326 210.54 158.477 210.108C158.633 209.676 158.71 209.195 158.71 208.665C158.71 208.131 158.633 207.648 158.477 207.216C158.326 206.78 158.095 206.434 157.784 206.176C157.473 205.919 157.087 205.79 156.625 205.79C156.152 205.79 155.758 205.919 155.443 206.176C155.133 206.434 154.9 206.78 154.744 207.216C154.593 207.648 154.517 208.131 154.517 208.665C154.517 209.195 154.593 209.676 154.744 210.108C154.9 210.54 155.133 210.884 155.443 211.142C155.758 211.396 156.152 211.523 156.625 211.523ZM168.104 209.33V204.273H170.161V213H168.166V211.449H168.075C167.878 211.937 167.554 212.337 167.104 212.648C166.657 212.958 166.106 213.114 165.45 213.114C164.878 213.114 164.373 212.987 163.933 212.733C163.498 212.475 163.157 212.102 162.911 211.614C162.664 211.121 162.541 210.527 162.541 209.83V204.273H164.598V209.511C164.598 210.064 164.75 210.504 165.053 210.83C165.356 211.155 165.753 211.318 166.246 211.318C166.549 211.318 166.842 211.244 167.126 211.097C167.411 210.949 167.643 210.729 167.825 210.438C168.011 210.142 168.104 209.773 168.104 209.33ZM176.634 204.273V205.864H171.616V204.273H176.634ZM172.855 202.182H174.912V210.375C174.912 210.652 174.954 210.864 175.037 211.011C175.124 211.155 175.238 211.254 175.378 211.307C175.518 211.36 175.673 211.386 175.844 211.386C175.973 211.386 176.09 211.377 176.196 211.358C176.306 211.339 176.389 211.322 176.446 211.307L176.793 212.915C176.683 212.953 176.526 212.994 176.321 213.04C176.12 213.085 175.874 213.112 175.582 213.119C175.067 213.134 174.603 213.057 174.19 212.886C173.777 212.712 173.45 212.443 173.207 212.08C172.969 211.716 172.851 211.261 172.855 210.716V202.182ZM178.354 213V204.273H180.411V213H178.354ZM179.388 203.034C179.062 203.034 178.782 202.926 178.547 202.71C178.312 202.491 178.195 202.227 178.195 201.92C178.195 201.61 178.312 201.347 178.547 201.131C178.782 200.911 179.062 200.801 179.388 200.801C179.717 200.801 179.998 200.911 180.229 201.131C180.464 201.347 180.581 201.61 180.581 201.92C180.581 202.227 180.464 202.491 180.229 202.71C179.998 202.926 179.717 203.034 179.388 203.034ZM184.582 207.886V213H182.526V204.273H184.491V205.756H184.594C184.795 205.267 185.115 204.879 185.554 204.591C185.997 204.303 186.545 204.159 187.196 204.159C187.798 204.159 188.323 204.288 188.77 204.545C189.221 204.803 189.569 205.176 189.815 205.665C190.065 206.153 190.188 206.746 190.185 207.443V213H188.128V207.761C188.128 207.178 187.976 206.722 187.673 206.392C187.374 206.062 186.959 205.898 186.429 205.898C186.069 205.898 185.749 205.977 185.469 206.136C185.192 206.292 184.974 206.517 184.815 206.812C184.66 207.108 184.582 207.466 184.582 207.886ZM196.071 216.455C195.332 216.455 194.698 216.354 194.168 216.153C193.637 215.956 193.211 215.691 192.889 215.358C192.567 215.025 192.344 214.655 192.219 214.25L194.071 213.801C194.154 213.972 194.276 214.14 194.435 214.307C194.594 214.477 194.808 214.617 195.077 214.727C195.349 214.841 195.692 214.898 196.105 214.898C196.688 214.898 197.171 214.756 197.554 214.472C197.937 214.191 198.128 213.729 198.128 213.085V211.432H198.026C197.92 211.644 197.764 211.862 197.56 212.085C197.359 212.309 197.092 212.496 196.759 212.648C196.429 212.799 196.014 212.875 195.514 212.875C194.844 212.875 194.236 212.718 193.69 212.403C193.149 212.085 192.717 211.612 192.395 210.983C192.077 210.35 191.918 209.559 191.918 208.608C191.918 207.65 192.077 206.841 192.395 206.182C192.717 205.519 193.151 205.017 193.696 204.676C194.241 204.331 194.849 204.159 195.52 204.159C196.031 204.159 196.452 204.246 196.781 204.42C197.115 204.591 197.38 204.797 197.577 205.04C197.774 205.278 197.923 205.504 198.026 205.716H198.139V204.273H200.168V213.142C200.168 213.888 199.99 214.506 199.634 214.994C199.277 215.483 198.791 215.848 198.173 216.091C197.556 216.333 196.855 216.455 196.071 216.455ZM196.088 211.261C196.524 211.261 196.895 211.155 197.202 210.943C197.509 210.731 197.741 210.426 197.901 210.028C198.06 209.631 198.139 209.153 198.139 208.597C198.139 208.047 198.06 207.566 197.901 207.153C197.745 206.741 197.514 206.42 197.207 206.193C196.904 205.962 196.531 205.847 196.088 205.847C195.63 205.847 195.247 205.966 194.94 206.205C194.634 206.443 194.402 206.771 194.247 207.188C194.092 207.6 194.014 208.07 194.014 208.597C194.014 209.131 194.092 209.598 194.247 210C194.406 210.398 194.639 210.708 194.946 210.932C195.257 211.152 195.637 211.261 196.088 211.261Z" fill="#2B313F" fill-opacity="0.8"/>
</g>
</g>
<defs>
<filter id="filter0_d_307_12019" x="248" y="116" width="82" height="82" filterUnits="userSpaceOnUse" color-interpolation-filters="sRGB">
<feFlood flood-opacity="0" result="BackgroundImageFix"/>
<feColorMatrix in="SourceAlpha" type="matrix" values="0 0 0 0 0 0 0 0 0 0 0 0 0 0 0 0 0 0 127 0" result="hardAlpha"/>
<feOffset dy="2"/>
<feGaussianBlur stdDeviation="3"/>
<feComposite in2="hardAlpha" operator="out"/>
<feColorMatrix type="matrix" values="0 0 0 0 0.584279 0 0 0 0 0.721711 0 0 0 0 0.97367 0 0 0 0.15 0"/>
<feBlend mode="normal" in2="BackgroundImageFix" result="effect1_dropShadow_307_12019"/>
<feBlend mode="normal" in="SourceGraphic" in2="effect1_dropShadow_307_12019" result="shape"/>
</filter>
<filter id="filter1_dd_307_12019" x="-8" y="41" width="206" height="98" filterUnits="userSpaceOnUse" color-interpolation-filters="sRGB">
<feFlood flood-opacity="0" result="BackgroundImageFix"/>
<feColorMatrix in="SourceAlpha" type="matrix" values="0 0 0 0 0 0 0 0 0 0 0 0 0 0 0 0 0 0 127 0" result="hardAlpha"/>
<feOffset dy="2"/>
<feGaussianBlur stdDeviation="16"/>
<feComposite in2="hardAlpha" operator="out"/>
<feColorMatrix type="matrix" values="0 0 0 0 0.258824 0 0 0 0 0.454902 0 0 0 0 0.894118 0 0 0 0.12 0"/>
<feBlend mode="normal" in2="BackgroundImageFix" result="effect1_dropShadow_307_12019"/>
<feColorMatrix in="SourceAlpha" type="matrix" values="0 0 0 0 0 0 0 0 0 0 0 0 0 0 0 0 0 0 127 0" result="hardAlpha"/>
<feOffset dy="2"/>
<feGaussianBlur stdDeviation="4"/>
<feComposite in2="hardAlpha" operator="out"/>
<feColorMatrix type="matrix" values="0 0 0 0 0.330928 0 0 0 0 0.356222 0 0 0 0 0.412879 0 0 0 0.08 0"/>
<feBlend mode="normal" in2="effect1_dropShadow_307_12019" result="effect2_dropShadow_307_12019"/>
<feBlend mode="normal" in="SourceGraphic" in2="effect2_dropShadow_307_12019" result="shape"/>
</filter>
<filter id="filter2_dd_307_12019" x="310" y="9" width="270" height="98" filterUnits="userSpaceOnUse" color-interpolation-filters="sRGB">
<feFlood flood-opacity="0" result="BackgroundImageFix"/>
<feColorMatrix in="SourceAlpha" type="matrix" values="0 0 0 0 0 0 0 0 0 0 0 0 0 0 0 0 0 0 127 0" result="hardAlpha"/>
<feOffset dy="2"/>
<feGaussianBlur stdDeviation="16"/>
<feComposite in2="hardAlpha" operator="out"/>
<feColorMatrix type="matrix" values="0 0 0 0 0.258824 0 0 0 0 0.454902 0 0 0 0 0.894118 0 0 0 0.12 0"/>
<feBlend mode="normal" in2="BackgroundImageFix" result="effect1_dropShadow_307_12019"/>
<feColorMatrix in="SourceAlpha" type="matrix" values="0 0 0 0 0 0 0 0 0 0 0 0 0 0 0 0 0 0 127 0" result="hardAlpha"/>
<feOffset dy="2"/>
<feGaussianBlur stdDeviation="4"/>
<feComposite in2="hardAlpha" operator="out"/>
<feColorMatrix type="matrix" values="0 0 0 0 0.330928 0 0 0 0 0.356222 0 0 0 0 0.412879 0 0 0 0.08 0"/>
<feBlend mode="normal" in2="effect1_dropShadow_307_12019" result="effect2_dropShadow_307_12019"/>
<feBlend mode="normal" in="SourceGraphic" in2="effect2_dropShadow_307_12019" result="shape"/>
</filter>
<filter id="filter3_dd_307_12019" x="279" y="199" width="315" height="98" filterUnits="userSpaceOnUse" color-interpolation-filters="sRGB">
<feFlood flood-opacity="0" result="BackgroundImageFix"/>
<feColorMatrix in="SourceAlpha" type="matrix" values="0 0 0 0 0 0 0 0 0 0 0 0 0 0 0 0 0 0 127 0" result="hardAlpha"/>
<feOffset dy="2"/>
<feGaussianBlur stdDeviation="16"/>
<feComposite in2="hardAlpha" operator="out"/>
<feColorMatrix type="matrix" values="0 0 0 0 0.258824 0 0 0 0 0.454902 0 0 0 0 0.894118 0 0 0 0.12 0"/>
<feBlend mode="normal" in2="BackgroundImageFix" result="effect1_dropShadow_307_12019"/>
<feColorMatrix in="SourceAlpha" type="matrix" values="0 0 0 0 0 0 0 0 0 0 0 0 0 0 0 0 0 0 127 0" result="hardAlpha"/>
<feOffset dy="2"/>
<feGaussianBlur stdDeviation="4"/>
<feComposite in2="hardAlpha" operator="out"/>
<feColorMatrix type="matrix" values="0 0 0 0 0.330928 0 0 0 0 0.356222 0 0 0 0 0.412879 0 0 0 0.08 0"/>
<feBlend mode="normal" in2="effect1_dropShadow_307_12019" result="effect2_dropShadow_307_12019"/>
<feBlend mode="normal" in="SourceGraphic" in2="effect2_dropShadow_307_12019" result="shape"/>
</filter>
<filter id="filter4_dd_307_12019" x="21" y="160" width="231" height="98" filterUnits="userSpaceOnUse" color-interpolation-filters="sRGB">
<feFlood flood-opacity="0" result="BackgroundImageFix"/>
<feColorMatrix in="SourceAlpha" type="matrix" values="0 0 0 0 0 0 0 0 0 0 0 0 0 0 0 0 0 0 127 0" result="hardAlpha"/>
<feOffset dy="2"/>
<feGaussianBlur stdDeviation="16"/>
<feComposite in2="hardAlpha" operator="out"/>
<feColorMatrix type="matrix" values="0 0 0 0 0.258824 0 0 0 0 0.454902 0 0 0 0 0.894118 0 0 0 0.12 0"/>
<feBlend mode="normal" in2="BackgroundImageFix" result="effect1_dropShadow_307_12019"/>
<feColorMatrix in="SourceAlpha" type="matrix" values="0 0 0 0 0 0 0 0 0 0 0 0 0 0 0 0 0 0 127 0" result="hardAlpha"/>
<feOffset dy="2"/>
<feGaussianBlur stdDeviation="4"/>
<feComposite in2="hardAlpha" operator="out"/>
<feColorMatrix type="matrix" values="0 0 0 0 0.330928 0 0 0 0 0.356222 0 0 0 0 0.412879 0 0 0 0.08 0"/>
<feBlend mode="normal" in2="effect1_dropShadow_307_12019" result="effect2_dropShadow_307_12019"/>
<feBlend mode="normal" in="SourceGraphic" in2="effect2_dropShadow_307_12019" result="shape"/>
</filter>
<clipPath id="clip0_307_12019">
<rect width="578" height="310" rx="12" fill="white"/>
</clipPath>
</defs>
</svg>
