<svg width="578" height="310" viewBox="0 0 578 310" fill="none" xmlns="http://www.w3.org/2000/svg">
<g clip-path="url(#clip0_307_10976)">
<rect width="578" height="310" rx="12" fill="white"/>
<g filter="url(#filter0_dd_307_10976)">
<rect x="447" y="232" width="142" height="220" rx="10" fill="white"/>
<rect x="447.602" y="232.602" width="140.797" height="218.797" rx="9.39836" stroke="#DCE1E7" stroke-opacity="0.6" stroke-width="1.20329"/>
</g>
<g filter="url(#filter1_dd_307_10976)">
<rect x="290" y="-170" width="142" height="220" rx="10" fill="white"/>
<rect x="290.602" y="-169.398" width="140.797" height="218.797" rx="9.39836" stroke="#DCE1E7" stroke-opacity="0.6" stroke-width="1.20329"/>
</g>
<g filter="url(#filter2_dd_307_10976)">
<rect x="290" y="65" width="142" height="220" rx="10" fill="white"/>
<rect x="290.602" y="65.6016" width="140.797" height="218.797" rx="9.39836" stroke="#DCE1E7" stroke-opacity="0.6" stroke-width="1.20329"/>
<rect x="299" y="77" width="125" height="150" rx="6" fill="#F2F5FA"/>
<rect x="299.738" y="260.046" width="40" height="10" rx="5" fill="#63B77F" fill-opacity="0.6"/>
<rect x="346.738" y="260.046" width="23" height="10" rx="5" fill="#F2F5FA"/>
<rect x="300" y="246" width="91" height="10" rx="5" fill="#F2F5FA"/>
<rect x="299.738" y="231.837" width="123" height="10" rx="5" fill="#F2F5FA"/>
<rect x="375.773" y="260.046" width="47" height="10" rx="5" fill="#F2F5FA"/>
<rect x="399" y="246" width="24" height="10" rx="5" fill="#F2F5FA"/>
</g>
<g filter="url(#filter3_dd_307_10976)">
<rect x="447" y="-3" width="142" height="220" rx="10" fill="white"/>
<rect x="447.602" y="-2.39836" width="140.797" height="218.797" rx="9.39836" stroke="#DCE1E7" stroke-opacity="0.6" stroke-width="1.20329"/>
<rect x="456" y="9" width="125" height="150" rx="6" fill="#F2F5FA"/>
<rect x="456.738" y="192.046" width="40" height="10" rx="5" fill="#63B77F" fill-opacity="0.6"/>
<rect x="503.738" y="192.046" width="23" height="10" rx="5" fill="#F2F5FA"/>
<rect x="457" y="178" width="91" height="10" rx="5" fill="#F2F5FA"/>
<rect x="456.738" y="163.837" width="123" height="10" rx="5" fill="#F2F5FA"/>
<rect x="532.773" y="192.046" width="47" height="10" rx="5" fill="#F2F5FA"/>
<rect x="556" y="178" width="24" height="10" rx="5" fill="#F2F5FA"/>
</g>
<g filter="url(#filter4_dd_307_10976)">
<rect x="133" y="24" width="142" height="220" rx="10" fill="white"/>
<rect x="133.602" y="24.6016" width="140.797" height="218.797" rx="9.39836" stroke="#DCE1E7" stroke-opacity="0.6" stroke-width="1.20329"/>
<rect x="142" y="36" width="125" height="150" rx="6" fill="#F2F5FA"/>
<rect x="142.738" y="219.046" width="40" height="10" rx="5" fill="#EC766E" fill-opacity="0.6"/>
<rect x="189.738" y="219.046" width="23" height="10" rx="4" fill="#F2F5FA"/>
<rect x="143" y="205" width="91" height="10" rx="5" fill="#F2F5FA"/>
<rect x="142.738" y="190.837" width="123" height="10" rx="5" fill="#F2F5FA"/>
<rect x="218.773" y="219.046" width="47" height="10" rx="4" fill="#F2F5FA"/>
<rect x="242" y="205" width="24" height="10" rx="4" fill="#F2F5FA"/>
</g>
<g filter="url(#filter5_dd_307_10976)">
<rect x="133" y="259" width="142" height="220" rx="10" fill="white"/>
<rect x="133.602" y="259.602" width="140.797" height="218.797" rx="9.39836" stroke="#DCE1E7" stroke-opacity="0.6" stroke-width="1.20329"/>
</g>
<g filter="url(#filter6_dd_307_10976)">
<rect x="-24" y="132" width="142" height="220" rx="10" fill="white"/>
<rect x="-23.3984" y="132.602" width="140.797" height="218.797" rx="9.39836" stroke="#DCE1E7" stroke-opacity="0.6" stroke-width="1.20329"/>
<rect x="-15.2617" y="143.837" width="125" height="152" rx="6" fill="#F2F5FA"/>
<rect x="-14.2617" y="298.837" width="123" height="10" rx="4" fill="#F2F5FA"/>
</g>
<g filter="url(#filter7_dd_307_10976)">
<rect x="-24" y="-103" width="142" height="220" rx="10" fill="white"/>
<rect x="-23.3984" y="-102.398" width="140.797" height="218.797" rx="9.39836" stroke="#DCE1E7" stroke-opacity="0.6" stroke-width="1.20329"/>
</g>
<g filter="url(#filter8_dd_307_10976)">
<rect x="171" y="109" width="141" height="38" rx="19" fill="#4274E4" shape-rendering="crispEdges"/>
<path d="M197.501 120.21C197.873 120.21 198.238 120.308 198.56 120.494L198.561 120.493L203.519 123.326L203.522 123.328L203.64 123.402C203.852 123.543 204.034 123.721 204.183 123.927C204.226 123.971 204.266 124.02 204.298 124.075C204.325 124.121 204.345 124.17 204.361 124.219C204.507 124.512 204.584 124.837 204.585 125.166V130.834C204.584 131.207 204.486 131.573 204.3 131.895C204.113 132.218 203.845 132.486 203.522 132.672L203.519 132.674L198.561 135.508L198.56 135.507C198.337 135.635 198.093 135.721 197.84 135.761C197.739 135.817 197.624 135.849 197.501 135.849C197.378 135.849 197.263 135.817 197.162 135.761C196.909 135.721 196.665 135.635 196.442 135.507V135.508L191.483 132.674L191.48 132.672C191.158 132.486 190.889 132.218 190.703 131.895C190.54 131.613 190.444 131.297 190.423 130.973L190.418 130.834V125.166L190.423 125.026C190.442 124.745 190.516 124.471 190.642 124.219C190.657 124.17 190.678 124.121 190.704 124.075C190.737 124.02 190.776 123.971 190.82 123.927C190.995 123.684 191.219 123.479 191.48 123.328L191.483 123.326L196.442 120.493V120.494C196.764 120.308 197.129 120.21 197.501 120.21ZM191.835 130.833L191.841 130.926C191.853 131.017 191.883 131.106 191.929 131.186C191.991 131.293 192.08 131.382 192.186 131.444L196.793 134.076V128.416L191.835 125.547V130.833ZM198.21 128.416V134.076L202.817 131.444C202.923 131.382 203.012 131.293 203.073 131.186C203.135 131.079 203.168 130.957 203.168 130.834V125.547L198.21 128.416ZM197.501 121.627C197.377 121.627 197.255 121.659 197.147 121.721L197.144 121.723L192.57 124.336L197.501 127.189L202.432 124.336L197.858 121.723L197.855 121.721C197.748 121.659 197.626 121.627 197.501 121.627Z" fill="white"/>
<path d="M215.148 134V122.364H222.602V124.131H217.256V127.29H222.091V129.057H217.256V134H215.148ZM227.655 134.17C226.78 134.17 226.024 133.989 225.388 133.625C224.755 133.258 224.268 132.739 223.928 132.068C223.587 131.394 223.416 130.6 223.416 129.688C223.416 128.79 223.587 128.002 223.928 127.324C224.272 126.642 224.753 126.112 225.371 125.733C225.988 125.35 226.714 125.159 227.547 125.159C228.085 125.159 228.592 125.246 229.07 125.42C229.551 125.591 229.975 125.856 230.342 126.216C230.714 126.576 231.005 127.034 231.217 127.591C231.429 128.144 231.536 128.803 231.536 129.568V130.199H224.382V128.812H229.564C229.56 128.419 229.475 128.068 229.308 127.761C229.142 127.451 228.909 127.206 228.609 127.028C228.314 126.85 227.969 126.761 227.575 126.761C227.155 126.761 226.786 126.864 226.467 127.068C226.149 127.269 225.901 127.534 225.723 127.864C225.549 128.189 225.46 128.547 225.456 128.938V130.148C225.456 130.655 225.549 131.091 225.734 131.455C225.92 131.814 226.179 132.091 226.513 132.284C226.846 132.473 227.236 132.568 227.683 132.568C227.982 132.568 228.253 132.527 228.496 132.443C228.738 132.356 228.948 132.229 229.126 132.062C229.304 131.896 229.439 131.689 229.53 131.443L231.45 131.659C231.329 132.167 231.098 132.61 230.757 132.989C230.42 133.364 229.988 133.655 229.462 133.864C228.935 134.068 228.333 134.17 227.655 134.17ZM235.03 134L232.564 125.273H234.661L236.195 131.409H236.274L237.842 125.273H239.916L241.484 131.375H241.57L243.081 125.273H245.183L242.712 134H240.57L238.933 128.102H238.814L237.178 134H235.03ZM251.909 128.307V130H246.67V128.307H251.909ZM260.487 125.562C260.434 125.066 260.211 124.68 259.817 124.403C259.427 124.127 258.919 123.989 258.294 123.989C257.855 123.989 257.478 124.055 257.163 124.188C256.849 124.32 256.608 124.5 256.442 124.727C256.275 124.955 256.19 125.214 256.186 125.506C256.186 125.748 256.241 125.958 256.351 126.136C256.464 126.314 256.618 126.466 256.811 126.591C257.004 126.712 257.218 126.814 257.453 126.898C257.688 126.981 257.925 127.051 258.163 127.108L259.254 127.381C259.694 127.483 260.116 127.621 260.521 127.795C260.93 127.97 261.296 128.189 261.618 128.455C261.944 128.72 262.201 129.04 262.391 129.415C262.58 129.79 262.675 130.229 262.675 130.733C262.675 131.415 262.5 132.015 262.152 132.534C261.804 133.049 261.3 133.453 260.641 133.744C259.985 134.032 259.192 134.176 258.26 134.176C257.355 134.176 256.569 134.036 255.902 133.756C255.239 133.475 254.72 133.066 254.345 132.528C253.974 131.991 253.773 131.335 253.743 130.562H255.817C255.847 130.968 255.972 131.305 256.192 131.574C256.411 131.843 256.697 132.044 257.05 132.176C257.406 132.309 257.804 132.375 258.243 132.375C258.701 132.375 259.103 132.307 259.447 132.17C259.796 132.03 260.069 131.837 260.266 131.591C260.463 131.341 260.563 131.049 260.567 130.716C260.563 130.413 260.474 130.163 260.3 129.966C260.125 129.765 259.881 129.598 259.567 129.466C259.256 129.33 258.893 129.208 258.476 129.102L257.152 128.761C256.194 128.515 255.436 128.142 254.879 127.642C254.326 127.138 254.05 126.47 254.05 125.636C254.05 124.951 254.235 124.35 254.607 123.835C254.982 123.32 255.491 122.92 256.135 122.636C256.779 122.348 257.508 122.205 258.322 122.205C259.148 122.205 259.872 122.348 260.493 122.636C261.118 122.92 261.608 123.316 261.964 123.824C262.321 124.328 262.504 124.907 262.516 125.562H260.487ZM266.52 128.886V134H264.463V122.364H266.474V126.756H266.577C266.781 126.263 267.098 125.875 267.526 125.591C267.957 125.303 268.507 125.159 269.173 125.159C269.779 125.159 270.308 125.286 270.759 125.54C271.209 125.794 271.558 126.165 271.804 126.653C272.054 127.142 272.179 127.739 272.179 128.443V134H270.122V128.761C270.122 128.174 269.971 127.718 269.668 127.392C269.368 127.062 268.948 126.898 268.406 126.898C268.043 126.898 267.717 126.977 267.429 127.136C267.145 127.292 266.921 127.517 266.759 127.812C266.599 128.108 266.52 128.466 266.52 128.886ZM278.082 134.17C277.23 134.17 276.491 133.983 275.866 133.608C275.241 133.233 274.757 132.708 274.412 132.034C274.071 131.36 273.901 130.572 273.901 129.67C273.901 128.769 274.071 127.979 274.412 127.301C274.757 126.623 275.241 126.097 275.866 125.722C276.491 125.347 277.23 125.159 278.082 125.159C278.935 125.159 279.673 125.347 280.298 125.722C280.923 126.097 281.406 126.623 281.747 127.301C282.092 127.979 282.264 128.769 282.264 129.67C282.264 130.572 282.092 131.36 281.747 132.034C281.406 132.708 280.923 133.233 280.298 133.608C279.673 133.983 278.935 134.17 278.082 134.17ZM278.094 132.523C278.556 132.523 278.942 132.396 279.253 132.142C279.563 131.884 279.795 131.54 279.946 131.108C280.101 130.676 280.179 130.195 280.179 129.665C280.179 129.131 280.101 128.648 279.946 128.216C279.795 127.78 279.563 127.434 279.253 127.176C278.942 126.919 278.556 126.79 278.094 126.79C277.62 126.79 277.226 126.919 276.912 127.176C276.601 127.434 276.368 127.78 276.213 128.216C276.062 128.648 275.986 129.131 275.986 129.665C275.986 130.195 276.062 130.676 276.213 131.108C276.368 131.54 276.601 131.884 276.912 132.142C277.226 132.396 277.62 132.523 278.094 132.523ZM288.368 125.273V126.864H283.351V125.273H288.368ZM284.589 123.182H286.646V131.375C286.646 131.652 286.688 131.864 286.771 132.011C286.858 132.155 286.972 132.254 287.112 132.307C287.252 132.36 287.408 132.386 287.578 132.386C287.707 132.386 287.824 132.377 287.93 132.358C288.04 132.339 288.124 132.322 288.18 132.307L288.527 133.915C288.417 133.953 288.26 133.994 288.055 134.04C287.855 134.085 287.608 134.112 287.317 134.119C286.802 134.134 286.338 134.057 285.925 133.886C285.512 133.712 285.184 133.443 284.942 133.08C284.703 132.716 284.586 132.261 284.589 131.716V123.182Z" fill="white"/>
</g>
<g filter="url(#filter9_dd_307_10976)">
<rect x="285.5" y="162" width="122" height="38" rx="19" fill="#4274E4" shape-rendering="crispEdges"/>
<path d="M317.668 176.042C317.668 175.854 317.593 175.674 317.46 175.541C317.328 175.408 317.147 175.334 316.96 175.334H307.043C306.855 175.334 306.675 175.408 306.542 175.541C306.409 175.674 306.335 175.854 306.335 176.042V185.665L307.959 184.041L308.011 183.994C308.137 183.891 308.295 183.834 308.46 183.834H316.96C317.147 183.834 317.328 183.759 317.46 183.626C317.593 183.493 317.668 183.313 317.668 183.125V176.042ZM319.085 183.125C319.085 183.689 318.861 184.229 318.462 184.628C318.064 185.026 317.523 185.25 316.96 185.25H308.753L306.127 187.876C305.925 188.079 305.62 188.139 305.355 188.03C305.091 187.92 304.918 187.662 304.918 187.375V176.042C304.918 175.478 305.142 174.938 305.541 174.54C305.939 174.141 306.479 173.917 307.043 173.917H316.96C317.523 173.917 318.064 174.141 318.462 174.54C318.861 174.938 319.085 175.478 319.085 176.042V183.125Z" fill="white"/>
<path d="M329.648 187V175.364H334.011C334.905 175.364 335.655 175.53 336.261 175.864C336.871 176.197 337.331 176.655 337.642 177.239C337.956 177.818 338.114 178.477 338.114 179.216C338.114 179.962 337.956 180.625 337.642 181.205C337.328 181.784 336.864 182.241 336.25 182.574C335.636 182.903 334.881 183.068 333.983 183.068H331.091V181.335H333.699C334.222 181.335 334.65 181.244 334.983 181.062C335.316 180.881 335.563 180.631 335.722 180.312C335.884 179.994 335.966 179.629 335.966 179.216C335.966 178.803 335.884 178.439 335.722 178.125C335.563 177.811 335.314 177.566 334.977 177.392C334.644 177.214 334.214 177.125 333.688 177.125H331.756V187H329.648ZM339.854 187V178.273H341.848V179.727H341.939C342.098 179.223 342.371 178.835 342.757 178.562C343.147 178.286 343.592 178.148 344.092 178.148C344.206 178.148 344.333 178.153 344.473 178.165C344.617 178.172 344.736 178.186 344.831 178.205V180.097C344.744 180.066 344.606 180.04 344.416 180.017C344.231 179.991 344.051 179.977 343.876 179.977C343.501 179.977 343.164 180.059 342.865 180.222C342.57 180.381 342.337 180.602 342.166 180.886C341.996 181.17 341.911 181.498 341.911 181.869V187H339.854ZM349.645 187.17C348.793 187.17 348.054 186.983 347.429 186.608C346.804 186.233 346.319 185.708 345.974 185.034C345.634 184.36 345.463 183.572 345.463 182.67C345.463 181.769 345.634 180.979 345.974 180.301C346.319 179.623 346.804 179.097 347.429 178.722C348.054 178.347 348.793 178.159 349.645 178.159C350.497 178.159 351.236 178.347 351.861 178.722C352.486 179.097 352.969 179.623 353.31 180.301C353.654 180.979 353.827 181.769 353.827 182.67C353.827 183.572 353.654 184.36 353.31 185.034C352.969 185.708 352.486 186.233 351.861 186.608C351.236 186.983 350.497 187.17 349.645 187.17ZM349.656 185.523C350.118 185.523 350.505 185.396 350.815 185.142C351.126 184.884 351.357 184.54 351.509 184.108C351.664 183.676 351.741 183.195 351.741 182.665C351.741 182.131 351.664 181.648 351.509 181.216C351.357 180.78 351.126 180.434 350.815 180.176C350.505 179.919 350.118 179.79 349.656 179.79C349.183 179.79 348.789 179.919 348.474 180.176C348.164 180.434 347.931 180.78 347.776 181.216C347.624 181.648 347.548 182.131 347.548 182.665C347.548 183.195 347.624 183.676 347.776 184.108C347.931 184.54 348.164 184.884 348.474 185.142C348.789 185.396 349.183 185.523 349.656 185.523ZM355.572 187V178.273H357.538V179.756H357.641C357.822 179.256 358.124 178.866 358.544 178.585C358.964 178.301 359.466 178.159 360.05 178.159C360.641 178.159 361.139 178.303 361.544 178.591C361.953 178.875 362.241 179.263 362.408 179.756H362.499C362.692 179.271 363.018 178.884 363.476 178.597C363.938 178.305 364.485 178.159 365.118 178.159C365.921 178.159 366.576 178.413 367.084 178.92C367.591 179.428 367.845 180.169 367.845 181.142V187H365.783V181.46C365.783 180.919 365.639 180.523 365.351 180.273C365.063 180.019 364.711 179.892 364.294 179.892C363.798 179.892 363.41 180.047 363.129 180.358C362.853 180.665 362.714 181.064 362.714 181.557V187H360.697V181.375C360.697 180.924 360.561 180.564 360.288 180.295C360.019 180.027 359.667 179.892 359.232 179.892C358.936 179.892 358.667 179.968 358.425 180.119C358.182 180.267 357.989 180.477 357.845 180.75C357.701 181.019 357.629 181.333 357.629 181.693V187H355.572ZM369.932 190.273V178.273H371.955V179.716H372.074C372.18 179.504 372.33 179.278 372.523 179.04C372.716 178.797 372.977 178.591 373.307 178.42C373.636 178.246 374.057 178.159 374.568 178.159C375.242 178.159 375.85 178.331 376.392 178.676C376.938 179.017 377.369 179.523 377.688 180.193C378.009 180.86 378.17 181.678 378.17 182.648C378.17 183.606 378.013 184.42 377.699 185.091C377.384 185.761 376.956 186.273 376.415 186.625C375.873 186.977 375.259 187.153 374.574 187.153C374.074 187.153 373.659 187.07 373.33 186.903C373 186.737 372.735 186.536 372.534 186.301C372.337 186.062 372.184 185.837 372.074 185.625H371.989V190.273H369.932ZM371.949 182.636C371.949 183.201 372.028 183.695 372.188 184.119C372.35 184.544 372.583 184.875 372.886 185.114C373.193 185.348 373.564 185.466 374 185.466C374.455 185.466 374.835 185.345 375.142 185.102C375.449 184.856 375.68 184.521 375.835 184.097C375.994 183.669 376.074 183.182 376.074 182.636C376.074 182.095 375.996 181.614 375.841 181.193C375.686 180.773 375.455 180.443 375.148 180.205C374.841 179.966 374.458 179.847 374 179.847C373.561 179.847 373.188 179.962 372.881 180.193C372.574 180.424 372.341 180.748 372.182 181.165C372.027 181.581 371.949 182.072 371.949 182.636ZM384.29 178.273V179.864H379.273V178.273H384.29ZM380.511 176.182H382.568V184.375C382.568 184.652 382.61 184.864 382.693 185.011C382.78 185.155 382.894 185.254 383.034 185.307C383.174 185.36 383.33 185.386 383.5 185.386C383.629 185.386 383.746 185.377 383.852 185.358C383.962 185.339 384.045 185.322 384.102 185.307L384.449 186.915C384.339 186.953 384.182 186.994 383.977 187.04C383.777 187.085 383.53 187.112 383.239 187.119C382.723 187.134 382.259 187.057 381.847 186.886C381.434 186.712 381.106 186.443 380.864 186.08C380.625 185.716 380.508 185.261 380.511 184.716V176.182Z" fill="white"/>
</g>
</g>
<defs>
<filter id="filter0_dd_307_10976" x="430.154" y="219.967" width="175.692" height="253.692" filterUnits="userSpaceOnUse" color-interpolation-filters="sRGB">
<feFlood flood-opacity="0" result="BackgroundImageFix"/>
<feColorMatrix in="SourceAlpha" type="matrix" values="0 0 0 0 0 0 0 0 0 0 0 0 0 0 0 0 0 0 127 0" result="hardAlpha"/>
<feOffset/>
<feGaussianBlur stdDeviation="0.601643"/>
<feColorMatrix type="matrix" values="0 0 0 0 0 0 0 0 0 0 0 0 0 0 0 0 0 0 0.15 0"/>
<feBlend mode="normal" in2="BackgroundImageFix" result="effect1_dropShadow_307_10976"/>
<feColorMatrix in="SourceAlpha" type="matrix" values="0 0 0 0 0 0 0 0 0 0 0 0 0 0 0 0 0 0 127 0" result="hardAlpha"/>
<feOffset dy="4.81314"/>
<feGaussianBlur stdDeviation="8.423"/>
<feColorMatrix type="matrix" values="0 0 0 0 0 0 0 0 0 0 0 0 0 0 0 0 0 0 0.05 0"/>
<feBlend mode="normal" in2="effect1_dropShadow_307_10976" result="effect2_dropShadow_307_10976"/>
<feBlend mode="normal" in="SourceGraphic" in2="effect2_dropShadow_307_10976" result="shape"/>
</filter>
<filter id="filter1_dd_307_10976" x="273.154" y="-182.033" width="175.692" height="253.692" filterUnits="userSpaceOnUse" color-interpolation-filters="sRGB">
<feFlood flood-opacity="0" result="BackgroundImageFix"/>
<feColorMatrix in="SourceAlpha" type="matrix" values="0 0 0 0 0 0 0 0 0 0 0 0 0 0 0 0 0 0 127 0" result="hardAlpha"/>
<feOffset/>
<feGaussianBlur stdDeviation="0.601643"/>
<feColorMatrix type="matrix" values="0 0 0 0 0 0 0 0 0 0 0 0 0 0 0 0 0 0 0.15 0"/>
<feBlend mode="normal" in2="BackgroundImageFix" result="effect1_dropShadow_307_10976"/>
<feColorMatrix in="SourceAlpha" type="matrix" values="0 0 0 0 0 0 0 0 0 0 0 0 0 0 0 0 0 0 127 0" result="hardAlpha"/>
<feOffset dy="4.81314"/>
<feGaussianBlur stdDeviation="8.423"/>
<feColorMatrix type="matrix" values="0 0 0 0 0 0 0 0 0 0 0 0 0 0 0 0 0 0 0.05 0"/>
<feBlend mode="normal" in2="effect1_dropShadow_307_10976" result="effect2_dropShadow_307_10976"/>
<feBlend mode="normal" in="SourceGraphic" in2="effect2_dropShadow_307_10976" result="shape"/>
</filter>
<filter id="filter2_dd_307_10976" x="273.154" y="52.9671" width="175.692" height="253.692" filterUnits="userSpaceOnUse" color-interpolation-filters="sRGB">
<feFlood flood-opacity="0" result="BackgroundImageFix"/>
<feColorMatrix in="SourceAlpha" type="matrix" values="0 0 0 0 0 0 0 0 0 0 0 0 0 0 0 0 0 0 127 0" result="hardAlpha"/>
<feOffset/>
<feGaussianBlur stdDeviation="0.601643"/>
<feColorMatrix type="matrix" values="0 0 0 0 0 0 0 0 0 0 0 0 0 0 0 0 0 0 0.15 0"/>
<feBlend mode="normal" in2="BackgroundImageFix" result="effect1_dropShadow_307_10976"/>
<feColorMatrix in="SourceAlpha" type="matrix" values="0 0 0 0 0 0 0 0 0 0 0 0 0 0 0 0 0 0 127 0" result="hardAlpha"/>
<feOffset dy="4.81314"/>
<feGaussianBlur stdDeviation="8.423"/>
<feColorMatrix type="matrix" values="0 0 0 0 0 0 0 0 0 0 0 0 0 0 0 0 0 0 0.05 0"/>
<feBlend mode="normal" in2="effect1_dropShadow_307_10976" result="effect2_dropShadow_307_10976"/>
<feBlend mode="normal" in="SourceGraphic" in2="effect2_dropShadow_307_10976" result="shape"/>
</filter>
<filter id="filter3_dd_307_10976" x="430.154" y="-15.0329" width="175.692" height="253.692" filterUnits="userSpaceOnUse" color-interpolation-filters="sRGB">
<feFlood flood-opacity="0" result="BackgroundImageFix"/>
<feColorMatrix in="SourceAlpha" type="matrix" values="0 0 0 0 0 0 0 0 0 0 0 0 0 0 0 0 0 0 127 0" result="hardAlpha"/>
<feOffset/>
<feGaussianBlur stdDeviation="0.601643"/>
<feColorMatrix type="matrix" values="0 0 0 0 0 0 0 0 0 0 0 0 0 0 0 0 0 0 0.15 0"/>
<feBlend mode="normal" in2="BackgroundImageFix" result="effect1_dropShadow_307_10976"/>
<feColorMatrix in="SourceAlpha" type="matrix" values="0 0 0 0 0 0 0 0 0 0 0 0 0 0 0 0 0 0 127 0" result="hardAlpha"/>
<feOffset dy="4.81314"/>
<feGaussianBlur stdDeviation="8.423"/>
<feColorMatrix type="matrix" values="0 0 0 0 0 0 0 0 0 0 0 0 0 0 0 0 0 0 0.05 0"/>
<feBlend mode="normal" in2="effect1_dropShadow_307_10976" result="effect2_dropShadow_307_10976"/>
<feBlend mode="normal" in="SourceGraphic" in2="effect2_dropShadow_307_10976" result="shape"/>
</filter>
<filter id="filter4_dd_307_10976" x="116.154" y="11.9671" width="175.692" height="253.692" filterUnits="userSpaceOnUse" color-interpolation-filters="sRGB">
<feFlood flood-opacity="0" result="BackgroundImageFix"/>
<feColorMatrix in="SourceAlpha" type="matrix" values="0 0 0 0 0 0 0 0 0 0 0 0 0 0 0 0 0 0 127 0" result="hardAlpha"/>
<feOffset/>
<feGaussianBlur stdDeviation="0.601643"/>
<feColorMatrix type="matrix" values="0 0 0 0 0 0 0 0 0 0 0 0 0 0 0 0 0 0 0.15 0"/>
<feBlend mode="normal" in2="BackgroundImageFix" result="effect1_dropShadow_307_10976"/>
<feColorMatrix in="SourceAlpha" type="matrix" values="0 0 0 0 0 0 0 0 0 0 0 0 0 0 0 0 0 0 127 0" result="hardAlpha"/>
<feOffset dy="4.81314"/>
<feGaussianBlur stdDeviation="8.423"/>
<feColorMatrix type="matrix" values="0 0 0 0 0 0 0 0 0 0 0 0 0 0 0 0 0 0 0.05 0"/>
<feBlend mode="normal" in2="effect1_dropShadow_307_10976" result="effect2_dropShadow_307_10976"/>
<feBlend mode="normal" in="SourceGraphic" in2="effect2_dropShadow_307_10976" result="shape"/>
</filter>
<filter id="filter5_dd_307_10976" x="116.154" y="246.967" width="175.692" height="253.692" filterUnits="userSpaceOnUse" color-interpolation-filters="sRGB">
<feFlood flood-opacity="0" result="BackgroundImageFix"/>
<feColorMatrix in="SourceAlpha" type="matrix" values="0 0 0 0 0 0 0 0 0 0 0 0 0 0 0 0 0 0 127 0" result="hardAlpha"/>
<feOffset/>
<feGaussianBlur stdDeviation="0.601643"/>
<feColorMatrix type="matrix" values="0 0 0 0 0 0 0 0 0 0 0 0 0 0 0 0 0 0 0.15 0"/>
<feBlend mode="normal" in2="BackgroundImageFix" result="effect1_dropShadow_307_10976"/>
<feColorMatrix in="SourceAlpha" type="matrix" values="0 0 0 0 0 0 0 0 0 0 0 0 0 0 0 0 0 0 127 0" result="hardAlpha"/>
<feOffset dy="4.81314"/>
<feGaussianBlur stdDeviation="8.423"/>
<feColorMatrix type="matrix" values="0 0 0 0 0 0 0 0 0 0 0 0 0 0 0 0 0 0 0.05 0"/>
<feBlend mode="normal" in2="effect1_dropShadow_307_10976" result="effect2_dropShadow_307_10976"/>
<feBlend mode="normal" in="SourceGraphic" in2="effect2_dropShadow_307_10976" result="shape"/>
</filter>
<filter id="filter6_dd_307_10976" x="-40.846" y="119.967" width="175.692" height="253.692" filterUnits="userSpaceOnUse" color-interpolation-filters="sRGB">
<feFlood flood-opacity="0" result="BackgroundImageFix"/>
<feColorMatrix in="SourceAlpha" type="matrix" values="0 0 0 0 0 0 0 0 0 0 0 0 0 0 0 0 0 0 127 0" result="hardAlpha"/>
<feOffset/>
<feGaussianBlur stdDeviation="0.601643"/>
<feColorMatrix type="matrix" values="0 0 0 0 0 0 0 0 0 0 0 0 0 0 0 0 0 0 0.15 0"/>
<feBlend mode="normal" in2="BackgroundImageFix" result="effect1_dropShadow_307_10976"/>
<feColorMatrix in="SourceAlpha" type="matrix" values="0 0 0 0 0 0 0 0 0 0 0 0 0 0 0 0 0 0 127 0" result="hardAlpha"/>
<feOffset dy="4.81314"/>
<feGaussianBlur stdDeviation="8.423"/>
<feColorMatrix type="matrix" values="0 0 0 0 0 0 0 0 0 0 0 0 0 0 0 0 0 0 0.05 0"/>
<feBlend mode="normal" in2="effect1_dropShadow_307_10976" result="effect2_dropShadow_307_10976"/>
<feBlend mode="normal" in="SourceGraphic" in2="effect2_dropShadow_307_10976" result="shape"/>
</filter>
<filter id="filter7_dd_307_10976" x="-40.846" y="-115.033" width="175.692" height="253.692" filterUnits="userSpaceOnUse" color-interpolation-filters="sRGB">
<feFlood flood-opacity="0" result="BackgroundImageFix"/>
<feColorMatrix in="SourceAlpha" type="matrix" values="0 0 0 0 0 0 0 0 0 0 0 0 0 0 0 0 0 0 127 0" result="hardAlpha"/>
<feOffset/>
<feGaussianBlur stdDeviation="0.601643"/>
<feColorMatrix type="matrix" values="0 0 0 0 0 0 0 0 0 0 0 0 0 0 0 0 0 0 0.15 0"/>
<feBlend mode="normal" in2="BackgroundImageFix" result="effect1_dropShadow_307_10976"/>
<feColorMatrix in="SourceAlpha" type="matrix" values="0 0 0 0 0 0 0 0 0 0 0 0 0 0 0 0 0 0 127 0" result="hardAlpha"/>
<feOffset dy="4.81314"/>
<feGaussianBlur stdDeviation="8.423"/>
<feColorMatrix type="matrix" values="0 0 0 0 0 0 0 0 0 0 0 0 0 0 0 0 0 0 0.05 0"/>
<feBlend mode="normal" in2="effect1_dropShadow_307_10976" result="effect2_dropShadow_307_10976"/>
<feBlend mode="normal" in="SourceGraphic" in2="effect2_dropShadow_307_10976" result="shape"/>
</filter>
<filter id="filter8_dd_307_10976" x="51" y="-9" width="381" height="278" filterUnits="userSpaceOnUse" color-interpolation-filters="sRGB">
<feFlood flood-opacity="0" result="BackgroundImageFix"/>
<feColorMatrix in="SourceAlpha" type="matrix" values="0 0 0 0 0 0 0 0 0 0 0 0 0 0 0 0 0 0 127 0" result="hardAlpha"/>
<feOffset dy="2"/>
<feGaussianBlur stdDeviation="60"/>
<feComposite in2="hardAlpha" operator="out"/>
<feColorMatrix type="matrix" values="0 0 0 0 0.258824 0 0 0 0 0.454902 0 0 0 0 0.894118 0 0 0 1 0"/>
<feBlend mode="normal" in2="BackgroundImageFix" result="effect1_dropShadow_307_10976"/>
<feColorMatrix in="SourceAlpha" type="matrix" values="0 0 0 0 0 0 0 0 0 0 0 0 0 0 0 0 0 0 127 0" result="hardAlpha"/>
<feOffset dy="1"/>
<feGaussianBlur stdDeviation="6"/>
<feComposite in2="hardAlpha" operator="out"/>
<feColorMatrix type="matrix" values="0 0 0 0 0.258824 0 0 0 0 0.454902 0 0 0 0 0.894118 0 0 0 1 0"/>
<feBlend mode="normal" in2="effect1_dropShadow_307_10976" result="effect2_dropShadow_307_10976"/>
<feBlend mode="normal" in="SourceGraphic" in2="effect2_dropShadow_307_10976" result="shape"/>
</filter>
<filter id="filter9_dd_307_10976" x="165.5" y="44" width="362" height="278" filterUnits="userSpaceOnUse" color-interpolation-filters="sRGB">
<feFlood flood-opacity="0" result="BackgroundImageFix"/>
<feColorMatrix in="SourceAlpha" type="matrix" values="0 0 0 0 0 0 0 0 0 0 0 0 0 0 0 0 0 0 127 0" result="hardAlpha"/>
<feOffset dy="2"/>
<feGaussianBlur stdDeviation="60"/>
<feComposite in2="hardAlpha" operator="out"/>
<feColorMatrix type="matrix" values="0 0 0 0 0.258824 0 0 0 0 0.454902 0 0 0 0 0.894118 0 0 0 1 0"/>
<feBlend mode="normal" in2="BackgroundImageFix" result="effect1_dropShadow_307_10976"/>
<feColorMatrix in="SourceAlpha" type="matrix" values="0 0 0 0 0 0 0 0 0 0 0 0 0 0 0 0 0 0 127 0" result="hardAlpha"/>
<feOffset dy="1"/>
<feGaussianBlur stdDeviation="6"/>
<feComposite in2="hardAlpha" operator="out"/>
<feColorMatrix type="matrix" values="0 0 0 0 0.258824 0 0 0 0 0.454902 0 0 0 0 0.894118 0 0 0 1 0"/>
<feBlend mode="normal" in2="effect1_dropShadow_307_10976" result="effect2_dropShadow_307_10976"/>
<feBlend mode="normal" in="SourceGraphic" in2="effect2_dropShadow_307_10976" result="shape"/>
</filter>
<clipPath id="clip0_307_10976">
<rect width="578" height="310" rx="12" fill="white"/>
</clipPath>
</defs>
</svg>
